<mxfile host="65bd71144e">
    <diagram id="dFRBOeBooWIgSXxVolc3" name="Page-1">
        <mxGraphModel dx="1455" dy="1493" grid="0" gridSize="10" guides="1" tooltips="1" connect="1" arrows="1" fold="1" page="1" pageScale="1" pageWidth="850" pageHeight="1100" math="0" shadow="0">
            <root>
                <mxCell id="0"/>
                <mxCell id="1" parent="0"/>
                <mxCell id="134" style="edgeStyle=none;html=1;entryX=-0.002;entryY=0.451;entryDx=0;entryDy=0;entryPerimeter=0;exitX=0.5;exitY=0;exitDx=0;exitDy=0;" parent="1" source="118" target="81" edge="1">
                    <mxGeometry relative="1" as="geometry">
                        <Array as="points">
                            <mxPoint x="53" y="-223"/>
                        </Array>
                    </mxGeometry>
                </mxCell>
                <mxCell id="135" style="edgeStyle=none;html=1;entryX=-0.002;entryY=0.464;entryDx=0;entryDy=0;entryPerimeter=0;exitX=1.006;exitY=0.187;exitDx=0;exitDy=0;exitPerimeter=0;" parent="1" source="118" target="67" edge="1">
                    <mxGeometry relative="1" as="geometry"/>
                </mxCell>
                <mxCell id="137" style="edgeStyle=none;html=1;entryX=0;entryY=0.5;entryDx=0;entryDy=0;exitX=1.003;exitY=0.691;exitDx=0;exitDy=0;exitPerimeter=0;" parent="1" source="118" target="39" edge="1">
                    <mxGeometry relative="1" as="geometry"/>
                </mxCell>
                <mxCell id="138" style="edgeStyle=none;html=1;entryX=0.5;entryY=1;entryDx=0;entryDy=0;" parent="1" source="118" target="17" edge="1">
                    <mxGeometry relative="1" as="geometry">
                        <Array as="points">
                            <mxPoint x="43" y="420"/>
                            <mxPoint x="651" y="429"/>
                        </Array>
                    </mxGeometry>
                </mxCell>
                <mxCell id="118" value="" style="rounded=0;whiteSpace=wrap;html=1;fillColor=#f8cecc;strokeColor=#b85450;sketch=1;curveFitting=1;jiggle=2;" parent="1" vertex="1">
                    <mxGeometry x="-36" y="-94" width="174" height="410" as="geometry"/>
                </mxCell>
                <mxCell id="3" value="MongoDb" style="rounded=1;whiteSpace=wrap;html=1;fillColor=#f5f5f5;fontColor=#333333;strokeColor=#666666;" parent="1" vertex="1">
                    <mxGeometry x="619" y="-369" width="123" height="66" as="geometry"/>
                </mxCell>
                <mxCell id="4" value="Validator" style="rounded=1;whiteSpace=wrap;html=1;sketch=1;curveFitting=1;jiggle=2;fillColor=#f5f5f5;fontColor=#333333;strokeColor=#666666;" parent="1" vertex="1">
                    <mxGeometry x="181" y="275" width="160" height="80" as="geometry"/>
                </mxCell>
                <mxCell id="17" value="" style="rounded=0;whiteSpace=wrap;html=1;fillColor=#d5e8d4;strokeColor=#82b366;shadow=0;sketch=1;curveFitting=1;jiggle=2;" parent="1" vertex="1">
                    <mxGeometry x="357" y="122" width="588" height="249" as="geometry"/>
                </mxCell>
                <mxCell id="43" value="" style="edgeStyle=none;html=1;rounded=0;" parent="1" source="18" target="32" edge="1">
                    <mxGeometry relative="1" as="geometry"/>
                </mxCell>
                <mxCell id="96" style="edgeStyle=none;html=1;" parent="1" source="18" target="60" edge="1">
                    <mxGeometry relative="1" as="geometry"/>
                </mxCell>
                <mxCell id="99" style="edgeStyle=none;html=1;exitX=0.5;exitY=1;exitDx=0;exitDy=0;entryX=0.5;entryY=0;entryDx=0;entryDy=0;" parent="1" source="18" target="98" edge="1">
                    <mxGeometry relative="1" as="geometry">
                        <Array as="points">
                            <mxPoint x="742" y="229"/>
                            <mxPoint x="617" y="234"/>
                        </Array>
                    </mxGeometry>
                </mxCell>
                <mxCell id="102" style="edgeStyle=none;html=1;exitX=0.25;exitY=1;exitDx=0;exitDy=0;entryX=0.5;entryY=0;entryDx=0;entryDy=0;" parent="1" source="18" target="101" edge="1">
                    <mxGeometry relative="1" as="geometry">
                        <Array as="points">
                            <mxPoint x="710" y="223"/>
                            <mxPoint x="446" y="230"/>
                        </Array>
                    </mxGeometry>
                </mxCell>
                <mxCell id="103" style="edgeStyle=none;html=1;exitX=0.75;exitY=1;exitDx=0;exitDy=0;entryX=0.439;entryY=0.021;entryDx=0;entryDy=0;entryPerimeter=0;" parent="1" source="18" target="19" edge="1">
                    <mxGeometry relative="1" as="geometry"/>
                </mxCell>
                <mxCell id="18" value="SignUpController" style="rounded=1;whiteSpace=wrap;html=1;" parent="1" vertex="1">
                    <mxGeometry x="678" y="151" width="127" height="61" as="geometry"/>
                </mxCell>
                <mxCell id="19" value="&amp;lt;I&amp;gt; Controller" style="rounded=1;whiteSpace=wrap;html=1;dashed=1;sketch=1;curveFitting=1;jiggle=2;" parent="1" vertex="1">
                    <mxGeometry x="722" y="249" width="116" height="48" as="geometry"/>
                </mxCell>
                <mxCell id="32" value="&amp;lt;I&amp;gt; EmailValidator" style="rounded=1;whiteSpace=wrap;html=1;dashed=1;sketch=1;curveFitting=1;jiggle=2;" parent="1" vertex="1">
                    <mxGeometry x="490" y="151" width="124" height="66" as="geometry"/>
                </mxCell>
                <mxCell id="39" value="" style="rounded=0;whiteSpace=wrap;html=1;fillColor=#dae8fc;strokeColor=#6c8ebf;sketch=1;curveFitting=1;jiggle=2;" parent="1" vertex="1">
                    <mxGeometry x="169" y="126" width="172" height="126" as="geometry"/>
                </mxCell>
                <mxCell id="107" style="edgeStyle=none;html=1;entryX=0.001;entryY=0.596;entryDx=0;entryDy=0;entryPerimeter=0;" parent="1" source="44" target="32" edge="1">
                    <mxGeometry relative="1" as="geometry">
                        <Array as="points">
                            <mxPoint x="490" y="190"/>
                        </Array>
                    </mxGeometry>
                </mxCell>
                <mxCell id="108" style="edgeStyle=none;html=1;exitX=0.5;exitY=1;exitDx=0;exitDy=0;" parent="1" source="44" target="4" edge="1">
                    <mxGeometry relative="1" as="geometry"/>
                </mxCell>
                <mxCell id="44" value="EmailValidatorAdapter" style="rounded=0;whiteSpace=wrap;html=1;sketch=1;curveFitting=1;jiggle=2;" parent="1" vertex="1">
                    <mxGeometry x="194" y="159" width="135" height="60" as="geometry"/>
                </mxCell>
                <mxCell id="55" value="Presentation&lt;br&gt;" style="text;html=1;align=center;verticalAlign=middle;resizable=0;points=[];autosize=1;strokeColor=none;fillColor=none;rounded=0;" parent="1" vertex="1">
                    <mxGeometry x="862" y="100" width="85" height="26" as="geometry"/>
                </mxCell>
                <mxCell id="47" value="" style="rounded=0;whiteSpace=wrap;html=1;fillColor=#FFFF99;strokeColor=none;fontColor=#ffffff;sketch=1;curveFitting=1;jiggle=2;" parent="1" vertex="1">
                    <mxGeometry x="967" y="94" width="290" height="266" as="geometry"/>
                </mxCell>
                <mxCell id="60" value="&amp;lt;I&amp;gt; AddAccount" style="rounded=1;whiteSpace=wrap;html=1;dashed=1;fillColor=#f5f5f5;fontColor=#333333;strokeColor=#666666;" parent="1" vertex="1">
                    <mxGeometry x="1041" y="157" width="120" height="60" as="geometry"/>
                </mxCell>
                <mxCell id="61" value="Domain" style="text;html=1;align=center;verticalAlign=middle;resizable=0;points=[];autosize=1;strokeColor=none;fillColor=none;rounded=0;" parent="1" vertex="1">
                    <mxGeometry x="1196" y="66" width="59" height="26" as="geometry"/>
                </mxCell>
                <mxCell id="65" value="Utils" style="text;html=1;align=center;verticalAlign=middle;resizable=0;points=[];autosize=1;strokeColor=none;fillColor=none;rounded=0;" parent="1" vertex="1">
                    <mxGeometry x="307" y="104" width="41" height="26" as="geometry"/>
                </mxCell>
                <mxCell id="67" value="" style="rounded=0;whiteSpace=wrap;html=1;fillColor=#FF99FF;fontColor=#ffffff;strokeColor=#A50040;sketch=1;curveFitting=1;jiggle=2;" parent="1" vertex="1">
                    <mxGeometry x="285" y="-101" width="662" height="183" as="geometry"/>
                </mxCell>
                <mxCell id="68" value="&amp;lt;I&amp;gt; Encripter" style="rounded=1;whiteSpace=wrap;html=1;dashed=1;fillColor=#f5f5f5;fontColor=#333333;strokeColor=#666666;" parent="1" vertex="1">
                    <mxGeometry x="370" y="-75" width="120" height="60" as="geometry"/>
                </mxCell>
                <mxCell id="69" value="&amp;lt;I&amp;gt; AddUserRepo" style="rounded=1;whiteSpace=wrap;html=1;dashed=1;" parent="1" vertex="1">
                    <mxGeometry x="718" y="-75" width="120" height="60" as="geometry"/>
                </mxCell>
                <mxCell id="74" style="edgeStyle=none;html=1;entryX=0.5;entryY=1;entryDx=0;entryDy=0;" parent="1" source="70" target="68" edge="1">
                    <mxGeometry relative="1" as="geometry">
                        <Array as="points">
                            <mxPoint x="430" y="37"/>
                        </Array>
                    </mxGeometry>
                </mxCell>
                <mxCell id="79" style="edgeStyle=none;html=1;entryX=0.634;entryY=1.008;entryDx=0;entryDy=0;entryPerimeter=0;exitX=1;exitY=0.514;exitDx=0;exitDy=0;exitPerimeter=0;" parent="1" source="70" target="69" edge="1">
                    <mxGeometry relative="1" as="geometry">
                        <Array as="points">
                            <mxPoint x="727" y="35"/>
                            <mxPoint x="791" y="35"/>
                        </Array>
                    </mxGeometry>
                </mxCell>
                <mxCell id="95" value="" style="edgeStyle=none;html=1;entryX=0.5;entryY=0;entryDx=0;entryDy=0;exitX=0.447;exitY=0.923;exitDx=0;exitDy=0;exitPerimeter=0;" parent="1" source="67" target="60" edge="1">
                    <mxGeometry relative="1" as="geometry">
                        <Array as="points">
                            <mxPoint x="580" y="98"/>
                            <mxPoint x="1101" y="99"/>
                        </Array>
                    </mxGeometry>
                </mxCell>
                <mxCell id="111" style="edgeStyle=none;html=1;exitX=0.5;exitY=0;exitDx=0;exitDy=0;entryX=0.568;entryY=1.022;entryDx=0;entryDy=0;entryPerimeter=0;" parent="1" source="70" target="93" edge="1">
                    <mxGeometry relative="1" as="geometry"/>
                </mxCell>
                <mxCell id="70" value="DbAddAccount" style="rounded=1;whiteSpace=wrap;html=1;" parent="1" vertex="1">
                    <mxGeometry x="538" y="5" width="120" height="61" as="geometry"/>
                </mxCell>
                <mxCell id="71" value="Data" style="text;html=1;align=center;verticalAlign=middle;resizable=0;points=[];autosize=1;strokeColor=none;fillColor=none;" parent="1" vertex="1">
                    <mxGeometry x="902.5" y="-133" width="43" height="26" as="geometry"/>
                </mxCell>
                <mxCell id="81" value="" style="rounded=0;whiteSpace=wrap;html=1;fillColor=#9999FF;strokeColor=#6c8ebf;sketch=1;curveFitting=1;jiggle=2;" parent="1" vertex="1">
                    <mxGeometry x="289" y="-281" width="658" height="125" as="geometry"/>
                </mxCell>
                <mxCell id="84" value="Infra" style="text;html=1;align=center;verticalAlign=middle;resizable=0;points=[];autosize=1;strokeColor=none;fillColor=none;rounded=1;" parent="1" vertex="1">
                    <mxGeometry x="903" y="-319" width="42" height="26" as="geometry"/>
                </mxCell>
                <mxCell id="88" style="edgeStyle=none;html=1;entryX=0.409;entryY=0.014;entryDx=0;entryDy=0;entryPerimeter=0;" parent="1" source="85" target="68" edge="1">
                    <mxGeometry relative="1" as="geometry"/>
                </mxCell>
                <mxCell id="110" value="" style="edgeStyle=none;html=1;" parent="1" source="85" target="109" edge="1">
                    <mxGeometry relative="1" as="geometry"/>
                </mxCell>
                <mxCell id="85" value="BCriptAdapter" style="rounded=1;whiteSpace=wrap;html=1;fillColor=#f5f5f5;fontColor=#333333;strokeColor=#666666;" parent="1" vertex="1">
                    <mxGeometry x="364" y="-253" width="120" height="60" as="geometry"/>
                </mxCell>
                <mxCell id="89" style="edgeStyle=none;html=1;entryX=0.462;entryY=0.005;entryDx=0;entryDy=0;entryPerimeter=0;" parent="1" source="86" target="69" edge="1">
                    <mxGeometry relative="1" as="geometry"/>
                </mxCell>
                <mxCell id="116" style="edgeStyle=none;html=1;entryX=0.5;entryY=1;entryDx=0;entryDy=0;exitX=0.5;exitY=0;exitDx=0;exitDy=0;" parent="1" source="86" target="3" edge="1">
                    <mxGeometry relative="1" as="geometry">
                        <Array as="points">
                            <mxPoint x="684" y="-271"/>
                        </Array>
                    </mxGeometry>
                </mxCell>
                <mxCell id="86" value="AddUserMongoRepo" style="rounded=1;whiteSpace=wrap;html=1;fillColor=#f5f5f5;fontColor=#333333;strokeColor=#666666;" parent="1" vertex="1">
                    <mxGeometry x="715" y="-258" width="120" height="60" as="geometry"/>
                </mxCell>
                <mxCell id="93" value="LoadUderByEmailRepo" style="rounded=1;whiteSpace=wrap;html=1;sketch=1;curveFitting=1;jiggle=2;" parent="1" vertex="1">
                    <mxGeometry x="524" y="-73" width="131" height="58" as="geometry"/>
                </mxCell>
                <mxCell id="98" value="HttpResponse" style="rounded=1;whiteSpace=wrap;html=1;shadow=0;sketch=1;dashed=1;" parent="1" vertex="1">
                    <mxGeometry x="556.5" y="251" width="119" height="46" as="geometry"/>
                </mxCell>
                <mxCell id="101" value="HttpRequest" style="rounded=1;whiteSpace=wrap;html=1;shadow=0;dashed=1;sketch=1;" parent="1" vertex="1">
                    <mxGeometry x="394" y="256" width="110" height="48" as="geometry"/>
                </mxCell>
                <mxCell id="109" value="BCript" style="rounded=1;whiteSpace=wrap;html=1;shadow=0;sketch=1;fillColor=#f5f5f5;fontColor=#333333;strokeColor=#666666;" parent="1" vertex="1">
                    <mxGeometry x="364" y="-356" width="120" height="60" as="geometry"/>
                </mxCell>
                <mxCell id="112" value="" style="shape=image;verticalLabelPosition=bottom;labelBackgroundColor=default;verticalAlign=top;aspect=fixed;imageAspect=0;image=data:image/jpeg,/9j/4AAQSkZJRgABAQEASABIAAD/4QCMRXhpZgAATU0AKgAAAAgABgEGAAMAAAABAAIAAAESAAMAAAABAAEAAAEaAAUAAAABAAAAVgEbAAUAAAABAAAAXgEoAAMAAAABAAIAAIdpAAQAAAABAAAAZgAAAAAAAABIAAAAAQAAAEgAAAABAAKgAgAEAAAAAQAAAwSgAwAEAAAAAQAAAjcAAAAA/9sAQwACAgICAgECAgICAgICAwMGBAMDAwMHBQUEBggHCAgIBwgICQoNCwkJDAoICAsPCwwNDg4ODgkLEBEPDhENDg4O/9sAQwECAgIDAwMGBAQGDgkICQ4ODg4ODg4ODg4ODg4ODg4ODg4ODg4ODg4ODg4ODg4ODg4ODg4ODg4ODg4ODg4ODg4O/8AAEQgCNwMEAwEiAAIRAQMRAf/EAB8AAAEFAQEBAQEBAAAAAAAAAAABAgMEBQYHCAkKC//EALUQAAIBAwMCBAMFBQQEAAABfQECAwAEEQUSITFBBhNRYQcicRQygZGhCCNCscEVUtHwJDNicoIJChYXGBkaJSYnKCkqNDU2Nzg5OkNERUZHSElKU1RVVldYWVpjZGVmZ2hpanN0dXZ3eHl6g4SFhoeIiYqSk5SVlpeYmZqio6Slpqeoqaqys7S1tre4ubrCw8TFxsfIycrS09TV1tfY2drh4uPk5ebn6Onq8fLz9PX29/j5+v/EAB8BAAMBAQEBAQEBAQEAAAAAAAABAgMEBQYHCAkKC//EALURAAIBAgQEAwQHBQQEAAECdwABAgMRBAUhMQYSQVEHYXETIjKBCBRCkaGxwQkjM1LwFWJy0QoWJDThJfEXGBkaJicoKSo1Njc4OTpDREVGR0hJSlNUVVZXWFlaY2RlZmdoaWpzdHV2d3h5eoKDhIWGh4iJipKTlJWWl5iZmqKjpKWmp6ipqrKztLW2t7i5usLDxMXGx8jJytLT1NXW19jZ2uLj5OXm5+jp6vLz9PX29/j5+v/aAAwDAQACEQMRAD8A/fyiiigAooqF54Y/vyKv1NAE1FUv7RsweZ0/Oj+0bL/n4T86ALtFUv7Rsv8An4T86P7Rsv8An4T86ALtFUv7Rsv+fhPzo/tGy/5+E/OgC7RVL+0bL/n4T86P7Rsv+fhPzoAu0VS/tGy/5+E/Oj+0bL/n4T86ALtFUv7Rsv8An4T86P7Rsv8An4T86ALtFUv7Rsv+fhPzo/tGy/5+E/OgC7RVL+0bL/n4T86P7Rsv+fhPzoAu0VS/tGy/5+E/Oj+0bL/n4T86ALtFUv7Rsv8An4T86P7Rsv8An4T86ALtFUv7Rsv+fhPzo/tGy/5+E/OgC7RVL+0bL/n4T86P7Rsv+fhPzoAu0VS/tGy/5+E/Oj+0bL/n4T86ALtFUv7Rsv8An4T86P7Rsv8An4T86ALtFUv7Rsv+fhPzo/tGy/5+E/OgC7RVL+0bL/n4T86P7Rsv+fhPzoAu0VS/tGy/5+E/Oj+0bL/n4T86ALtFUv7Rsv8An4T86P7Rsv8An4T86ALtFUv7Rsv+fhPzo/tGy/5+E/OgC7RVL+0bL/n4T86P7Rsv+fhPzoAu0VS/tGy/5+E/Oj+0bL/n4T86ALtFUv7Rsv8An4T86P7Rsv8An4T86ALtFUv7Rsv+fhPzo/tGy/5+E/OgC7RVL+0bL/n4T86P7Rsv+fhPzoAu0VS/tGy/5+E/Oj+0bL/n4T86ALtFUv7Rsv8An4T86P7Rsv8An4T86ALtFUv7Rsv+fhPzo/tGy/5+E/OgC7RVL+0bL/n4T86P7Rsv+fhPzoAu0VS/tGy/5+E/Oj+0bL/n4T86ALtFUv7Rsv8An4T86P7Rsv8An4T86ALtFUv7Rsv+fhPzo/tGy/5+E/OgC7RVL+0bL/n4T86P7Rsv+fhPzoAu0VS/tGy/5+E/Oj+0bL/n4T86ALtFUv7Rsv8An4T86P7Rsv8An4T86ALtFUv7Rsv+fhPzo/tGy/5+E/OgC7RVL+0bL/n4T86P7Rsv+fhPzoAu0VS/tGy/5+E/Oj+0bL/n4T86ALtFUv7Rsv8An4T86P7Rsv8An4T86ALtFUv7Rsv+fhPzo/tGy/5+E/OgC7RVL+0bL/n4T86P7Rsv+fhPzoAu0VS/tGy/5+E/Oj+0bL/n4T86ALtFUv7Rsv8An4T86P7Rsv8An4T86ALtFUv7Rsv+fhPzo/tGy/5+E/OgC7RVL+0bL/n4T86P7Rsv+fhPzoAu0VTGoWbHAnQ/jVlJI5BlHVvoaAH0UUUAFFFFABRRUcrbbZ29FoA+T/2v/wBp/RP2Xf2RNb+IN7apq2sGRbHQNLMmwX19IGMaMeyKFeRyOdkbY5wK/M/QP2Nv2mv2uPAVt4//AGr/ANoLxf4U0zX1S8tfh5oUJSCzt2IeNZIi4hikA2/KY5HHyl33hlrR/wCCnF+Nc/aK/ZT8NXoFzpF18RYhd2z8pKDLbJgjv8sjj/gRr9h6APyd/wCHOn7Mv/Q9fHb/AMHWm/8Ayvo/4c6fsy/9D18dv/B1pv8A8r6/WKigD8nf+HOn7Mv/AEPXx2/8HWm//K+j/hzp+zL/AND18dv/AAdab/8AK+v1iooA/J3/AIc6fsy/9D18dv8Awdab/wDK+j/hzp+zL/0PXx2/8HWm/wDyvr9YqKAPyd/4c6fsy/8AQ9fHb/wdab/8r6P+HOn7Mv8A0PXx2/8AB1pv/wAr6/WKigD8nf8Ahzp+zL/0PXx2/wDB1pv/AMr6P+HOn7Mv/Q9fHb/wdab/APK+v1iooA/J3/hzp+zL/wBD18dv/B1pv/yvo/4c6fsy/wDQ9fHb/wAHWm//ACvr9YqKAPyd/wCHOn7Mv/Q9fHb/AMHWm/8Ayvo/4c6fsy/9D18dv/B1pv8A8r6/WKigD8nf+HOn7Mv/AEPXx2/8HWm//K+j/hzp+zL/AND18dv/AAdab/8AK+v1iooA/J3/AIc6fsy/9D18dv8Awdab/wDK+j/hzp+zL/0PXx2/8HWm/wDyvr9YqKAPyd/4c6fsy/8AQ9fHb/wdab/8r6P+HOn7Mv8A0PXx2/8AB1pv/wAr6/WKigD8nf8Ahzp+zL/0PXx2/wDB1pv/AMr6P+HOn7Mv/Q9fHb/wdab/APK+v1iooA/J3/hzp+zL/wBD18dv/B1pv/yvo/4c6fsy/wDQ9fHb/wAHWm//ACvr9YqKAPyd/wCHOn7Mv/Q9fHb/AMHWm/8Ayvo/4c6fsy/9D18dv/B1pv8A8r6/WKigD8nf+HOn7Mv/AEPXx2/8HWm//K+j/hzp+zL/AND18dv/AAdab/8AK+v1irnL/wAYeEdK1iXT9T8U+HNOv4wDJbXWpRRSpkZGVZgRkEEcdDUVKsKavN29S4U5zdoq5+YH/DnT9mX/AKHr47f+DrTf/lfR/wAOdP2Zf+h6+O3/AIOtN/8AlfX6aN8QPAarlvG3hFR6nWIB/wCz1x2lfG7wRrfx8/4Vzpr6lc64dxSdIUa1kVYfO3rIHOVKcggc5H1rkqZlhISipVFeTSWu7eyOiGAxM1Jqm7RV3psl1Pz8/wCHOn7Mv/Q9fHb/AMHWm/8Ayvo/4c6fsy/9D18dv/B1pv8A8r6/WKiu45D8nf8Ahzp+zL/0PXx2/wDB1pv/AMr6P+HOn7Mv/Q9fHb/wdab/APK+v1iooA/J3/hzp+zL/wBD18dv/B1pv/yvo/4c6fsy/wDQ9fHb/wAHWm//ACvr9W7q6tbHT5ru9uYLO1iXdLNPIERB6ljwB9a4qP4pfDSXVhYx/EDwZJdk4Ea6zAST6D5uT7daxq4mjSaU5pX7tI2p4erUTcIt27I/Nn/hzp+zL/0PXx2/8HWm/wDyvo/4c6fsy/8AQ9fHb/wdab/8r6/RX4jfFnwp8L9F0nUPEn9pS2uoyMls9jAsuSqhucsOCDwa7/TNQg1bw3p+q2wkW2vLaO4iEgwwV1DDI7HBqKeMozrSoxknKNrrqr7feOeFqwpRqyi1GV7Pvbc/Kv8A4c6fsy/9D18dv/B1pv8A8r6P+HOn7Mv/AEPXx2/8HWm//K+v1iorpMD8nf8Ahzp+zL/0PXx2/wDB1pv/AMr6P+HOn7Mv/Q9fHb/wdab/APK+v1iooA/J3/hzp+zL/wBD18dv/B1pv/yvo/4c6fsy/wDQ9fHb/wAHWm//ACvr9YqKAPyd/wCHOn7Mv/Q9fHb/AMHWm/8Ayvo/4c6fsy/9D18dv/B1pv8A8r6/Vu6urWx0y4vb25gs7O3jaWeeeQJHEijLMzHgAAEkngVHY39jqmkwahpl7aajYTLuhubWZZYpBnGVZSQR9Knnjzct9SuV2vbQ/Kj/AIc6fsy/9D18dv8Awdab/wDK+j/hzp+zL/0PXx2/8HWm/wDyvr9YqKok/J3/AIc6fsy/9D18dv8Awdab/wDK+j/hzp+zL/0PXx2/8HWm/wDyvr9Yq8u+Jfxe8J/CmPRn8UpqzLqZlFsbK3EvMWzcGywx/rBj8a58Vi6OGpOrWkoxW7e3Y3w+Gq4ioqdKPNJ9Efnd/wAOdP2Zf+h6+O3/AIOtN/8AlfR/w50/Zl/6Hr47f+DrTf8A5X1+rdrcJd6bb3UYYRzRLIgYYIDDIz781yPjz4g+GPhv4Mj17xVeS2ljJcrbwiKFpHkkYFgoUeyscnjj6VVbEUqVN1KkkorVt7E0qFSrUVOEbyfRH5pf8OdP2Zf+h6+O3/g603/5X0f8OdP2Zf8Aoevjt/4OtN/+V9fqlpOq2Gu+F9O1rSrhbvTb62S4tZlBAkjdQynB5HB6HkVoVpGSkk07pmcouLaa1R+Tv/DnT9mX/oevjt/4OtN/+V9H/DnT9mX/AKHr47f+DrTf/lfX6xUVQj8nf+HOn7Mv/Q9fHb/wdab/APK+j/hzp+zL/wBD18dv/B1pv/yvr9YqKAPyd/4c6fsy/wDQ9fHb/wAHWm//ACvo/wCHOn7Mv/Q9fHb/AMHWm/8Ayvr9YqKAPyd/4c6fsy/9D18dv/B1pv8A8r6P+HOn7Mv/AEPXx2/8HWm//K+v1iooA/J3/hzp+zL/AND18dv/AAdab/8AK+j/AIc6fsy/9D18dv8Awdab/wDK+v1iooA/J3/hzp+zL/0PXx2/8HWm/wDyvo/4c6fsy/8AQ9fHb/wdab/8r6/WKigD8nf+HOn7Mv8A0PXx2/8AB1pv/wAr6P8Ahzp+zL/0PXx2/wDB1pv/AMr6/WKigD8nf+HOn7Mv/Q9fHb/wdab/APK+j/hzp+zL/wBD18dv/B1pv/yvr9YqKAPyd/4c6fsy/wDQ9fHb/wAHWm//ACvo/wCHOn7Mv/Q9fHb/AMHWm/8Ayvr9YqKAPyd/4c6fsy/9D18dv/B1pv8A8r6P+HOn7Mv/AEPXx2/8HWm//K+v1iooA/J3/hzp+zL/AND18dv/AAdab/8AK+j/AIc6fsy/9D18dv8Awdab/wDK+v1iooA/J3/hzp+zL/0PXx2/8HWm/wDyvo/4c6fsy/8AQ9fHb/wdab/8r6/WKigD8nf+HOn7Mv8A0PXx2/8AB1pv/wAr6P8Ahzp+zL/0PXx2/wDB1pv/AMr6/WKigD8nf+HOn7Mv/Q9fHb/wdab/APK+j/hzp+zL/wBD18dv/B1pv/yvr9YqKAPyd/4c6fsy/wDQ9fHb/wAHWm//ACvo/wCHOn7Mv/Q9fHb/AMHWm/8Ayvr9YqKAPyd/4c6fsy/9D18dv/B1pv8A8r6P+HOn7Mv/AEPXx2/8HWm//K+v1iooA/J3/hzp+zL/AND18dv/AAdab/8AK+j/AIc6fsy/9D18dv8Awdab/wDK+v1iooA/Jtv+CPH7OUSGXTviH8dLO/T5oJzq+nMI37NhbFScezD61w1h49/aJ/4JwftG+EfD/wAWPHuqfGb9lXxNqI0+x8QagzyXmguRwCXLNGUUFjFuaN40cxhWDKP2dr4E/wCCnWmWN/8A8EW/irdXdvHNPpt1pN1ZOwyYpTqlpCWHofLmkX6MaAP0w0bVbfVtHhuraWOaKRAyOjZDAjIIPcVr18Z/sV+I7vWv2BPgzNfTvcXUngjSmmkY5LubKHJP1NfZlABRRRQAVXuzjTpv92rFVrz/AJBs3+7QB+DP/BRg5/bQ/ZN5/wCaiQ/+lNnX7R1+Lf8AwUX/AOT0f2Tf+yiQ/wDpTZ1+0lABRRRQAUUUUAFFFFABRRRQAUUUUAFFFFABRRRQAUUUUAFFFFABRRRQAUUUUAFFFFABRRRQAV5L4++GPgDW9I8T+JdX8K6TqOvNpkrG9uIy7gpCQhGTgYCjGPSvWq5/xYdvws8Sse2lXB/8hNXHj8PSrUJKpFSSu9VfodWDr1KVaLhJp+Tt1Pgj9kvwH4O8aeH/AB03irw7pmutbT2q27XUW4xBlm3bT1GcD8qisL/w78Pv+CqWuXNyP7P0PSrVobaCFGkfH2FEiijUZZ2OQqjqSa7L9iM/8SH4ir3FxZH/AMdnqhoUFvdf8FotZaZElMLSvFuGcOLFQD9Rk1+S4LDwWUZZOnFKbqrW396e+zdvU/S8XXk80zCE23BU3pfyjt0X3H0B4F/aH8E+O/ipJ4NgsfEega7lxbwavapEZygLMo2uxVwATtYDgevFdX40+LHhrwX4x0fwxNBquveLNUI+w6LpMKyXDgkgOxdlRFyDyzDoTjAJHyt44iSP/gsR4QeBViklNo0zKMFz5TqSf+AgD6CsG9bXn/4LDX0cGpabpOsNcNHYXWo2jXMKKbD5BsDoSWQ4GGHzN3r33xNjqVOVKVpT9t7LmSto9b2va/bWx4q4fwdSpGpG6j7L2lr317Xte3fS59ieCviz4d8Z+ONZ8KLaav4e8XaVk3uj6rEiTBRgF0ZGZHXLLyG7g4wQa9Rr5w0X4IeIbX9r6D4u61400u+1AoyXdjY6K1tHMPsxtxy07kYG1u+StfR9fY5PVxs6UvrcLNSaW2sejdm0n3XkfLZpTwkakfq0rppN76S6pXSbXY/Ow6tfftKftxSeGL6/u4Ph1pDSzf2fBOypPBA4TzCB/HI7L83VVbAORz9lah8H/hjqXgh/D83gfw3Dp5iMaG3sI45ouMbkkUbg/wDtZye+a+IfgAf+FZf8FAtf8I+Is6fPdw3GmW7XAxvcyxywnd6OqfL67l9RX6T18twbQpYzDVq2KipVZTkpXV2rfZ12S7H0XFNapha9Klh5ONOMU420v5+b8z4R/az0Cx8M/s1fDLw/pok+w6Xc/Y7dpMF2VLfaCxAALHbknAyc19OX3jvwx8N/2c/D2u+KL42dkum20UMcab5Z5PJBEaKOrEA+gGMkgV89/tpyI/wj8FbGV1bVpCCpyD+6P+Nec/tUy3Z8LfBNpT/xKjozMuQWUybbffkd/l2/rXnY/MnleNzCvRirxjSSXRX0+5HdgsAsxwmCpVZaSlUb76a/ifV9j8dPDzeO/D2geI/D/ivwVc69GsmizazbxLFdhiAq5jkco5JA2sBjIzjIrofGnxT0XwbrQ0gaN4r8Va99mFy2m+H9Ke6lihJYCRzwqqSrDk54PFeS/EP4IeMvizB4cu9a+IvhqJdM3y6fPpnhuSPIl8s5ybpsj92pGK2fE3xp1H/hqK2+EfgXRNMvvFLqFvdV1SRltbbERnI2J80mEJP3l+Y49SPoHmeNoRnHEvkTlFQk0m5OS1XLF2vfZ7W3PFWX4OtKDoLmaUnNXaUbPR3kr2tv1udZ8Mvjb4P+KWp6jpmjx6rpWuWKF7nTdThWOYIGCll2swIDEA8ggkZHNYs/7R3w9tfiN4j8KzxeIk1jR5JopYlsVc3UkUgj8uAK5aR2JyowOAScAGvnr4R217Z/8FVvG1vfahbajfCC8N3c2tuII5ZCYmfEYZto3E8Ek8ckmrHwmtref/grL8SpZY1d7c6jLASPuOZ40JHvtdh+NeRh+I8xqUaEbpTlVlTbt0XWye/o7Hp1siwNOrWlZuKpqaV+/S7W3yPof4c/H/wX8SfHl54Y0+113RNdgR3W01a3SNpQhwwXa7fMvUqcHrjODj3GvgiKJIf+C3zJbqsKEl5AgwCW0fcx/EnJ96+96+k4azHEYqlWjXacqdSULpWvy21t8zwc/wADQw1Sk6KajOEZWbva99Lnzn+0bqGr6j8PdG+GPhgCXxN4wuzAibtu22hHmzMT2HCg+oLVwv7HnjJ9Q+FOt+Bb52W+0K6M1tG/DCCUksuP9mQPn/roKn0u78feOP2uPF3xF8E6b4X1bRtCD+G9MfWb6WFAyFXnkj8tG3EsSN3HysBzXiVpdeIPgp/wUYs9W8VWulaPaeI5WkvotOuHktVgupCGIZlU4SVQ5GOAvpivkcZmM6ea08y19m5Om9Hy8myd9viu/Sx9PhcBGpltTAac/KprXXm3at/hsvW59sfET4v+FvhjrWgWPiK31mWbWC4szZW6SLlGRSGLOuP9YtL4V+MPg3xl8QPFeg6HcXMsfh6LzL/U5VVLQjcQ2xy2SBtbLEBcDIJHNfL/AO2sN2r/AAsXcyEtfjcvUc2vIr1z43eEtH8GfsN+MYPBWg6dpEi2NtbTzWVqsc0luJ4g+91AL/KW3bj0LE17dbOsfHHYxRt7OglK1tXeDlZP16nk0spwTweFbv7Ss2r30VppX+7ob9t8ftB1q41Z/BvhDx5450zTH2XupaPp8ZgBxnEfmSI0jewXOOehFfNP7VXivSPHXwU+FPizQ/tf9mXs98YftUBikGPKVgQfdSMgkHHBNe7fslNYn9jywFoYzcDU7r7aFxkS7xjPv5fl/hivJv2z7Sz07wP8NrCwtbeytI7i88qCCMIiDbD0UcDk15Ge18XieGp4mrUTU4xdkrWblFqz7JXTvfU9LJ6WGw+fxoU4NOEmrt7pRle683qrW0PVtQ/af+HXhrV9L0i7svFM+nsixLrMGng2T7QFZo2LBpUU9WRT7bsiuw+NHiX4Z6d8E9M1D4iaRN4m8KX9/EtoLSIS/vWikkjkB3qQCivyD0OOhNeO/tbWNla/sc+C47e3ijS21q1gttqgeXH9kn+Uegwq8ewrnPjxu/4dffCEyMWfGkkk9z/Z0tdGOzjG0I4yhVcZ8kIyXu6a7pq7ujHB5XhKzwtampR55uL1102adlZnoPxs+IL6T+xJo994DtfE3h601OwtJNNvLG38qOxtiY9sTurfumKMAoB7cGul+AHi61j/AGR9Ll1m21vSrXSdPe6vdX1SApbXAaSWR5I5CT5mMEsfcdc15z8XH2f8ElvBqrnD6Poqn/v1Ef6Vn+MDeL/wRv0P7CWERsLIXZUnPlm4XP8A49tz+NRPH1qGZVMRe6hh1Ll6d7eWq3Ljg6NXAQoWtzVuW/X189D1tv2j/Cg8Kt4oTwz43l8DrffYm8RrYxC28zONwQy+aU/2tnXjGeK9fvvGXhfTfhf/AMJpe61ZweFzapcrqBJKNG+NhGBklsgAAZJOMZr5E+GXgPxV8Sv+CfuleFrXxh4Y03wveCSOS3/sB5bqB0vGlOZftABYuob7g+Vh9a5X9oXwjrHw7/Yp+G3gptWk1rT7HVp1ubxIDCsjN5kkKldzYwruBk/w1vHiDNKGBljKlPmh7NST0XvtrSybfLZ3u9dHdmEsky+tjI4WnPlnzuLWr91Le7SXNpbTTU+iR+0PojeDD4rTwL8Rn8FB9p10abF5AG7aZNvm7/LB43bevHWvE/2tPiFrSeH/AAvpGgT+K9D028SSS7n8l7WDUI3jidEDZDNt3EMhAwTgivqn4c2mi6n+yr4KsVtrO/0W48N2sUkEkavHKpgUOrKeDzkMD3zmvlf9tl/9F+GUTf6tpr4se3Ath/U0uJpY1ZDVqzrXuoPRW3avZrpqvPe71Hw/HCPOqdONK1nLd32Tto+uj8vI9+1z41eGfAnwn0PXPEmg+MdItLic2MNtcacqThkjB3FGcfKQODnnFdJ4r+Kvhvwd8FNJ8e6vb6u2iagLcxJBArTJ5yb03KWAGBwcE8+tfPn7ahb/AIUx4QG07f7abJ9D5L//AF6k/aEurT/h294S2zRstwNMFsQeH/cFuPX5QTXRjM8xeGqY2mpJ+xhFrTq11MMLlGGrwwlRpr2s2nr0TPcNY+M3hPRP2fdH+JV7ba2fDupPGsCR2yGdd+7aWXfgD5T0J6iqOh/HjwP4k+Knhfwfo/8Aat1q+t6f9tX9ygSzQwGdVmO/hygHyruxuGSK+dviRt/4dD+Bv9ywx9fmr2f4I+DNB0z9kXwrrej6FpTeKZtHe6j1KS1RrkzyI4/1uNwGG2AA8LxVYbN8xxGPhQg4qPs4Tlprq9UvXp2FXyzA0cHOrJNy55QWummzfp17nQah8cfDq+O9d8O+GtC8UeONQ0SJpdYbRbeJorQISHUvJIm9wQflTOSCByDjtfAXxA8M/EnwGniHwvdyXFn5himimj2TW8gAJR17HBB4JBzwTXwx+yXF4rvJvH0HhrxD4f0a+JtXu01XSHvJJ1/fAFSs8eACTnOeWHTv9RfBD4L3XwfHidJfE0Wvw6s8DrHHYG3EDR+ZnGZGzkOB2xtp8PZzmeP9jXcP3c+bm2tGz922vM72s7rfVaCzvKsvwXtaKn+8hy2396696+llvdWZ71RRRX258iFFFFABRRRQAUUUUAFFFFABRRRQAUUUUAFFFFABRRRQAUUUUAFFFFABRRRQAV8J/wDBS7/lCX8av+4P/wCnqwr7sr4T/wCCl3/KEv41f9wf/wBPVhQB3X7B7f8AGBvwbBP/ADJWl/8ApHFX39X5+/sH/wDJh/wb/wCxK0v/ANI4q/QKgAooooAKrXn/ACDZv92rNVrz/kGzf7tAH4Mf8FF/+T0f2Tf+yiQ/+lNnX7SV+Lf/AAUX/wCT0f2Tf+yiQ/8ApTZ1+0lABRRRQAUUUUAFFFFABRRRQAUUUUAFFFFABRRRQAUUUUAFFFFABRRRQAUUUUAFFFFABRSEgdSB+NNMiDqwoAfVDVdOi1fwvqWk3Ek0UF7ayW8jxEB1V1KkqSCM4PGQatGaIfxim/aIf74pSipJp9Rxk4tNHlfws+DPhj4RLrq+G9Q1++XVTCbganPFJsMXmbduyNMZ8w5znoOlQ2HwT8L6f+03c/FeHUvEL+Ip3kaS2eeI2vzxGIgKI9+AOR8/UfhXrP2qHP3xTvtEP98V50MnwUaVOmqa5abvFdnvdfed0s0xcqk6jm7zVpPutrHkuqfBTwvq/wC0rY/FO51LxCniC0eJoreOeIWv7tNgBUxlsEZz8/U0fEf4J+EfiTrun63fTatofiWxCi11fSpxFOoViyg5BBwTkHAYdjXrnnRf3xTg6How/OlPJsFOE4SpJqb5n5vv6jhmuLjOE41GnFWXku3oedeEvh9P4d15dV1bxt4x8ZX6W5hg/ta7Uwwg4yyxIqjecAbmycZ5GTn0ekBB6EGlrsw+Gp0IckFZfN/i9Tlr151pc03r935HlfxE+DXgT4m+TP4h0+aDVoQBDqunyCG6RQchd2CGHoGBx2xWBH8GNTOlf2Ve/GD4pXmiABfs32+JJXTGNjTCPeQRweRxXudFcdXJsFUquo6fvPdq6v62av8AM6qea4uFNU1PRbJ2dvS97fI8d8efBDwh8QPh/wCGPDOpXWuaXpOgoEsE02eNW2iNYwGMkb5wqj0rd8UfC3wl4y+D1h4K8Q21ze6bYwxx2dwJQtzC0abFkVwMbsdeNpzyK9Foq3lODbm3TXvpJ+aWy+RKzLFJQSqP3W2vJvdnhvhr4J/8I9DpthL8SPiHq3h6wkRrXSJ79EgKoQVjcogZowQPkyFxxjHFReLfgF4c8TfHKD4h2XiDxP4T8Sjb59xo9wiGQqnl7gWU7WKfKccEdRyc+70Vi8iwLpKk6d4pprV6NbWd7q3Sxqs5xiqOop2bTT0Wqe91azueEaR8APDXh349W3j/AMP6/wCKNL1EJi9hNwlwt8SB5hkaVGYmQjLnOSSSCp5rX8N/BXwx4X/aD1z4k2Gp+Ip9d1V7hrmC4nia2XzpA7BVEYYAEDGWPHXNewUU6eSYGm040krS5l5S7rsKpm+MmmpVG7rlfmuzPH0+CnheP9qY/F0al4hPiUuWNsZ4vsnNsbbG3y9+Nhz9/r+VerX1s17ot5ZrdXNk08DxC4tyBLCWUjehIIDDORkEZHQ1aorrw+BoUFNU425m2/Nvd/M5q+LrVnF1JX5UkvJLZHG+AfA2i/Dn4ZWXhXQXvZrC3kkk868dXmlZ3LFnKqoJ5xwBwBXJfFL4KeEvi5Po0viO51qxn01ZFhl0yaONnV9pKvvjfIBXI6YyfWvX6Kzq5ZhamG+rTgnTslbpZbF08wxFPEfWIzanq79ddzw7x38BPC/xE8P+ErDxFrvi1j4es2trW4guYFlnDCMF5S0JDOfLXkBe/Fez3tlaajo11p9/bxXllcwtDcQSqGSVGBDKw7ggkVaoqqOX4elOc4QSc7X87Kyv6Imrja9SEYSldRvbyu7u3zPnbTP2dNI8Ma9fXXgbx34/8F2V6+66sLC+jaEjnAXehIxnALbiPWtvxz8BfCPxA8I+F9G1rVvFUVvoSzC3mgvUaadpShd5nljcuxKZzxyx9se3UVxrIMvVKVL2S5ZbrW299FstddDqedY51I1PaPmXXS+1t+unc8v+Ivwn8P8AxN+HOk+GNf1DXLWw0+5SeKSwmjSR3SNoxuLxsCMOegHNUfFvwX8MeM/gT4Y+Huqal4gg0XQvs/2Wa1niW4k8iBoE3s0bKflYk4Uc+nSvXqK3q5Tg6spynTTc0k/NLZGNPM8VTUFGbXK7ryb6nnWqfDHw5rP7Odv8MdQfULjQYNPgs4Z2kUXKiEL5b7goXeNin7uDyMYOKzfBPwosfCXwvu/Bt94g1rxb4amtntk07VFh8mGJyxZV2IGOdx6sccYAr1eiqeV4X2savJ7yXL/272fdeTF/aOJ9m6fPo3zfPv5P0PnbRf2eLDwre30fg/4ifETwvot3KZJ9Nsr6MoDx9xmjJU4GN3LYA5r1fVPAPhjXPhEvgjWbKTVdCECxYup2eYlekhkJ3eZnnfnJJPrXZUVGHyfB0IShCmlFq1t1Z7qz0S8loVXzTFVpKc5u61v1v3utb+Z8+6D+z/a+G9NOjaV8SfiVb+FWYltHTUY0QgnLKHWMMqt3CbScnnJzXX/FL4R+Gviv4OsNK1uW9sJLCUyWV3ZFQ8WQAy4YEFSAMj/ZHNep0VEckwMaEqHs/clo1q1ZbLV6W6W2Klm+LdaNbn95bPT+n8zyHXfg9pPi34Gr4I8Ya/4h8Sqk6z2+qXLQpdW7quxShSMLgDI+YMTubJPGOBj/AGV/BUvw6Hh3V/E3jnWIY2X7HLPqCH7CoOSkEbIUjDcbjtJOOCASD9OUVFfh/L60uapSUna2t3p59/mXSzvHUo8sKjSvfTv5dvkeP618FfDGu/s5aN8MLzUvEUegaa8bQ3EM8QuX2btoZjGVI+bso6Cu98I+GbHwb8NtH8L6bPeXNhptuIIJLt1aVlBJG4qqgnnsBXR0V10cuw1Kp7SEEpWUb+S2RzVcdXq0/ZzldXcreb3Z4Fqv7PnhyT4sXPjbwn4i8UeAdfumZrttGuEEUxY7nJR1P3jyRnbnnbXqfhPwrH4V0e5gbWtf8RXtzN5tzqGsXfnTSHaFAGAFRABwqgAZJ6kmuqoqMNlWEw9R1KULN66bXe7ttd97F18yxNaChUndL77LpfcKKKK9A4QooooAKKKKACiiigAooooAKKKKACiiigAooooAKKKKACiiigAooooAKKKKACvhP/gpd/yhL+NX/cH/APT1YV92V8J/8FLv+UJfxq/7g/8A6erCgDtv2D/+TD/g3/2JWl/+kcVfoFX5+/sH/wDJh/wb/wCxK0v/ANI4q/QKgAooooAKrXn/ACDZv92rNVrz/kGzf7tAH4Mf8FF/+T0f2Tf+yiQ/+lNnX7SV+Lf/AAUX/wCT0f2Tf+yiQ/8ApTZ1+0lABRRRQAUUUUAFFFFABRRRQAUUUUAFFFFABRRRQAUUUUAFFBOBk1XkuYowcsOKALFISB1IFYN1rcEIPzqK808Z/Fvwf4I8Oy6v4t8UaD4Y0tMhrvVb+O2iz6bnIBPt1oA9ke4iTqwqjLqlvGPvD86/LT4gf8FPf2f/AA5evp/he88TfEjVi/lxwaBpjCNnzgDzJvLDA+qb/bNeTt+1B+3P8Wzn4Q/syp4P0eXiPU/GMroxQ9JEMzWyn1+VZB9a1pUKlV2hFt+SuZVa9Okrzkl6ux+x8/iKCMf6xRXN6p480vS7CS71HUbOwtYxl5riZY0X6sSAK/JAfs8ft6/Ext/xN/af0/4fWEvP2PwjE/nRDup8hbfP/f1vrWhY/wDBMj4c6lqKah8TPiz8WfiHqKnLSS30cCOe+d6yv+TivWo8O4+p9i3q1/w55NbiLAU/t39E/wDhj7o8Q/thfs/eHGkXVfjN8OIZUJ3wxa/BPKv1jjZmH5V4nrX/AAUp/Za0qZ41+JMupyjqthoV9KP++vJCn8DWVoP7AX7KGgpGV+FsWr3C9ZtU1m9uC31QzbPyUV7Do/7OXwB0CJV0n4LfC61Zekp8M2skv/fbIWP516NPhHEP4ppfe/8AI86pxdhl8MG/uX+Z81an/wAFWf2d7Td9lT4hatjp9l0VFz/39lSuZf8A4K2fBJn22vgr4wXD+g0uxA/9K8/pX37p3gzwfpG3+yfCfhrS9v3fsmmQxY/75UV0aoqJtRVRfRRgV0rg59av4f8ABOaXGK6Uvx/4B+bn/D2P4Up81x8OfjDFEejf2dZ8/ncirVv/AMFa/gPJKFl8L/Fu155aTSrIgf8AfN2TX6N1XuLO0u4il1a29yhHKyxhgfzpvg7/AKff+S/8ES4x70f/ACb/AIB8RaZ/wVL/AGa7vb9q1jxdpGev2rQZWx9fK316roH/AAUK/Zd10oLX4u6NaM38OpWl1ZbT7maJR+teraj8L/hpq+7+1vh34F1Td977XoNtLn/vpDXmWufsl/s0eId/9o/BH4eRFvvNp+kpYk++YNhzWM+EKy+Govu/4c2hxfRfxU2vnf8AyPbfDH7R/wAI/F00cXhn4n+AfEEz/dh0/wAQW07/AE2q5IPsRXrtv4rt3x+9U/jX5l+JP+Cbv7K+uxONP8L+JPCMjf8ALTR/EE7EH1AuTMo/LFeaN/wTt8R+EcyfBr9qP4reBfK5gtrl3kjb0VjbywjH/ACPauGrwvjobJS9H/nY7qXFGBnu3H1X+Vz9l4degk/jU1pR6hBIPvCvxTHhr/gpp8LDnRfF/wAOPjjpkPMNremKKdlHZjItsxP/AG2b61Zt/wDgoP8AFj4XXKWv7Rf7NXjrwdCjBZdZ0ZGktXPT5BKBGfwnavJr5fiaP8SDXy0+89ahmGGrfw5p/P8AQ/a5ZY26MKkr89/hl+33+zn8Rpre1034kaZomqy4A0/xAradIG7KGlAjdvZHavsvTfFtneW0U0NxFLFIoZHRwVYEZBBHUGuM7DvaKyrfVYJVHzA1opKjjhhQBJRRRQAUUUUAFFFFABRRRQAUUUUAFFFFABRRRQAUUUUAFFFFABRRRQAUUUUAFFFFABRRRQAUUUUAFFFFABRRRQAUUUUAFFFFABRRRQAUUUUAFFFFABRRRQAUUUUAFFFFABXwn/wUu/5Ql/Gr/uD/APp6sK+7K+E/+Cl3/KEv41f9wf8A9PVhQB237B//ACYf8G/+xK0v/wBI4q/QKvz9/YP/AOTD/g3/ANiVpf8A6RxV+gVABRRRQAVWvP8AkGzf7tWarXn/ACDZv92gD8GP+Ci//J6P7Jv/AGUSH/0ps6/aSvxb/wCCi/8Ayej+yb/2USH/ANKbOv2koAKKKKACiiigAooooAKKKKACiiigAooooAKKCcDJqlPexwqcsKALhYAZJxVKe/ihU/MM1wviPxrpWh6Hd6jqmo2em6fbRmS4ubqdYooUHJZmYgKB3JOK/Mb4q/8ABRnQrjxs3gH9nfwprXxx8fTsY4P7Mt5DYRt0LblBeZV6koAmOfMFNJt2QpSSV2fqLq3iyzsLOae4uYoIIkLySSOFVFAySSeAAO9fnt8Yf+CjvwP8AatNoXhzU7/4o+Ki/lRad4WQXEXmE4CtcZ8vk8YjLsD/AA187Wv7KX7Tf7R91FrX7VXxcvfCPheZxKvgTwtImEXOQjlSYVYdmb7Q3qRX3H8Jf2cvgz8EdMSP4eeBtJ0vUQm2XWLhftOoTcc7riTLgH+6pC+iivosFwziq2tT3F57/d/nY+dx3E2Fo6Q99+W33/5XPiNvGP8AwUK/aRk/4pfwzpP7NfgS56X+sZGovGeo/eIZs4wQyQxA/wB+uo8Lf8E3fA174kTxJ8dviT4/+NniVuZze38lrbP3Kk73nI9xMv0Hb9I6K+rwnDeCo6uPM/P/AC2PlcXxJja2ilyry/z3PN/Anwe+FfwxsUg8AfD7wn4UKptM9hpsaXEg/wBubHmOfdmJr0iiivchCMFaKsjwpzlN3k7sKKKKokKKKKACiiigAooooAKKKKACiiigApkkaSwPFKiSRupV0YZDA9QR3FPooA+ZviP+x5+zl8UYp5PEPww0DT9Tkyf7T0KP+zbncf42aDaJD/10DD2r5TuP2GfjR8IriTUv2XP2jfEmiQRsZIvDXid99o5znlkVoWPYbrcf7wzX6i0V5mKyfB4j44K/daP8D08LnGMw/wAE3bs9V+J+Xlp+2n+0j8BLyLT/ANqT4Eau2jxuI28W+FlD27jOAThmgZj1wJYz/sdq+8vgv+1z8HPjTYxf8IN4302+1Mpul0e6b7NfxeuYHwxA7soK/wC1Xps0MVxayQTxRzwSKVkjkUMrqRggg8EH0r4l+Lv7AnwJ+JeoSa74e026+E/jMP5sOr+FcQReaDkM9t/qzzzmPy3J/ir5jG8JTWtCV/J/5/8ADH0+C4tg9K8bea/y/wCHP0zstehnUYkBzW/FcxyqCGFfhkdb/bn/AGRZvN1yAftOfCO2+9fWxkbVLSIfxOcNMpwMkuJ0AH31r7P+AP7cXwa+N/2XTtD8Rf2H4tdcP4d1vbbXhbuI+Sk3c/u2YgDJC18piMLVoS5akbM+rw+KpV481OV0foNRXLafrsNwi4kBzXRxTpKoIIrA3JqKKKACiiigAooooAKKKKACiiigAooooAKKKKACiiigAooooAKKKKACiiigAooooAKKKKACiiigAooooAKKKKACiiigAooooAKKKKACiiigAooooAKKKKACvhP/AIKXf8oS/jV/3B//AE9WFfdlfCf/AAUu/wCUJfxq/wC4P/6erCgDtv2D/wDkw/4N/wDYlaX/AOkcVfoFX5+/sH/8mH/Bv/sStL/9I4q/QKgAooooAKrXn/INm/3as1WvP+QbN/u0Afgx/wAFF/8Ak9H9k3/sokP/AKU2dftJX4t/8FF/+T0f2Tf+yiQ/+lNnX7SUAFFFFABRRRQAUUUUAFFFFABRRRQAVFJMka5Y1Uur6OCM/MBXhPxX+NPgr4WfDi/8VeN/Een+HdDth89xcycu2CQiIMtI5xwigsewoA9b1PXYreNsyAfjX51/tE/t7eA/hd4ibwR4Otbr4qfFSeX7Pb+HNCYyeVMeFSaRA218/wDLNA0mcZVQQa+WtS+LP7Sn7c3i2+8P/BCHUfg78CkmaDUvGl+rR3V+oOGWMqc7sf8ALKFuOkkqhttfaHwA/ZQ+Ev7POhpJ4W0k6x4wli233ijVVWS+mz95UOMQxn+4mMjG4sRmvcyzIa+LtJ+7Hv8A5f1Y8PM8+oYS8V70u3+Z8fab+zT+0n+1Zr1r4o/as8aXngDwEZRPZ/D7QHEchXOV80ZZIz/tSGWUcjEdfoh8M/hB8Nfg94KXQPhv4Q0fwvYlQJ3tos3F0R0aaZsySt7uxx2r0mivvsBlOGwi/dx17vf+vQ+Bx+bYnFv95LTstv69Qooor0jzQooooAKKKKACiikLAdSKAFoqMzRgcsKia7hH8QoAs0VSN/AP4v1qM6lB/eFK47M0aKzf7Tg9R+dOGowE/eFFwszQoqmL6A/xD86lFzE3RhTuInopgkQ9GFPyD3oAKKKKACiiigAooooAK+Rfjt+xX8GPjgbjWJtKPgbx8W82HxP4fjWGdpeoaeMYSfnGS2H4wHWvrqisa+HpV4clSN0bUMRVoT56crM/JuL4nftefsV3cdr8WtLufjz8FLdwkfizTnZ72xizgGV2+ZSBjifIJIVZq/S74IftJ/Db42eA49e8BeJrXV4lCi7s2Pl3dkx/gmhPzIeDg/dbGVJHNdlNDFcWksFxFHPBKhSSORQyupGCCDwQR2r87Pi/+wlBF4/f4q/su+JZfgx8TrctKLC0kMWl3x6lAqg+Ru7qFaJsAGMZLV8VmfC0o3nhnddnv8j7XLOKYytDEqz79PmfrzZapFPGMMDn3rYVgy5BzX44fA/9ujV/D3xQT4OftUaC/wAK/ibbMsMep3SeVp2pc4Vy2SsRbHDhjC+CQy8LX6saL4jt7y2jdJkdWAIYNkEH+dfISi4tpqzPr4yUkmndM7mioIZ0lQEEVPUlBRRRQAUUUUAFFFFABRRRQAUUUUAFFFFABRRRQAUUUUAFFFFABRRRQAUUUUAFFFFABRRRQAUUUUAFFFFABRRRQAUUUUAFFFFABRRRQAUUUUAFfCf/AAUu/wCUJfxq/wC4P/6erCvuyvhP/gpd/wAoS/jV/wBwf/09WFAHbfsH/wDJh/wb/wCxK0v/ANI4q/QKvz9/YP8A+TD/AIN/9iVpf/pHFX6BUAFFFFABVa8/5Bs3+7Vmq15/yDZv92gD8GP+Ci//ACej+yb/ANlEh/8ASmzr9pK/Fv8A4KL/APJ6P7Jv/ZRIf/Smzr9pKACiiigAooooAKKKKACiimO4RMk4oAczBVyTWFqOqx28TEsBgetU9X1mO2hbLgYFflj+09+2bq9j8S1+Bv7PWnN8QPjbqchtT9kQTW+jMfvM/wDC0qjJKsdkYBaQ4G0uMXJ2W4pSUVdvQ9i/aj/bO8EfAfRV0rL+K/iLfKBpHhbT5MzysxwjykA+VGTwCQWY8KrYOPkr4bfsofEv9oj4k2fxo/bI1C9eAnzdB+HMEjQQWcR5AnUHMS4xmIHzGwPMfIKV7X+zL+xxpXwr1l/ih8VL9fiR8d9Sc3N7rV65ni02R/vLbl+Wk7GYjdjhQi5DfclfdZPw1GFquIV32/z/AMj4XOOJZTvTwzsu/wDl/mUNL0rTND8OWWj6Lp1jpOk2cKw2llZwLDDBGowqIigBVA6ACr9FFfYpWPj27hRRRQIKKKazKo5OKAHUZx1qjNfRxg/MK5u/8R29vE7vMiKoySTgAVLkluUot7HWvNGnVhVCbU4YwfmAr4b+Kf7cfwO+HEtxaXHixPE+sxkg6b4dUXkgI6hnBESEHszg+1eHWfxz/bI+OzhPgV+z9eeGfD8/+r8SeLSY4mQ/8tEMpijP0Tzvoa8XHcQ4HCr36iPQhldbk56loR7ydl+J+ntz4hhjBzIPzryXxj8ffhn4H8weLPH3hTw/Kg5gvdUijmPsIy28n2AJr5Ksv2EP2l/iawuPj7+1Be2FlLzPofhCJzE4P8JP7iIEevlP+PWvbPBX/BMz9lfwm0U2reHvE3xAvE+bzvEOtybS3r5dsIUI9mBH1r47GeI+GhpSi3/X9dTmqYrKqHx1XN9or9XZHmHib/gof+zzonmLZ+KNW8Szp1j0rSJjz7NKsaH8GxXmy/8ABQz/AISR9vw6+Bfxb8ZljiPy7MLu/wC/Imr9QvCvwF+CXgjy28JfCT4c6BOmNtxaeHrZZz7mXZvJ9yTXrAAVQAAABgAdq+dr+IuMl8EUv6+Zyy4iwENKeHcvWVvwS/U/HBf2l/2vtbH/ABIf2LfiHZK33G1RLtAff57aKpx8S/8AgobeDdZ/ss6ZArfdFzehSPruuVr9iaK82fHeaS+0YvilL4cND58z/U/Hg+OP+CkEY3y/sy+FnQ9BHqMZP6Xx/lUbfF/9vjS/3mq/smyXkY6rp9yzt/45JJ/Kv2LoqVxzmi+0JcVPrh4f+Tf/ACR+Ncn7Xn7Rfh8b/GP7Gnxa061X/WXdvBeGMfnZ7f8Ax+n2P/BSb4c2eppYeMPA/wATfCN5/Gt1p0Tqn1/eB/8Axyv2RrP1LSdL1rS3sdY03T9Wsn+/b3lus0bfVWBBrso+IWYR+JJ/16GkeJcK/jw33Sa/NM/O/wALftz/ALO/iWSKO3+Jel6ZO/WPV4JrEIfQvMip/wCPYr6W8PfEfw54k0tb3QNe0jXLI4xPp94lxH/30hIqDxd+x/8AsxeN4pl174I+AVkl/wBZPpWnjTZmPqZLUxsT75r5X8Tf8EtPg0+ovqvww8d/Ev4V64P+PeW01AXcEJ7YVgsx/wC/wr3cJ4krarT+7+mdMM0yiro3KHqk1+Gv4H3HBrkMgHzqa1Y76GQfeFfmDe/s+f8ABQj4PBpvAPxS8KfHTQ4OY9O1thFezAepnwRx2F0axLX9ubxh8Ndft9C/aP8Agf47+Gd+zeWNQgtXe1nPdkWQLlOvMby19dgOMcuxOinZ+Z3U8vjXV8NUjPyT1+52Z+saurDg0+vmn4Z/tEfDH4o6es/gjxpouuybdz2kc3l3UQ9XgfEi/UqK91tNZimUYcGvp6VeFRXi7o4atCpTdpKzOhoqvHcRyDIIqxnNamQUUUUAFFFFAHjvxn+A/wANPj18NX8NfETQItQWMMbDUoMR32nuf44JcEr0GVOUbA3KRX50af4q+PP/AAT58bWmieOG1X4ufszXFwsOma7bqWutFBOFjIJPlkf88mPlt1jZTuWv15rO1bSNK1/wzf6LrmnWOr6PewNBeWV5AssM8bDDI6MCGUjsRXj5pktHGRu9Jd/8+57OV51WwcrLWPb/AC7Fj4U/GLwf8TvhrpvivwZ4gsfEGhXi5hubZ84PdHU/MjjoUYBgeor3a1vEnjBDZr8KviP8Cvij+xp8U9R+Nn7MYvvEPwtmbzvF3w/mleX7PEOWkj6s0ajOJBmSLvvj34/Q/wDZx/ad8B/Hn4VW/iHwjqQFzEFTVNJuWC3enSkfckXPQ4O1xlWwcHIIH5tjcFWwtRwqKz/P0P0jBY6jiqanTd1+XqfatFZNjfpPCvzA5rVBBGRXIdYtFFFABRRRQAUUUUAFFFFABRRRQAUUUUAFFFFABRRRQAUUUUAFFFFABRRRQAUUUUAFFFFABRRRQAUUUUAFFFFABRRRQAUUUUAFFFFABXwn/wAFLv8AlCX8av8AuD/+nqwr7sr4T/4KXf8AKEv41f8AcH/9PVhQB237B/8AyYf8G/8AsStL/wDSOKv0Cr8/f2D/APkw/wCDf/YlaX/6RxV+gVABRRRQAVWvP+QbN/u1Zqtef8g2b/doA/Bj/gov/wAno/sm/wDZRIf/AEps6/aSvxb/AOCi/wDyej+yb/2USH/0ps6/aSgAooooAKKKKACiimswVCTQAjuqIWY1yOta3HawOS4GBTtb1mO1tnJcDAr8hf2pP2k/G/xJ+N4/Zd/ZreTU/iBqTNB4k1+2lIh0SDpKvmjOx1B/eSD/AFedq5kYBKhCU5KMVdsmc4wi5Sdkh37SX7U3jj4k/G9/2a/2XBJrfxAvWaDX/EltJi30SIHbKFlGQrrnDy/8s87VzIQF+jP2Zv2XPBX7OPw1MNgE8QePtRjB8QeKLiP9/duTuMcecmOEN0XOWIDMSemt+zf+zf4K/Zw+CcXh7w9FHqXiS8VZPEPiGWICfUpgPxKRKSQkYOAMk5Ysx+ia/R8kyKOFiqlTWb/D/g+Z+b53nssXL2dPSH5+v+QUUySSOG3kmmkSKJFLO7thVA5JJPQV8jeEP2xfA3jL4maqlr4d8RaH8JbNZlT4p6+8OneH7qaJ9hSGad1Em5squ0lyQcoACw92riKdNpSdrnh0sPUqJuKvY+vKKp6dqOn6voVnqmk39nqmmXcKzWt3aTLLDPGwyro6khlI5BBwauVsncxYUhIAyTiopZ0jUkkVzOpa3FbxsS4H40nJLcaTZu3F7HEp+YCuD8S+ONH8PaBd6prGqWGk6bbIXuLu8uFhiiX1Z2IAHua+HfjN+2voWgeOF+Hnwn0e++L3xQupjb22laIrTQxS8/K7xhi7jvHGCRghilYngz9h/wCNP7QHiSy8bftheOr3SdFDiey+H3h64VRCD0ErqWji9Dt8yQg4MikV8nnXF2DwKaveXY9B4Slh6aq4qfInsvtP0X6vQreNv25x4i8fnwF+zn4H1/40eNJSVSSxtZRZRY4L/KN8iqerfImOfMxUujfsW/tOftA3Eeq/tQ/FqXwL4WlIc+CvCjo8m3+5IVJgUjszG4Pbiv0/+HHwo+HPwi8Cp4b+G3g7RPCGkDHmR2MGJLhgMB5ZTl5X/wBp2Y+9eg1+T5txnjsY2ovlj/X9dTx8RxR7P3cHT5P7z1l/kvl958z/AAi/ZA/Z6+CYtrnwZ8O9Jm16HBGu6yPt9/uH8ayS5ER/65BB7V9MUUdq+TqVJzd5O7PmcRiq1efPVk5Pu3cKKp2eoWGoxSSaffWd8kblJGt5lkCsOqkgnBHpVyoMWrBRRRQIKKKKACiiigAoquLu1Nq04ubcwKcGQSDaD9anVldFZWDKRkEHIIoAWiiigArP1XSNK13w/daTrmmafrOlXKbLizvrZJ4Zl9GRwVYexFaFFA02ndH59fFT/gm5+z/46v5Nb8EQav8ABnxaG823vvC8xFqknZjasdqgekLRfWvmjU9C/bw/ZZLzX+n237S/wyteTe6ezvqcEQ7uADOGwCSSs6qP4hX7OUV7eXcQY3ByvTmz6HCcTYyklCr+8j2lr9z3X3n5r/BT9tH4T/Fma20u21lvC/ixyEbQtcKwTs/QrE2dkvOcBTuwMlRX2bY63FOi4cGvKfjz+xd8Cvj/AA3eoeI/DSeHfGkoJTxRoAW2vS/ZpQBsn7f6xS2OAy9a+A9Z0r9r/wDYqd5tZim/aG+Bdpz/AGta7/t+mQDvIDukiAA/i82IAACRM1+nZJx/RrNQxC5X3/r+vI9/DVsDj9KMuSf8sv0ls/R2Z+uUc6SKCCKnr5N+CX7Snw6+NHhRdQ8Ha7HNeRoDe6VdYivbMntJHk8Z43qSp7Ma+mbPUo5oxhgc1+i0cRCrFSg7pmFbDzpScZqzNmimbt8Z2MA2OCRnBr8+vB37ZXiW9/Yl/aL8c+NPDHhzR/H/AMLtXn02bSbV5fsssuVht9+5i43XHmIcEcKMc1FfF06LSm97v7tWXQwlSsm4K9rL73ZH6EUV+dX/AA23rcP/AASK1L493vhfQrb4g2fiJtAk0BmlW1F4LlQUOW8wEW53kZzuHpX1nefGXwV4E+HvgyT4y+NfAvw+8W6tpcE11p19qsdsBOyL5wjWRtxjWQsu48DHJqKWPoVNpdE/k9i6uAr0949Wvmtz2KvzF/aE/Zf8Y/C34uyftK/snRHSPFdpum8TeDLSMm21eHO6VooVwGJxl4BjcQGj2yABvo/9oT9oe7+E+l/BTU/CNt4b8UaR458X2mkPfSXJkhW1nAPnwvG21uDkHJUivbPCHxW+GXxA1zU9M8DfEHwb4w1HT+b220fWIbqSAZxuZUYnbnjd0zxmubGUsLjVKhN6r79ex0YOrisE414LR/dp3POv2Vv2sPCHx/8Ahel/pko0nxTYqqa7oFxKDPYydMjpviYg7XA56EBgQPufT9QS4hUhgcivxw/ah/Zp8V+D/iwP2o/2ZIjpHxH0xmufEvh2ziJi12HrLIsQwHkYD95GP9Z95cSjL/V37Kn7UvhT4/fB2DWtJlXTvEFpth13RJZQZrCcj/x6NsEo+MMAQcMGUfm+Y5dVwdXkn8n3P0nLsxpYylzw+a7H3yCCMilrI0+/SeAHcDkVr1wHeFFFFABRRRQAUUUUAFFFFABRRRQAUUUUAFFFFABRRRQAUUUUAFFFFABRRRQAUUUUAFFFFABRRRQAUUUUAFFFFABRRRQAUUUUAFfCf/BS7/lCX8av+4P/AOnqwr7sr4T/AOCl3/KEv41f9wf/ANPVhQB237B//Jh/wb/7ErS//SOKv0Cr8/f2D/8Akw/4N/8AYlaX/wCkcVfoFQAUUUUAFVrz/kGzf7tWarXn/INm/wB2gD8GP+Ci/wDyej+yb/2USH/0ps6/aSvxb/4KL/8AJ6P7Jv8A2USH/wBKbOv2koAKKKKACiiigBCQBk1zer6oltbuS4GB61f1K9WC3bJHAr88v2yf2o7L4GfBRm00R6r8QNbZrTwxpIG9pZjgGZkHJjTcpIH3mKqMbsgA8j/bJ/ae8S2XizTf2fvgck+ufGzxUwtl+xNltHhkH+sJ6JKVywJIEaAyMQAu72P9lv8AZm8N/s5fBMWEZg1rx/qyrN4o8QEEvdTdfKjLciFCSFHBY5Y8nA84/Y2/Zmvfhb4Vv/it8UWl1r47eMA11rN5et5kumxynf8AZge0hODKRxkBB8qZb7nr9F4fyVYePtqq99/gv8z864gzr6xL2NN+4vxf+QUUV8j/ABZ/a00zwB+0RD8KvBfw18efGTxxBHDNrll4XtfMXSIpiojMz4IDsGVsHaoDAs65r6GviKdGPNN2PnqGHqVpcsFdnnvxn/ba+Eug6r478BXXhH4n+MfCdh5mh+MfFXhrTFew0mWdWheEzuyjzVJx2GfuliMV8Va5+zyvgzQPh9Y61pvxr/a20m90OVvhx4e0/RrrS9D0ZJgHha/ffuidvM3sgMZVUy5KlcdHrPwl+LHwc/an1DSrv4YeMfj98Bm8XXXivTPDHh2aJzFrNxHC0MerKiyMRCuzhz5bZEgLAslfoh+yl4C+IXgT9m3WLv4q3UreOfFnii98SalYPdm5/sw3PlhbUSFju2rGpODgFiBnGT83GnVxtZxrKzV+m2v3NPpe+1z6SVSlgqKlRd07dd/1TXW1t0jf/Zg+FesfBT9hbwD8OfEOorqOuabayyX7xvujilnmknaGM90QybAe+3OBnA9tur1IY2+YcVVv9RSCM5YDFfF37SH7U/hT4K+F0gl3a/40v1xo/h20f9/cMTtV3wCUj3cbsEk5CgkHHuzq0cJQV3aMVb7jwYUq2LrNpXlJ3PaPir8ZfBvwv+Hl54m8Za7aaLpUPyhpDl5nxkRxoPmdzg4VQT1PQE1+fOlv+0d+3n4jms/A6aj8GP2dxM0V94kvFIutVQHDJGFIMpPIMcbCMch5GOFr0r4K/sZ+P/jl8SbD43/tjzTyxZE3h/4cKWjgtYyQy/aUB/dr0JhyXbA81uCh/WmxsbLTNGtdO02ztdP0+1iWG2tbaJY4oY1GFRFUAKoAAAAwBX5FxJxxUrN0sM7Lv/X9epljc4w+A9zD2nU6y3jH07vz29TwT4CfswfCL9nPwb9g+H/h5DrU0QTUfEWobZtSvvUPLgbEyAfLjCpxnGck/QtFFfnFSpKcuaTuz4rEYirXqOpUk5SfVhRRRUGIV+WP7cviHxd8Tf24fgV+x/4e8SX/AIU8PeMkGpeK7qwlKzXNoZJl8o44KKltcNsbKs+zcMLX6nV+bX7a3wj+Klv+0z8Hf2pvgx4bn8ceKfAR+zav4ct03XF5ZiR3HlIoLvkTXEbKgZwJFZVO1q7cvcVWV99bettD3eHZ0441OTSdnyt7KVny/j+JgeJv+CeV18NvF3gzx3+x942uvh34/wBJvQNRHibWJ5bHUrbadwkEcTkksFDRlfLZWb7pUZ9b+Mf7W/jHw5+1lafs/fBD4Tj4vfF+PSl1DXLdtYSysdKRkVwrSSbdx2ujEsYwBJGAWZto8R1r9o39qr9o3x74M8B/An4S/Ej4BQpqSy+L/F/ifSYzHaQAbXhT7RDsONxbA/eOyqAqjcaq+PNN+In7Ln/BZ3xl+0NF8MfHfxY+Fvjrw0ljeXHhbT/tt7pkypahg6jG357RWBYohWbAJZMV2qE5tKs05JOyvr83+Wp7kaFatNRxzjOooycYt6t3VlJpq/VpXv6H0F8Gf2xX+I3hn4yaF4w+Ht18PfjD8NtNub3WvCtxqCzR3EcKOd0UwXONyqrfKQPMQqzhuPn22/4KJfFvW/2T2+M3hn9lq9vvAOkXBi8UaxN4qjSC3fzdgjt18rzZRteItKEKozMpHy7qz/gr8Ofin8RP2i/2uP2ovE/w78TfD6y8ZeCL7QvCvhrU7JotRvVaCJVcwAB922zhHK/O8p2lsZM3ww+G3xC07/g2R8beAr7wD4zsfHdxZ6mIvDs+h3EepSs96WQC2KCRiy4IwvI5HFN0cPGXwp6xW70utepcsFllKbvTTblTTXM7R5k+ZJp62fXWzOR/ay/aN+KfiTxr+x74w+FvhrxNpvgzxJqFlqmkm18XJZHxHdSy2/maRcxIR5YQhEMsm6M+c2BhWz9EfFb9uHxf8Kf2mPBXwpvfgLq3iHxv4g8D2msjQtH1sXN3Fqc/mhtOUxwskiRvE4a4UkbVZgp4B+XfiV8Ofino/wDwT3/YF8R2vwt+IGvXnw81qO+8TaBp+iTPqlqqzwzBWt9u9ciBhlgACVzjNe9XGgeMPGv/AAcFfAf4xwfDjx9pngi4+FSzzahqegzRx6VPPa6gwtbmQAxw3K+eqNGXyGbHORm3CjyK8U0lLr2enU1nQwPsYKVNOMFV6u7cW7J69Vr+R6F8S/2xvFvgTRPg34I074OX3iP9o3x/piXq+BBqQt00kHcD50zLn7ySAcKMRSMzIFGdH4LftaeI/Gf7TPiD4A/Gz4Xy/CD4v2mlNfWVpHqkd9aalCIw7eXIvAcKS4Cs6lUf5gVwfKP2pfB3xH+Gn/BVX4Qfta+EPAHiP4o+FNI0Z9G8R6PoFqbq/tAVuo/OSMZbaY7okFRtDREOyhwa534X6L8Rf2j/APgszZftOXvwx8afC34a+EPCsumaOviiwNne6rK9vcxACPq3N5MxZSygRqu7JwMVRoujzWVrN3vrftucUcDgZYL2nIknBy5uZ3U76QtfbZbXa1ufI3w9/wCVUb46/wDZQ7f/ANKtGr9BNT/ail+Cn7In7LHw68E+A774pfF/xj4F0n+xPDtveC2RYlsoQZpZCDgEhsDGD5bksoXJ+PvAvwi+LFp/wbO/GfwHd/DD4h2vjm+8dwXNl4dm8OXSajcxC50ljJHbGPzHQCOQ7gpGEb+6a6f9oH4BeLfK/ZE+MOr/AAs8efEbwd4c+GemeHvG/hTw89xba1YmO2YhxHGVmVla4fcBjBh2uVDZrrqqlUqNSenNL8lY9rEwwmJryhVkmvazaV93yRst1u/NX2ufX3wx/bK1nxB4i+Lnw9+KXwqufhh8Z/Anhq416Xw/JqyXVtqVvFAsuY51XCk74+BvG1twZsMF4/4Jft5eJPjBp9n4kf4E+IfD/wANtK0nU77xt4vS7e5stMe0guJ1t4D5SCZ2jjhJOQQZdu3gMfE/gl8LNF8Q698ZfHngP9lz4mfDTRIPAOqafoGv+Mtev5tY1iae0KC3jsJS4YHLfMrOAQoBLEgfQv7F3g74geCv+CKv/CP3Xw/nsviAI9Zkg8M+K7GWw+2zPLL5UVwkgVljlGxdxGNpB6Vy1qWHhGTUddOu1079X+J5GOwmW0aVSUafvXirOW107tWlLyerdnuefeG/28vjZ4n8FWHxT0T9lq/8S/BW61ZrH7T4f8Rx6hrUCrIyGSSziUup+UkKyKpx9/DK5/UC0uY73Sra8hEqwzxLKgkjKMAwBGVPIPPQ8iv5wdb+G10bSwufg3+zx+1R8Ev2m49UCNYaFb3H/CNxL55y6XUreei7ACCW8oHPJTBr+iTwfF4ht/hL4Xg8XXEF34sj0i2TWp4ABHLdiJROygcbTJuIx2NZZjQpwUXBW3/rd/ecnEuBwtBQlQio3b0vrbS1/ekn6pq/Y6KiiivLPkwpCAVIIBBGCD3paKAPzo+P/wDwT98KeMfFEvxL+Auq/wDClvi9bubiGTTGaDTb+XqfMjj5gZuheMbTk7o3JJrwX4a/tZeMfhr8Wk+Dv7V/h+b4e+OICEttfljCafqK52rIzLlFDEf61CYic58vGK/ZGvI/jN8Dfht8e/hJceDviRoEOq2RDNZXseEvNOlIx5tvLglH6ZHKsBhgwyK+nyPijFZfNK949j6nLuI5KKo4tc8Oj+1H0fVeTKWj6/b3tpFLFMksbgMrKwIYHoQe4r8a/wBorwvqWif8FVPF3wa022kHhX48ax4av7tUHyAR3uJ2b1/epPIfQNXdX6/HL/gn747s9H8ZtqPxS/ZruroQ6V4htoybjSMn5YnUk+WwH/LJjsfGY2B3LX6CeDtX+FnxTi8K/Euw0zwf4vu7eEvoPiB9PhnubQHO4RSsvmQtnIZQVIOQRnIr9hoY/D5zh4+zlZp3+WzXzTPqsNJYR+3pvnhJaNd916NNbH5g+IPCupat/wAFhL79lz7G58HX/wAZ0+Il1GB+5aFrAXUy+gBQvH6ZwOtXPiFaXF5/wWK/aIXx3qf7PWmy/wBnWw0j/hctpPLZvp5gTBsCsiKsgXGSCWyX2ch6/Yy28J+C5PiZ/wAJyPCfhgeNWtvsx8QDS4f7QMOMeX9o2+Zsxxt3YrP8a/Cf4Y/Ei5sZ/H/w/wDB/jKez4tJtY0mG5eEZyVVnUkKT1XOD3Fdcskk4u0rvmuu1tbL5XKjnaUleOnLZ976Xfzsfhf420PQfDv/AASr+Adhrfjqz+I/w4HxjneHUdMsL60iTTjEv2iCNbqKKU4kFydygjLEBsg4+mYoPg9/w/Z/Z+H7MC+Dxpy+Hrp/FreDHiOnfZ/JnA83yT5fmbcbs87jFn5sV+pF/wDDzwBqvh/QNJ1PwN4P1LStClSXRLO60aCWHTXQYR7dGQrEyjgFACO1VfCXwv8Aht4B1bUr/wAD+APBvg++1D/j+uNG0aC0kuADkBmjUEjPOOmcnqaIZLKM1qre70d/d7a9QnnUZQejv73VW97v6fmd1X5Z/tQfBDxX8CPjif2uf2d7LyJ7V2l8f+F7ZSIL23Y7pbgRr/A2MygD5SBKMEOa/UymuiSwvHIiyRupV0YZDA9QR3FenmGAp4ui6c/k+zPMy/H1MJWVSHzXdHnP7Ovx+8KfGv4HaR408LXm+1uF8u7tJWHnWNwAN8EoHRlyPZgQwyCDX1pZXaTwKQeor8F/ih4U1z9gz9sy2+M3w7sby6/Z68X3q2/ivQLXJTSJmJIMa9FAyzRHoPniJUMhP7B/Dbx/o3jDwHo+v6Fqdtqujajapc2V3A2UmjcZVh+B+o71+VYzCVMNVdOa1R+q4PF08TSVSD0Z7rRVe3nWWEEEHirFcx0hRRRQAUUUUAFFFFABRRRQAUUUUAFFFFABRRRQAUUUUAFFFFABRRRQAUUUUAFFFFABRRRQAUUUUAFFFFABRRRQAUUUUAFfCf8AwUu/5Ql/Gr/uD/8Ap6sK+7K+E/8Agpd/yhL+NX/cH/8AT1YUAdt+wf8A8mH/AAb/AOxK0v8A9I4q/QKvz9/YP/5MP+Df/YlaX/6RxV+gVABRRRQAVWvP+QbN/u1Zqtef8g2b/doA/Bj/AIKL/wDJ6P7Jv/ZRIf8A0ps6/aSvxb/4KL/8no/sm/8AZRIf/Smzr9pKACiiigAqtdTrDAxJGcVOzBUJNcF4l1lbWzkO/GB3NAHk3xq+LHh34ZfBzxD4z8T362OiaVatPcOCCzdlRBn5nZiqqvdmAr8x/wBk74aeI/2if2lNQ/bF+M1m5sxctD8OdBuPmhtYo2YLcAHgrGdwQ4+aXzJMAhCee+KV9q/7cP8AwUig+B3h6+uYfgl4DuheeNdStXIW8nRihjVhxuzuhj9D50nzBBX6y6TpOm6D4W03Q9GsbbTNI0+1jtbK0t0CRwRRqFRFA6KFAAHtX1vDOU+1n9YqL3Vt5v8A4H5+h8lxNm3sofV6b957+S/4P5GhRRXDfErxfqXgP4HeIvFmjeD/ABB4/wBW0+1MlpoGix77q+kyAqLgEgZOWIDEKCQrHCn72clGLk+h8FCLlJJdT5k+O/jj4jfBX4yeIfivomuat8T9Bg8PWom+FVg0EL6daLcH7Vq7H5pWRRlAyJndIN58uLA+YdH8b+OdG/ag8TftXfsx+HZfjr8K/iHBbReNPCNq/l6zo19BGFCNGA7qy/MwKq6kSMMbfLkPnfxJ/ai+HV1+1F4G/aY8Ef254K+KXhkpovxG+HviKI211qelO21/JJ+SWSMsfl4fiNyiiI5/QH4Y/s6fDHQf2o4/2iPhH4i1TQvDXinQvOufDmkSBNI1RpwrxXWz+EBWZhGBgOQRt+ZW+aUpYqs/ZS0Tvo9Vf7Sv804vbofSyjHC0U6sdWrarR2t7rt8mpL5mN+yV4F+IuleIPjX8XPiToVz4H1H4leJI9Ts/CVxetcy6XBEsiq0jE8SP5mCuBhY04UYRfq/UtSS3hZiwGKXUtQSCFiWAwK/Pz9qT9pq48AtYfD74fWcnir4w+IWW20TSLWIzvAZDsSV0HUk8In8R/2Qa9SpVpYDD+9LRdfXX8zyY06mNr3S3+5JL9EO/aa/amPgC+s/h78PbCTxn8Y9cdbfSNEtIzObdpDhJJUXkkk/LGOW68LzXoP7KX7FR8BeKV+Nvx5vV8e/HrUmF1uu3E9voLEcLH/C86jA8wfKmNsYAG9ug/Y9/Y+t/grp03xO+J0yeLvj7r6tPqmqXMnnjShLy0ELnq5ziSUdeVX5PvfeVfh3EvFFXMKjhB2gjyM3zuEIPC4R+79qXWXku0fzCiiivjz5EKKKKACiiigAooooAKKKKACijOOtNLqOrAUAOoqE3EQPLimG7gH8YosOxZoqr9sg/vinC6hPRxTsFmWKKiE0Z6OKkDKehFIQtFFFABRRRQAUUUUAFFFFABRRRQBj+IPD+h+K/BWp+HPEuk2Gu6DqNu1vfWF7CJYbiNhyrKeCK/Gf4q/Bb4j/ALB3xQu/ir8GhqvjP9nW/ug/iPwvLK0kuibiBv3HJ2DgJP1GAkufldv2wqC6tbW+0u5sb62gvLK4iaK4t54w8cqMCGRlPDKQSCDwQa9HLczr4GqqlJnr5TnFXAzdlzQfxRez/wAn2Z8j/B/4x+E/in8LdN8V+EtVj1HS7pcEHiW3kGN0Uq9Udc8j6EZBBPv1rdLLGOc1+TXx2+CPi/8AYm+OVz8evgZYXeq/A7U7hR4y8IRuzLpW5uHTriHJ+R+TGx2NlGAr7r+EPxb8MfE74V6T4s8K6nHqOkXseVPSSJx96ORequp4I/mMGv33h3iGjmNFNP3uqPrq9ClUpKvQd4P70+z81+O6PoeiqdtcLLEMHNXK+mPOCiiigDm/GHhHw749+GGueDfFmmQax4c1e0a1v7SYcSI3oeqsDhlYcqwBBBANflr8CfE/iT9jT9u66/Zl+IWqXN58M/EFwbv4ea7dHCAyudsJPRd7ZRlHCzAEDbLur9bq+Yf2sP2d9N/aK/ZhvNAi8iy8caSWvvCmpsdpgugOYmbqIpQAreh2vglAK8LPcqWLo3ivfjt5+R7uRZq8JWtJ+5Lfy8z7c8Oa0l3aRneDkCu8Rg8YYV+T37DH7Rmq/EP4YX/gXx801j8VvBVx/ZviC2u/lnnCExrOyn+PKskno6k8B1FfqNpN+txaoQwOR61+YtWP05NNXN2iiikMKKKKACiiigAooooAKKKKACiiigAooooAKKKKACiiigAooooAKKKKACiiigAooooAKKKKACiiigAooooAKKKKACvhP/gpd/yhL+NX/cH/APT1YV92V8J/8FLv+UJfxq/7g/8A6erCgDtv2D/+TD/g3/2JWl/+kcVfoFX5+/sH/wDJh/wb/wCxK0v/ANI4q/QKgAooooAKrXn/ACDZv92rNVrz/kGzf7tAH4Mf8FF/+T0f2Tf+yiQ/+lNnX7SV+Lf/AAUX/wCT0f2Tf+yiQ/8ApTZ1+0lABRRUcriOEsaAMrVLxYLVvmxgV+YH7dn7Q+ofDP4Iw+FvBrT3PxN8ZTnSvDlvagtPGXIWSdVHJZd6qmOfMdOCAa+8PH3iiz0Xw3f399dw2dlbQPNcTyuFSNFUlmYnoAAST7V+Q37Muj3v7VH/AAUl8X/tQ+JraZ/h94PuDpXgK0uEO15lBKy7T3RXMzekk6YP7uuvAYOWKrxpR6/kcmPxkMLQlVl0/M+yf2TP2f7P9nn9kvS/DU6Qz+M9TI1DxTfIQxlu3Ufug3eOIfIvYkM2AXNfTlFfCv7fvjP4u+Ef2Oivw40rUk8OahM0HjPxHpR8y90ewOAxiiyDhwWDS7gEAwSu8Ov6pOVPBYa8VpFbL+vvfzPyuCqY3E2k9ZPd/wBfcvkfRWn/ALQXwP1X4uS+A9O+K3gS78XpP9n/ALMTV4vMebODEhzh5AeCiksCCMcGvyM1HxJ8WP2h/wBqHxZpXh/4pfFXw/8AHS3+IN1peh+FtFv5LDRfCmi2bqst9elR8xy7R/KQzuCDu3KtfVHhz9kj9kX48f8ABP7Sl+EFvZ21wtkV07xjCzf2rbXyqCftwyCzbiN8TAABv3e0bGryP9mL4A+Bf2rv2bG8dfE6fxTpvxK8Oa5c+GdS8T+GdY+zS+IraCGBo2uXKMsp8uXyTIoDusYLMx5rw8ZLFYiVODSs9VZuzWl9e66Pb5nuYNYXDxnUTd1o7pXT6adn1W/yPrP4caf8If2vf2ftZl+IXgSw8cL4Y1+fwyviLV7aGK+1VrSKHfexy220wrK0jNsjbaMY5r6xjh0zw/4XstI0mztdM0qxt0t7O0toxHFBEihVRFHCqAAAB0xWN4L8EeEfhX8H9H8D+CNIg0Lw1pcJjtLWIlsZJZnZiSzOzEszEkkkk15T8ZfitoHw0+EWueLvEd79m0vToC7hcF5WPCRoO7sxCgep7DJr24JUKXPUtzW1f/BPEm3Xq8lO/LfRHjv7Un7SGl/Bj4WGaBF1Xxjqha38PaQuWa5m4G9gOfLQkE45JIUctkaf7FP7KWq+A2vPj18bUfWvjx4pDXGL1QzaDBIP9Uo6LOy4D4x5a4iXAD7vHP2Mvgp4j+Ofx+l/bE+NunkWxlK/Djw/cAtFbxoxCXe0/wAKHPlkj5nLy4GEJ/XivxHi/iWWNrOlTfuL+v6+44c+zJYaDwVB6/bf/tq8l17vQKKKK+HPiwooooAKKKKACiignAyaACkJA6mqs13HEpy1cnq/imy06xnuLm5ht7eJC8kkjhVRQMkkngADuapRbLjCUnodfJcxxg5YVlXGtQRA/OB+NfnD8V/+Chfwn8J643h3wP8A2n8W/F8knlQaf4aXzIGk7KbjBVs/9MhIfavFzqP/AAUB+PhMtpb6B+zp4OuPum7BGotGfUMrzBx67YK7o4CduabUV5/5bn3PD/h1nebySoUXbu/6/PQ/U/xH8SPDnhnR5NR8Qa7pOhaehw9zqF4lvEv1ZyBXyt4v/b5/Zv8ACs0sM/xN0zWLlekeiW81+H9hJCjR/mwr500L/gnf4L1DWo9b+MnxM+IfxZ17rK9zem3hfPJBLNJMR7iUfSvpbwp+y7+z34LijGhfCPwX5ifcn1GxGoTKfUSXHmMD7g0/9kh1cvTT8z9nyj6OWLmlLF1lHyW/6r8T571D/gqB8MLm+ez8J+Bvih4qvB91YdPgjVvp+9Z//HKzj/wUA+Jl+d/h/wDZO+LmrxHo4W4X/wBAtH/nX6CWWn2GmWCWmm2Vpp9qv3YbaFY0X6BQBVul9aw62pfiz7jDfR3yaC/eVXL5Nf8Atx+eH/Ddnx4Q7p/2L/i7FF2bN7z+enilH/BRbXdK+bxb+zf8WvD8a/6xjCzbR3/1kUf9K/Q6ij63Q/59fizoqfR7yKS92bX3/wDyR8P+Hf8Agp58BNSuVi1dfHXhRgcO2paOJFU9/wDj3kkP6V9M+Cv2vfgP44eKPw98VfCE9zIQI7W6vhZ3Dk+kU+xz+VdDr/grwd4rtzD4o8JeGfEkRGCmq6XDdKR9JFNfOfjD9iH9mnxikzy/Dq18OXrg7bnw/dS2JT6RK3lfnGaftMJLeLj9z/yPlsy+jfTabwuI189P8/zPvaz8T208SOkyOrAEEHIIroINThlA+YGvx0l/Ym+LPwxlN9+zl+0V4o8PrGcw6H4icvaP3G4xgxH8bc/WmxftT/tT/ASUQftEfBmfxL4ZhOJPFnhbBQJ/ffYWhyeysYD7U1g4VP4U0/LZ/ifknEPgxn+WJz9nzxXVf0197P2dWVHHDCpK+N/gz+1r8IfjLBFF4O8X2cusFN0mjX3+jX8fGT+6flwO7Rll96+prLWoZ0GHBz71xVKM4O0lY/KsTgq2Hm4VItPzOioqKOZJFyCKlrI5QooooAKKKKACiiigCrfWVnqejXenajaW1/p91C0F1a3EQkimjcFWR1OQykEgg8EGvxN+KfgDxJ+wB+1j/wALA8GWuo6v+zH4wvwmp6bGTI2gXDdFGfQZMbH76Axsdyq5/byuY8Z+DvDfxC+FWveCvF+l2+teGtZs2tb+zmHEiN3B6qwOGVhgqwBBBANenlWaVcDXVWmz2cmzaWCqvmV4S0ku67+q6HifgPxtpHirwZpeuaLqFvqWlX9uk9pdQPlJo2GVYfhXrEEyyxAg1+OvgK78U/sTftuSfs9/EHULq/8AhV4iumufAHiO44jUO+BGx6KSxCSL0SQh8BZN1fq5oWrrc2qHeDxX9EZLm1PHYdVIs+qxuGjC06bvCWqfdf59ztaKajB0BFOr2TgCiiigD8qf2wfBmt/s9/tceF/2xvhvYyPpklxHp3xE0y2+VbiNyqLMR0HmAKhJ4EqQtgljX6j/AAm+IOj+NfhroPiXQr+O/wBH1Syju7OdD9+N1DL9Dzgg8gjB5FZPjLwjoXj74U+IfBfiezW/0DWrCSyvoDwWjkUqSp7MOqt1BAI5FfmZ+xj4v1/4GftR+O/2RPiDeO95ol7Le+ELuT5VvbR/3jKmezIwnCjJG6YH7uK/POJ8t9jW9tBaS39f+D/mfofDGZe2o+xm9Y7en/A/yP3MtphLACDnirFcf4e1JbmyjIYHiuvByM18sfUi0UUUAFFFFAHJ+N/G/hz4d/Dq58VeKrm/ttHhurW0JsdLudQuJZ7q5itbeKO3to5JpXkmmijVURiS446mvOf+GhvAn/QtfHr/AMMh4t/+VlH7Q3/JCfDX/ZUfBH/qW6RX0dXx3E3E1XK6sIQgpcyvqbUqSmj5x/4aG8Cf9C18ev8AwyHi3/5WV6N4I8b+HPiJ8OrbxV4Vub+50ea6urQG+0u50+4jntbmW1uIpLe5jjmieOaGWNldFIKHjoa9Ir5x/Z5/5IT4l/7Kj43/APUt1ejhniarmlWcJwUeVX0CrSUEe5UV+NPjL9pr4tz/ALffx98D3X7YHw2/Z98OeEvEEVnoOneIvB9peyXkTxbmKSMAx2EAHcSfnFfYbftWeGvhd4e+F3gbxlqHjb45fEnxJ4JXxFp2peAfCH2hfEUBJIlgt4m+QsgMgGAgRSSw4B+xMT7Tor84/in+3lZW3wZ/Z48ffBnw34i8VaB46+JVt4f1lLnw3LJcW8CyPHdWUaLKm3UmIXyUJZXCueQK9U8Y/ty/BrwT8Ttf0DVNK+Jl9pPhu7trPxf4r03wxJcaL4ZubgqEgvbhWykgLqGCq+1jt+8CtAH2RRXyhq/7Y/wq0v8Aaq8T/ByHSfiFr3jDQDavqTaPoJu7SK3uLQXYujOr7UgSNkDO+35nUKG5I5LwR+358D/HXjP4d6ZaaV8UdB0rxxdiw8OeJNc8KyWukXl8W2CyW6LFWm3/ACfJuQNwWBzQB9uUV8DeO/22vAmq+Bvjn4a8BT/Enw94u8Cx6zZ6r4lj8GLf2Oh3Gn5UzOXkEMgdlcRRswZyhyqjBPX3P7X3gfwZ4O+HGg6pafEj4qePtU+Hlj4r1KHwn4UE1ylhJEgfUJ4VcJCrPuJijZ2XOACMEgH2VRXyb4z/AGyvhV4UTwXBpmifE34ia74m8Of8JHaaD4R8Ly3mo2mlg4a7uYWKGGMMGQhvm3KRtzXtvgn4l+Ffij+zZpnxN+H+rLq/hnV9Mku9Nu/KKH5dysrIwyro6MjKejKRQB6LRX8+/h/9t79ohf2P/D3xZX9qb4V+LPiFcX6xf8Kan8EwDUbsm/NssQktwHy8YEwwE+VsBs4z+zlt8ePCMv7SPif4TXVjrtn408PeDYvFGrRGBGt47VyF2JIH+eQMcY2gcdaAPbKK+OV/bf8AhJefDL4Ya/4d0D4neMdV8f2N3f8Ah3wxoPh4XWry21pK8U8zxCQIqqyNgeYWYA7QSCKrX37RNh4s/aT/AGRm8FeNfEGgeE/iMfEJm8PXnhFPN1c2Nsh8u4lmZZbFoJN7DYrebnGduGIB9n0V8NaT/wAFBfgdq2oeH3XRPixY+HdV8SHw4PE934UkXSLTUfN8tbaa5DFQ7cOAu7CkFtvIG/4k/bk+Cvhf4xa94Zv7P4hXOgaDr6aB4i8dWXhySXw3o+oswT7LcXgb5HVmVWwhVSRk80AfY1FfJfi79sz4U+EfjJ4q8INofxN8SReFb63svFuveH/C8t9pmhTz7fLS4kU7+dwBMaOAeCc8VL47/bG+FvgT4z+KvBL6F8TPGF54VW1bxdqHhbwzJqFnoAukDwG5dSG+ZSD+7V8dDggigD6vorxb49+N9W8HfsAfFn4ieDr6O21rSPBN/q2jXjQLIqSx2ryxOUcEMMhThhg9xX5a6L+1J+0f4d8G/s/eOYv2kvhD8etS8c6tpNtqvwp0rQbKLWrSO8i8yZf9FcyK8PKMzqiq20sD9wgH7Z0V8yah+1j8LtN+Fnx28YXFv4qOk/CXXG0fxSEsIzK86uiE248zEiZdeWK9+K8nuP2o38O/8FF/iDaeMPE8OjfAnQ/gnZeMxHcWCebBNNdIm8simV2ZHCCIE5ZgACSKAPvOivkXwX+2r8IPFTeKYtb034i/C690Pwm/iySz8ceG5NPmvtHTO6+tlBfzohjoPmJPCnBx03wk/ak8C/GHx/aeHdH8LfE/wxc6joo1rQ7rxN4aeztNZsSVAuLaYMyMCGBCsVfGTt4NAH0pXwn/AMFLv+UJfxq/7g//AKerCvuyvhP/AIKXf8oS/jV/3B//AE9WFAHbfsH/APJh/wAG/wDsStL/APSOKv0Cr8/f2D/+TD/g3/2JWl/+kcVfoFQAUUUUAFVrz/kGzf7tWarXn/INm/3aAPwY/wCCi/8Ayej+yb/2USH/ANKbOv2kr8W/+Ci//J6P7Jv/AGUSH/0ps6/aSgArn9avVgs356CtyV9kLMfSvHvHOuxWWk3MkkyRRohZ3ZgAoAyST6UAfmL/AMFCfiprdx4I8N/AfwKXvPHnxH1FNOjt4Xw62hkVHyR90SOyx5PGzzfSvtX4NfDDRvg1+zJ4P+G2hhGtdFsFimuFTabq4b555z7vIzt7Zx2r87v2TtPk/aL/AOCnPxU/ae1iJ7rwp4YlOheCPNBKBipXzFz0KwszkdmvMjpX6v1+gcK4D2dF15by29P+Cz8/4qx/tKyoRekd/X/gIKjliintZYJ445oZEKSRyKGV1IwQQeoI7VJRX1h8mfmP8TP2IvHvh/4w6jqn7LXj6T4X+EfHB/s/x1oCzFbe0t5CfMuLVfYFgIwVZC5COqMQv3n8Lvhp4U+DXwC8P/D3wbaPa6FpMBRGlbdLcSMS0k0jd3diWJ4HOAAAAPRaxNUvBDbNz0FcVDA0KE5TgrX/AA9O1+p218fXrwjCbvb8fXvY5vxFq621nIS+OPWvyrGj6n+3d/wUXTwHZTXSfs+/D67Fz4nvoHITU5wzKIkYd5CrxoQeEE0gPKivT/2zfjLreh+CtJ+GPgBbi/8AiX46uhpekW1oczRpIwjZ19HYuI0PHLFgfkNfd37LfwC0f9nL9kLw/wCAbMW9zrzj7b4k1GNf+P2/kUeYwPUogCxp0+RFJ5Jz+e8dcQOjD6vTer3LxGKWW4P2q/iT0j5d5fovM9/0+wsdK0Ky0vTLS30/TbO3S3tLW3jCRwRIoVEVRwqgAAAcACrdFFfjR+eN3CiiigQUUUUAFFFV5p1iQkmgCR5FRSSRXP6jrMVvG2XAxXJ+MPG+keGfC2oaxrOpWWl6XZQtNdXd1MI4oUUZLMx4AA9a/Jrxj8f/AIy/ta/E7Ufhr+zJHeeGfANvJ5Wv/EC7V4PkPURNjdGCPuqv75+D+7UMa7MPhZVLvZLd9D6bhzhbHZziY0cNBts+lv2gv24PAnwr1p/CPh6K5+I3xLlkEFv4c0V97Ryk4VJ5FDbGJ/5ZqGkPHygHNfNNp8Af2lf2o9Rj179pDxpe/DTwDK4lt/A2hHZM6ZyBIpLKh7hpjK4ORsSvqf4C/sr/AAz+Aujx3WkWX/CReOJUIv8AxTqcYa6lZvvCIciGM8/KvJH3mfGa+lq2li4UtKK17vf5dvzP7E4H8EcuyuMa2NXtKnbov68vvZ5H8LvgT8KPg3oi2nw+8G6Vo1yY9k+pMnnX1wO++d8uQTztyFHYCvXKKK8+c5Td5O7P3Chh6VCChSioxXRKyCiiipNgooooAKKKKACiiigAprKrxsjqrowwykZBHpTqKAPjn4u/sRfBr4mXUmt6FYS/C/xsr+bBrXhpBAnmg5DyW4wjHPO5Njk/x14JB8Vv2qv2QNQitPjDpVz8afhDFIEi8Xaa5e8tI84Blc/Nnn7s/VjhZjiv1BqKeCC6spra5hiuLaVCksUqBkdSMFSDwQRwQa7qWOmly1FzR8/0Z+f8VeG2TZ5TaqU1GfdL81/lZ+Zg/Bz9oH4ffGHwJFr3gbxJZ6zbDAuYAdlxaOR9yaI/MjdeowcZBI5r6HtNQjnjBDA5r8jfix+xrqnhvx+/xb/ZT1pvhv4/t8yT+HoZRHp2pDO4xoG+SPdj/VODCTjiPGa9G/Zt/bNt/G3jBvhf8VdLk+HPxlsJDb3Ok3qNDFfSKOTDv5V+/lMScHKlxnF1MNCceek7rquq/rufxzx74V5jw/UcuXmp9Gv6/rtbU/T8EEZFLXNaZq8dzCpDg10asGXINee1Y/JpRaeo6iiikIKKKKACiiigD5q/ar/Z20T9pP8AZS1TwZd/Z7LxRaZvfC+quvNleKp2hiOfKkHyOOeDuA3KuPiL9j343+INa0vWfhL8S47nTPiv4HmNhq1teH99cRRt5YlPPzOpGxyMgna2fnr9cq/Jf9vn4Va38MfjH4Y/bK+GFn/xMtImhsvHljCMLe2zYijuHx2KkQOecZhYAbCa+v4Rz2WBxShJ+7L+v6/4J9fw3j1UTwNV6S1i+0u3pL87H6M6ZerNbqd2cituvnn4SfETR/Hnws0DxVod19p0rVLNLi3Y43AMOVYdmU5UjsQRXv1vKJYQc5r+gKNRTimjqrU3CTTLFFFFamQV+a3/AAUH+HesaTongT9qDwFD5fjT4d6hENSaNebjT2lyu/HLLHIxUj+5PITwK/SmsjX9C0rxR4G1nw3rtnFqOi6rZS2V/ayD5ZoZUKOh9irEVx4/CRxWHlSfX8+h2YDGSwuIjVXT8upzvwG+KOkfEj4JeF/GeiT+ZpmsWMdzECwLRkj5o2/2kYMje6mvqq0mEtsDmvww/Yn1vVfgp+1j8W/2VPFN5K8vh7VH1Hw1LOcG4tHKkkdgGR4Jgo7ySehr9er74oeBfA3ha31Lxv4v8PeFbOU7IH1S/jgM78YSNWO6RySAFUFiTwK/IqkJQk4y3R+u05xnFSjsz2CivAv+FyeKPFI2fCj4Q+MPEsD/AOr1zxUG8M6T7HNyhvHU9Q0do6kchuRk/wCFe/F/xd8/xB+L0nhrTn+9oXw508aeCv8Aclv7jzbl/wDfgFqenA5zBZ6Z4x+IXgX4e6JHqPjnxf4c8J2krbIH1S/jgM79kjViDI5JACqCxJAArzP/AIXJ4o8U/u/hR8IfGPiaF/8AV654qVvDOk+xzcobx1PUNFaOpHIbkZ7Dwd8G/hl4C1uXWPDfhHTofEcq7bjX79nv9WuB6S31wz3Eg5P3pD1PrXptAHxj8XPD3xfl8AeENf8AiB8QdBjsofih4K2+FfCuhiKzYt4q0lQJ7q5aSecqTuDRC2BIXKkZB+6q4bxN4W8M+NPBN74Z8Y+HNC8WeG7zZ9s0rWbCK8tLjY6yJvilVkba6KwyDhlBHIFeTf8ADLf7Mv8A0bp8Cf8AwgdN/wDjFfJ8RcL/ANq1IT9ry8qttf8AVG1OryLY+kq+cf2ef+SE+Jf+yo+N/wD1LdXqP/hlv9mX/o3T4E/+EDpv/wAYr1nwz4W8M+C/BNl4Z8HeHNC8J+G7Pf8AY9K0awis7S33u0j7IolVF3O7McAZZiTyTRw7wv8A2VUnP2vNzK21v1YVKvP0Pznuf2cP2pvCH7aXx2+IPw20z9k3xR4d+IGuw6jDH8Ql1S4vLNYoiiqBBBsTO5iwDNnC817J4W+B/wAX7r9vb4QfG74gy/Cmxm8O/De98Oa3pnhSW7W3W5kuneE2cc0X+oEOwHe6sGyApGDX2jRX1hiflvH+xj8Z9F/Yq+H3hbQ9b+Gd38QPB3x7X4k2Md5fXa6ZeQRyyyR2zyrb+Ykh8xc4jI4IDd65jxj+wZ8R739o74papo+kfA7xZ4W+IfiMa9d6h4uvtW+1aBLM4kvYY7W2ZIrtCxYxF3QjAzt61+t9FAHxB4c+AOufC/44fth/Ei4ufDj+EfG3hHSLTw1aWcsrXdpHpmjy2sqzq8YVAzbSux3yB8208V8c/s0/Az46/G39h/8AY/0/xBrXwv074CeDvEEHjC3nskuh4gu5rW4uDFaSIV8lV3SSqZFcEqytjcpB/aQgMpVgCCMEHvTYoooYFihjSKJRhURQAPoBQB8B6V+yl8QLH9ir9sv4dS6t4KPiD4t+O/EGu+HblLq4+z21tqCxCBLpvI3JIpRtwjWRRnhmya8u+NX7GfxU8b+GfhTZWPh34I+NZPDXw5sPDsd9qWqajo2q6LqNtCE+1Wt/aR77i2DbnEMyAAsxC5Y4/VCigD8nPGP7DXxim8U/Czx2uveAPjZ440r4eR+FPFUHjvV9TsobqWOZ5or2K5tczSFPM8srJguqbj87fL95fA74TP8ACX9ivw/8NPs/haz1K2sp/tieH7eaDTluZ3kkk8lZXeQIGfGWOTgthc7R7jRQB+MukfsNftVt/wAE/dO/Zk1mX9kiz8ErIy3Xi23tNSvvEMaPftes0Zkt44y4ZygPy/IMZB+YfSHjX9mf45aF+2D/AMLA+CPiX4cXGmaz8K4PAmvv43e8a7tRCcJfQiBSJpNqplXZQWBz97cv6FUUAfkfqv7DPxWH7FvwC+HOpeHvgP8AFCTwVpd9aarY6pqOo6bLDPPeS3EdzYapbxLOoAeMPE6BCY84bt6z8Pv2T/jRoPjX9izXPG3xE0LxpffCV/Ez+J7q8v7qW4lTU4Ejtbe0eSItOkO3YWmaMhQNowAo/ReigD8xk/Yt+KCf8Ew9A+C39u+AP+EqsviwPFk12L26+xtaC9e42B/s+8zbGAwUC5H3sc1wutf8E/8AxyPj58RrPTtI+CXi74deM/G0viJ9b8V3eqnU9IhuJVlntFsrd0guCGH7t3cHqWI4A/XOigD8nfjn+xT8Z/Hn7U/ifxb4Gi+EPhrUb6/tpfDnxI03WNT0TxBoMEflh4p4LUGG+cImxZHYOQBll6C3+0P+xp8aviZ+0vr/AIv8Lx/CF9ZvobNdB+IqarqPh7xHoUkUaJI8y2SmK94T5C+GUBVBULX6r0UAeKfFL4ceJfHH/BPfxz8KLbXbPUvF2teBbnQk1nVN0MNxdyWhh+0TeWrlFZzvbarEZOAa+QvE37DM8P7JH7Ndh8NtC+EXhH45/DvVtBvtd8VWlu1gdUFnblL1PtcNsZpfOkw481PmxlsEkV+lFFAH5W/E/wDY/wD2j9WH7U/gj4d+Jfg1D8NPjDra6897r0l8mqWNxujeS3CxRNGI2dNvmfMQuSFycDqPiT+xB4v+J3jz4jtqfinwzpOgeI/glpXg21mt5Z5bmDU7G9t7tZXjMSqbYvbqCQ+8gn5BX6VUUAfmB8J/2N/iXolz4p1XxR4Z/Z38J6+PAlx4e0W60pdU10311NH5cs94t66xi0kXKtbrGchzyu3DXv2V/wBkz4vfB39reHxrqa/D/wCGXglNCmtNa8K+CPEup6hYeIr5yNt4ba7UJaBfvAISQflAVWNfpjRQAV8J/wDBS7/lCX8av+4P/wCnqwr7sr4T/wCCl3/KEv41f9wf/wBPVhQB237B/wDyYf8ABv8A7ErS/wD0jir9Aq/P39g//kw/4N/9iVpf/pHFX6BUAFFFFABVa8/5Bs3+7Vmq15/yDZv92gD8GP8Agov/AMno/sm/9lEh/wDSmzr9pK/Fv/gov/yej+yb/wBlEh/9KbOv2jJwCaAMjVrkQ2Tc9BX5Vf8ABQv4wXPgb9jjV9H0eaT/AISTxZONE05IcmTbKD57KBznywygjo0iV+lHi3URBYyndjivxg8RxP8AtG/8F9fB/hAg3ngn4UWf9saop+aNrsGOUD0OZWs0KntHJ71vhqEq1WNOO7djDE140aUqktkrn3j+zR8I7f4IfsVeBvh+Io11W2shc61IuP3t9N+8nOe4Vm2Kf7qL6V7vRRX7DSpRpwUI7LQ/HqtWVSbnLd6hRRRWhmQzyCOEk+leN+PvFNloXhTUtT1C7is7Czt3nuZ5DhYo0UszE+gAJr0nWbwQ2r89BX5Y/tseNtf8RL4O+AXgXNz4z+IWqxWIjRsbLcyKvzEfdV3Kgt02JLnivNzTGxw1CVR9D0Muw3tqqT0XXyXVm5+w54I1D4//ALa3jb9rrxnZy/8ACP6Tcvo/gCzuRkRsFIeYA/8APON8ZGQZZ5CMFK/YevOfhF8NNC+Dv7NXg34aeHFH9l6BpqWwl2bWuZeWlnYD+KSRnkPuxr0av5rzLGzxeIlVk9z5HO8x+u4uVRfCtIrtFbf5vzYUUUVwnkhRRRQAUUVDNKI4ySaAGXE6xREk14z8SviZ4d8A/DrV/E/ifV7bRtD0+Ay3d1O2FRegAA5ZiSAFAJJIABJFa3jjxnpfhvwlqWr6tqFrpul2Vu893dXEgSOGNASzMT0AAJr8freDxZ/wUB/abnu7uXVfD37MXhTUMKi7opNcuF7f77A5J/5ZRsBw75PdhsMpXnN2it3/AF1PteC+DsXn2OjQox9X2HQwfE3/AIKBfFmW7vJtZ+H37MOkX2I0X5LnXJEb8Qz+p5ji6De+Sf048GeCvC3w9+HGm+EvBmi2WgeH7CPZb2lsmAPVmJ5dyeWdiWY8kk1qaJomkeG/COnaDoOnWmkaLYW629lZWsYSKCNRhVVR0ArUqMTinU91K0Vsv66n998H8GYDh/CKjQiubrLq/wDgfn1CiiiuQ+wPhn/godfXun/8E6Ly4sLy6srj/hIbIebbytG2CXyMg5rH/bcv76y/4JG2N3Z3t3aXRn0nM0MzI/IGfmBzzXvH7Ufwf1H44/sa+I/AuiXlrZa+0sN5pb3RIheaFwwjcgEgMu5d3YsD0BFfGnjrwf8Atd/H34C+DvgX4r+EOi/DvR7C6s/7e8XzeIre5jnS3jKh0hjctz97apfLADKDJr18G4ONNtpcsm3ftp958FxBCvGtioxpyl7Wmoxsm1zXldNrRbp3dlY9p8U/tPa/4P8AiH8P/g74A8Cab408aTeDrPVbyTW/E0OkW+xol2xRPMMSzNjOMjGejYbb0uvftZSeFP2PbD4heKvhJ438MeN9Q13+wtM8EanG0FxeXpG5DHK8Y3W5XnzRH1yoBNeV/tHfB3xX4g+M+kre/s+aB8cPhra+HYtP0q60nWRo/iDS5UAAWScyASxZ3sF2FR5hPBB3eVN+yR8b9c/4JyaDoWv21tqnivw743bXNB8Ga1rIuQNMMSIdOe5VggYlS2FYKATypY7bhSwsowcrLvr/AMH9F6mFfHZ1SrV4U1KVk+X3dFa1vs6ve1pSv1ij61+Ff7SfiXxB+04Pg18XfhhJ8K/H93pJ1TRo4tai1G21CAbiyh4xhXUI5wC2fLfO0gAwftufFnxN8Jf2KJbzwbdyad4o8QazBoljfRNiW081JZHkjPZ9kLKG/hLgjkCvM/2ePg1rNl+1RbeOLz9mLwH8B/D2kWEi2csmvTaprE93IjxP5TpOIkh2O4O+InGNpO7Ke/8A7UvwRn+Pv7Jeo+C9NvrfTfEVtexanolxcMRCLmIOoWQgEhWSSRcgcFgcHGDhJUIYmHbS/b83+Z6VOWZ18mrq7dR83K7NSa6bxhruk+VdGfOl5+wzrfhf4e6T4i+FHxe8Z6T8crSWC4utc1bWZGsNQkyPOWSNY2bZy20MHyPlcMGJHs3xB+Nfxj8IeNPD/gbwp8FZfiL4oj8Oxal4m1w6r/ZWhWsuAskUN1cIEdt2SASpCsvB+YL4nqWt/t4fETwFo/wyf4eab8J9V82BNc+IkHiCFwYoyC0kMUTllZ9oyELZyVwgORR+K/wP+KupftzWut658Nbj9ov4ZxeGbXTvD1jqni9LC3069jjiWS6u0dsyFmWZ2IRt3mjqygVtbnkvbST36/rdfJXPPc1QpSeX0alNNxT91rvd8rjJ3W0pKLvdeq77/huXw5J/wT5Pxti8FX66k3ib/hGk0B9STyxf+X5w3XW0KIfK+bzCg54x3r0v4S/HTx/4t+IN54d+I3wfvfBVrHpLala+K9I1VdX0G6RSMx/a4k8uOQDJ2lyTtPTK5+S/AfwA+PPg3/gm34y+H938KfAfiXWp/iJJqtx4a1q6gltdV05reBN1pLFOPs8weH5S5Rgp6Z4rX/Z8/Z+8faR+1nr2t6f8N/EHwF+Dmo+GbjT9W8M6j4uXVjqFzKrIHjCklQmVIZ8kbDhiHKgqUMKoT5Wuttf+D+jFhMyzl18P7RS1UeZcttdbt+612v70WuidzrJv25vEz+FtS+J+l/ArV9R+AFjqwsJ/Ff8AbsMd46+asZnWzK7iu5gMZxkgF1OQPQfiR+1le6V8ffDXw3+FHgvSPHuu6r4dh19bnVvEsOj2sltMN0UcLzDEsrqQQARjI4OG2/G+g/srfEnwboM3w6l/ZZ+HXxI19NUb7D8SNX8TyRadJaNJndPaxzJLuVSRhSGAx8r7ct7n8ePgj4qv/H/hfTrz9nXwj8Z/hppnhO20nSpPDmrNomsaPLCioI/OkmZpLYEOURg4Ak5bIJfSVHCe0SVuvX7uv+Rz0sfnrw05TbT92/uu6d3zJfu9ttUqlu7vp9q/CD4haz8TPg8niHxD8PfFXwx1tLuS1u9D163dJEZNpDxuyJ5sTBhiQKASGH8Neo18ofsdfDr4m/DL9lW50D4mzXUF1LrM1xo2j3OprfS6RZFI1jt2mX5SQVdtqfKN3YkgfV9eRiIxjVko7H3eU1q1XB051k1JrW+jv5rT8l6LYK+Y/wBoz9mDwd8ffCcd27jwv8RdOTdonie0TE0TKdyxy4wZIt3I53IeVIyQ305RU0qs6clKLszbG4Ghi6MqNePNF7pn55/s8/tOeNvAXxrX9nj9pZX0jx9ausOh+IZ2/ca1GTiMNJwGdsfJL/y0+62JAQ36r6PrMdzboQ4OR618ZftE/s8+E/2hPg2+h6uE0vxNZBpfD+vRx5msJiOh7tE2AHTPOARhgpHz/wDsq/tDeMPD3xXvf2b/AI9O+n/E/Qm8nS9QuZMjWYFGV+c/6yTZhlf/AJaJyfmVs+hOEMRBzgrNbr9V5fkfxV4seFVTJqrxWFV6Uvw/r/grql+vCsHUEU6uY0fVI7m2Qhu1dMCGGRXmNWP5/lFp6i0UUUhBRRRQAVi+JPDujeLvh9rfhbxFYQ6poOr2MtlqFpKMrNDKhR1P1BPPatqimnZ3HGTi7o/EL9nqfXf2a/26/Hn7KXi+8nn02K6fU/BN9Ocfa7Zx5gC9svH85A4WSOcda/V3QtQWe1Q7s5FfFH/BSX4U6pP8JvCH7SHgeLyfHPw1vo5LuSNctPpzSg/NjlhFKQ2OmyWYniu6+G3x78AX/wAAPCvj3WPE+i+HdK1mzSWBb+9SNvMPDwKCcySK+5NqgkkcCv3TgnO1iMJyTesf6/r1P0iVX6/hYYmK956S/wAS/wA1qfZAOQDS14Xb/FnxL4mgEfw1+F3ijX4mHyax4lz4f0z6/v0a7cdwyWrKR0bkZn/4QX4o+KPm8c/FKTQbFvvaN4CsRYKR/ckvZzLcP/vw/Zz7ev3Ht0/gV/y+9/pc4fYNfG0vz+5frY9C8V+OvBngXSI77xl4p0HwzbSttgbUb1ITO3ZI1Y5kY8AKoJJPArz3/ha3iTxH8nw0+FvirxBC33NY8Sg+HtM+v79DduO4aO1ZSOQ3Iz1fhT4U/D3wVq8mqeHvC2nw67Ku2fW7wveanOPSS8nZ55Op+856n1r0Kjlqy3dvT/N/5BzUo7K/r/kv8z8bv23fA3xJ+Hvxb+GX7UuuaxpC3ttqMWh69b+DLa4sHtrRhIyj7S0zPK7I1xEZtkWN0QCjAr9RvgX4P+GGj2dl4q8JeHtJl1PULVJR4iuC17qN3E67lL3k5edwQc/M561mfHv4Y23xj/Y+8f8Aw5nWI3Gr6U66e8nSK7TEts59hKkZPtmvk3/gnV8UbvxJ+yTa+EtZeWLxF4LvX0W8gn4kWJOYcg9NqHysesRr8+4mwKo4lTW0vzW5+g8M4518M4S3j+XQ/YW3kElupzmp6wtGuhNYpznIrdr5s+kCiiigDx348+NvE/w+/ZvufEPg46EniSXxDoek2cus2Ut3aQ/2hrFlYPI8MU0LybEuWcKJUyyjJxmvG/8AhKP2mv8AoofwJ/8ADXal/wDL6tf9rDxn4Qs/gnovg268U+HrfxdqHj/wg9jokmoxC9uFTxNpTuyQ7t7KFUsSBgAVfrCrNxeh+j8EZDgMwoVZYinzNNW1a6eTRzP/AAlH7TX/AEUP4E/+Gu1L/wCX1eyfAbxt4n+IP7N9t4h8YnQn8SReIdc0m8l0ayltLSb+z9YvbBJEhlmmePelsrlTK+GY4OMVwNa37LP/ACaXc/8AZQfGP/qU6tRSm5PUON8hwGX0KUsPT5W276t9PNs9p13xd4T8L3WlQeJvE/h7w7NqlyLbTI9T1KK2a9mJAEUQkYeY5JHyrk8jiuhr8BP+ChnxB8FfE79vTxr4K13xrf8AhpfhR4BeXwiLKxu7k3niieW3uvK3W8brGDAkcRaQqquvUYO3658RftRfFT4g/Df9hu9+EPjDw14Qvfi817Y+I7zU9IjvoLa5gt40n2xllJaKcT7EDpvYIG4OK3Pzg/UKqGq6tpeheHL3WNb1Kw0fSLOIzXd9fXCwQQIOS7u5Cqo7kkCvx18R/tX/ALTHgzwL8Sfh5d+NvBevfEfwR8Z9A8LJ40bQooLLVbLUo7lylxbrlImRoAHMZVlDYzlSzaPxc+Jvxq0vwt+2d+zf8XfG3h74pppvwbm8U6T4k03QI9JktkkZIms5YI3ZR/rAy5YttXJY7sKAfrJp3jLwhq/ihND0nxX4b1TWn0yPU10+01OGW4azkIEdyI1YsYWJG2TG05GDXSV+OXhb406n8KPid4g8RWXhzw1qknhT9j3Rdcs2bSolvLidVt1SKW6VRM1vuIJj3bRgkYPNe5/Dn4kftDeF/h/4d+I3xU+P/wABvE3hPxN8MLnxa2j6rp39k3+jyiy+1xm2jtg73tnEMCVziTbkqCcAgH6NVgal4r8LaNNoser+JdA0qTWLwWWkreahFCb+4bOIYQzDzJDg4RcnjpX5MfCD9o/9o7xX+1b8P/hrrfxEvdV0f4meCNU1HS/EGp/DaDSYdPnitnmhutOjMglu7T5Vw1yieYGyP9nyT9njVfEfhf8A4Jxf8E+DdXnh3xHpXiH43SW+n2mpeHLaaTRYP7QvUkEEzhmErSrJKJhtdfM2g4UGgD94aK/GXVP2qP2mpP2QvHf7YenfETwdYfD3w548bR4vhJP4ahJuLJbyK1Ilvy3nrdEShyAAuAWAwQg9J+Inxp/aZ1r9o/8AbPsvh38TNA8C+Evg/wCFdI8SabYah4Rgvrm583Rjfy2bSMy7FkaOYM7B2U7Au0BsgH6l3FxBaWE91dTw21rDG0k00rhEjRRksxPAAAJJPSvO9G+M/wAHvEfiO20fw98V/hrrur3L7Lex07xPaXE8zHsqJIWY+wFeceGPHep/E/8A4JL6b8RNagtbbWfEfwvOpX8VspWJZ5tPLybASSF3E4BJIGOTX4RXfw71fTP+CMPww+Jmq/A74VeGPB1vqVhcXnxS0HUVbxd5P9pFDJHbsIlebPyBTKwwAeMblAP6bqK/Oi+/aP8AiKnxK/4KG2sGv2cGk/DDwFpus/D9J9NiR7Sa50O4vN77lzLumWI7ZMgZ24wcV5T4/wD2kv2mE+Bf7O2veHbvXIdD8Q/Cuz8ReLvEHgzwXaeItWi1GWNCWm055U8mw5BaVE4LMoIIFAH6pXXiXw5Y+N9K8M3viDRLPxJqcUkum6TPfRpd3iRjMjRRE75FQcsVBAHXFbdflDa/HLV/GX7UH7Hfiu31f4d+M73XPht4rvZ/E2m+HAjNcWlrKubdrlPPtvnjKyxAgFgykFcVzXw1/aN/akX4d/sd/Fnxp8RvCXibwt8WvGkXhfVPCsXhKK1a1WW4mhS7F0j7mlxEzFQqIMqNrckgH7B0V+Lem/tf/tV+K/iH4i+I/g3SPEOu+CtJ+I0ugnwJZeAYpdObToZRHI0mrmUTJf7WDeXs2ZIOMHZXYfE39qT9oHwN+2T4tPifxOPh18LtL8Zppui6iPAqaz4TvLHzEUrqGqW8jXNpetuH7sIAhb5gOCAD9dKytc17Q/DPha71zxJrOleH9EtVDXWoaldpbW8ALBQXkchVBYgDJ6kDvX5TfHb9p79oX4e/tc+PTeeI3+H3wq0PWLW20HWbXwEniHw1cQsIxMNXvoJWurOfcxCxxxg542nh6+kv+ChdxFd/8EUvjTdQSwzwTaXYSRyRPvR1bULQgq3cEHg96APp/wAN/FT4YeMtdOl+EPiP4C8V6mELm00fxBbXcwUdW2RuxwPXFd7X4NweDRpv7c37D/8Aaf7NGgfsqLP4jhubbxjoet2mov4meOCNxZSR2gXyhPwpaXJxMwHAfP0D4s/at+Mmjf8ABMr9tL4iw+JtNt/G/wAPfjXd+F/Cc0ml2+Lawj1HT4UiaIptlbypp/mcFj1z8vAB+pVn4i8P6j4v1jw/p+u6Nfa9pAiOq6bb3sclzYiVd8XnRAlo96/Mu4DcORkVs1+Mfjv43eIvgL+1d/wUl+K3hqxstR8T2em/D+GwF5GWt4prrT0gE0gBGVTzS2MgEhQeDXoXgf49ftd6NF8WdE1zTtR8cPbfDt9d8I+JPG3g638KLHqiyJH9jkjSfypIH8zdG7MpZlCFhkkAH6tV8J/8FLv+UJfxq/7g/wD6erCuH/ZF/aB+KXjb9qDVfh38W/GOtDXm8KDVR4V8YfDweHdWgnEyJJJZywM0F1YDcQrMwlbKnBCuT3H/AAUu/wCUJfxq/wC4P/6erCgDtv2D/wDkw/4N/wDYlaX/AOkcVfoFX5+/sH/8mH/Bv/sStL/9I4q/QKgAooooAKrXn/INm/3as1WvP+QbN/u0Afgx/wAFF/8Ak9H9k3/sokP/AKU2dfs5dP5doxzjivxj/wCCi/8Ayej+yb/2USH/ANKbOv2J1m48qwfnHFAHzx8ZPGVh4U+GfiHxFqc3k6bpVhNeXT5+7HEjOx/JTX58f8E2vC2oaj8I/ij8efEMX/E/+IfimaSORuc28DuWKk9AZ5Z1IH/PJfTja/4KR/ECTw9+xDq2iWkrjUfE2pQaTAsfLlSxlkwB2KRMh/3/AHr7B+CPgKP4X/sifDnwAkSQzaLoFvb3YXo1zsDTv/wKVpG/GvqOFMNz4p1H9lfi/wDgXPl+K8TyYVU19p/gv+DY9Sooor9EPzsKjlbbCTUlZmpTiK0bnHFDYHnHjHVlt7CYlwoAJJJr8/f2KtAf4+f8FPvij+0pqkZufCnhDOheDi4yhmdWQyJ/uwmRyOxu1I6V3n7afxQbwF+yF4ru7W4MWq6mn9laeQ2CJJwVZgexWMSOPdRX1j+xn8Ih8Fv+CdXw88KXVt9m1+8s/wC19dBXD/a7oCVkb/ajQxw/SIV+V+IOaOFJUIvf+v69Ttx1f6plk5L4qnur03l+i+Z9R0UUV+Pn58FFFFABRRRQAjNtXNcbr+rLa2kh3YwK3dSu1gtmJOOK/OH9tf8AaBvPhj8EV0Twq81x8RfFUp03w7b2wLzIzYV51UckpvUKO7unBGa6cNQlUmorqelleX1MZiI0oK7bsfOvx68X+KP2sv2xov2ZvhtqMtn4G0mcXHj/AF+E7kURuN0QPRgjYUL/ABzYzhYy1fo74J8F+G/h58K9E8GeEdNh0nw/pVsILS3jHYclmP8AE7ElmY8sxJPJrw79lT4CWvwG/Zms9MvY4p/Hes7b7xTfZ3s9wRkQhu6RBio5wWLt/Ga+mq1xldStTh8K/F9z/Qrw44Jo8PZbGPL+8kryfX0/z89NkgooorhP0QKKKKACiiigAoqF50QckVmT6rFEDlwKaTZLklubNJuHqK871rx1ouh6bJe6vq2n6VZr964vLlYYx9WYgV4pq/7WXwL0i4MV38U/B0jjqLTUFucf9+t3NbQw857K5xV80wtD+JNR9WkfV+4etGR6j86+MIv20f2fpZyi/EzRw2er286D8zGBXofh79oz4R+JZoo9F+JXgq/nkICW6axCsx/7Zswb9KqWEqx3i/uMKWeYGo7QrRb8pL/M+jaK5S18QQTKpWVSDyDmtuG/ilHDA1g4tHpxqRlszQopiurDINPqSwooooAKKKKACvkL9rX9nRvjL8MrPxV4Nb+yfjD4V/0vw5qUD+VLcbG8z7Kz8Yyw3RsT8j9wGfP17RWtGtKlNTjujizHL6GOw08PXjeMlZ/13R8r/sd/tJt8X/hG9l4iA034i+HpRZeJNOdPLfzBlROEPKhyrZXHyurLjABP6FadeLPbKd2civxe/ai8Jat+zp+1z4e/aw+HljKdAvrtbH4g6XbfKkokIHnEdB5uBknAEyRsclzX6gfDLx1pXi7wBoviDRb6O/0nUrSO6s7hDxJG6hlPtweh5HSuzF0oySqw2f4Psf58+JXBVXIMznSt7j1T8v6/y6Hu9FQwSCSEEGuX8XeP/BHgHSYr7xr4s8P+F7eZttudSvkha4bskSsd0jnoFUEk9BXnqLbsj80hCU3aKuzrqK8M/wCFteKPE3yfDD4T+K9fhb/V614q3eHNM9j+/Rrxx3DJaMpHRuRk/wCEA+Kviv5/HvxXm0Gwf72ifD+xGnKR/ckvpzLcv/vw/Zj7Dvp7K3xOx0/VXH+JJR/P7le3zsei+LvH3gjwDpEV9418WeH/AAvbStttzqV8kLXDf3I1Y7pHPQKoJJPArzr/AIW14n8Tfu/hh8KPFfiCFv8AV614pDeHNL9j/pCNeOO4aO0ZSOjcjPXeEfhL8OfA2ry6p4b8Kadb69Mu241y7L3uqXA9Jbydnnk7/ec9TXotF4LZX9f6/UOehD4YuXrovuX/AMkfPWsfCr4h/Erwnqei/Fb4kxWfhnU7WS1v/DPgjS0tILiCRSjwz3dz508qlSQWiFvnOMdc/ld+yTott8Ff21vjH8AvEul6Y3i3w3qbT6RrMlnGLu7sWKgfvMbgjI8Eqrn/AJbPX7rV+P37fuhP8IP28/gb+07psZg0m9nHh3xW6DCkAMUdv7zNA8wGf+fZK+m4UzR4fHx5tmfT8MY+VSrPCy0U1pZJe8tVt3V19x+k2h3gmtEOe1dPXkHgvVVuNOhZZA6lQQQcgivW4m3Qg1/QtKV4m1WPLIkooprukULySOscaKWd2OAoHUk9hWhmOr8lvC0Z+A3/AAcDfETwZ/x5+GPidYDXNLT7qvcHfOx9ABIt+oHuv0r9B7347fDsarPpnhm/1H4j61C+ySw8GWEmrNE/9yWaEGCA/wDXaSMe9fm1+3zN8SLTU/gx+0LJ4Cj+Hq+E/EK2UUt3q0V9qUolInjFxb24aFIl8iRcLcvuMxU7cgn5niSEK+Ebi7uLvpr6n03Dc50MWlJWUlbXT00P258IagJtPi+bORWX4k+O/wAK/DPiaXw9N4qh1/xZH9/w54ZtZtZ1VT0G60s0klQE/wATqqjByQASPmD4d/C7R/G2g2N/8QPHHjb4mWdzEssdjcaobDSXVhkD7HZiKOaMg8C487r1Nfa/hLwv4X8IeDbfRfCHhzQfC2jRf6qw0jT47SBPokahR+VfnJ+jHlP/AAm/xu8W/L4K+E1j4H05/u6v8RNWRJsf349PsTK7j/Zmnt29QOlJ/wAKa8TeJvn+Kfxh8ceKIm/1mjeGHPhnSvcAWrm8ZT0Ky3cikcEcnPvtFAHyt8W/gpo2h/sj32i/Bb4WaP8A20virw7q02maDDZ2V3qaWWu2F7cFpp5Ikkl8q3lYGaUbiAN2TXHf218Wv+jZfjF/4OvC3/y5r7aoqJQUtz3so4jxmWwlCg1aWrurnxL/AG18Wv8Ao2X4xf8Ag68Lf/LmvZv2cfDnifwv+yxb6f4w8P3nhXXbnxT4i1WTSbu5t55raK+13UL2BZHt5ZYi5huIiQkjAEkZyDXulFEYKOwZvxHjMyhGFdq0dVZWPOfAnwl+H3w017xxqvgvw/8A2TqXjHW5Na8SXMl9cXUl/eSZ3SFppHKrycRptRcnaozXx58Rv2EvAur+Nv2fvD3gTwtoelfBvwn4l1jVvFGg3muXxkk+3W8aA2jFneNhLGHASSIIRuTBr9CaKs8E/P74u/sO+DL39kTwl8Jfgt4W8M6DoUXxM07xN4mh1rULmZtUgiMgufMmk82SWRkcKFYhcZGVFe2+Ff2Q/wBnnwZ8NviJ4T0H4frDo/jq2Nr4pNxrN7cXOoQYIEJuZJmmRACQAjrjr15r6UooA8Z039nv4O6T4vutctPBVq2oXXgmLwVcm6vbi5in0WIBUs3ilkaNlwoBcqXYfeY5NcN4D/Y1/Zx+G9x4jk8M/DuLOtaLNol2up6teagsenTAiWzhFxK/kwtk5CbSc8npX0/RQB80eBf2Qf2fPhv8S/CnjLwl4JvrPxT4ahnt9E1K58S6ldyWkE0Rha3AmuGVoBGSqRMCiZYqAzMS/wAN/sifs+eEtM8N2OgeBJrGw8PeLR4q0K0/t/UHh07UwMCaJGnIVOp8rHlZJOzNfSlFAHyvqP7FP7M2q/tBzfEy++GVpN4kn1Yavcw/2ldLp1xfA5+1SWQl+ztJkkkmPBLEkEkmvT5/gb8LbnxV8X9bn8L79U+KOlw6Z46m/tK6H9q20Nq9nHHtEuIcQSOm6EIxzkksAa9ZooA43Q/h/wCEfDfwG0/4Y6LpH2LwPY6MNHtdN+1Sv5dmI/KEXms5kPycbixbvnPNfMeif8E9v2PdA8Q6bqdh8GrSeewmWa1h1HxDql9bK4OQTBcXLxMPZlI9q+zqKAPmz4j/ALIf7O/xZ+Md94+8ffDq31vxRfaaNP1C6TVby1S9gC7EE0cMyJIyDG12Usu1CCCiFa/iv9j39n/xfovgez1DwdqGnv4Q0GPQdAvdI8RX9jeW+mxjato1xFMsksQGeJGY/MxzliT9N0UAeFaX+zR8D9Eu/h/NpHgK00xvBGjXukeGFtr+6jSxtb1WW6TYJdsjSB3LSSBn3MW3Bjmn2n7NnwVsfhl8LPB1r4M8rw58ONbj1rwZZ/2ven+zLyN3kSXeZt82Gkc7ZS6nPIwBXuVFAHzJefsdfs6X/wC0M/xPuvh1bv4mk1gazNENTu106bUAci8eyEv2d5s87jGck7jk81U8QfsXfs4eKPjHq3jfWfAMtxqWraouq6zYR63exaZqd4rBxcXFkkwglfcNx3IQxyWBJOfqaigD5c8ZfsZfs6+Pvi/rPjbxL4FuLjVdauIrnXra1129tbDV5YiCj3VpFMsMzAqCdyfMeWzk17V8QPht4J+KXwP1j4b+OtDTWvBWqQxw32mJcy2qyJHIkiKHhdHQBo0PysOmOmRXc0UAeXeKvgv8NfGs3w4k8S+HG1CXwFqcOpeE3TUrmBtOuIVVY3BikUyABVBWTcrY5BryDxh+w9+y549+I3i/xV4r+FtvqWseJ5hPrhj1u/tobmcMG88RRTqiTEjmRFVjufJ+d931hRQB4ze/s9/BzUte+Kepal4HsdSuviPY2Vl40F5dTzRapDZQ+TaqY3kKRGNMYaJUbIDElgDXF+EP2PP2dfBPg7xloWk/D2K+sfFWmDS9cbWtUu9SmuLJcFLZZbiV3jiUhSqxlcFEb7yqR9NUUAfPnwo/Zc+CvwW8dz+KPAnhrUYfEb6aNMi1HVtdvNTmtbIOHFtCbmV/Ki3AHamM4Gc14t/wUu/5Ql/Gr/uD/wDp6sK+7K+E/wDgpd/yhL+NX/cH/wDT1YUAdt+wf/yYf8G/+xK0v/0jir9Aq/P39g//AJMP+Df/AGJWl/8ApHFX6BUAFFFFABVa8/5Bs3+7Vmq15/yDZv8AdoA/Bf8A4KL/APJ6H7Jv/ZRIf/Smzr9avFd35VjLzjg1+Sn/AAUYOP2zv2Tj/wBVDh/9KbOv1A8dXvl6fPz2NAH5BftFJ/wtr/gtB+zV8IWP2jS9Num8QanCOVdEZpmR/wDgFky/SX3FfrPX5Tfs1wn4j/8ABd/9oH4hSDz9O8H6SNEtCf8AljOzRwcH3+z3fH+0a/Vmv0XhShyYRz/mf5af5n51xXX58Wofyr89f8gooor6c+YDtXF+JLzyrKTnt612ErbYWNeQeNb/AMqwm5xwazqytE1pRvI/NP4x6c3x1/4K2fAP4FBftehWl9/bviOLqjQRlpXR/Q+TbyKPecetfuHX4+/sFaWfiR/wU6/aS+ONwvnWOkhPDujysMqweTBdPQiOzTPtP7mv2Cr+deLca8RmE+y/r/I4eLa3+0U8OtqcV971f6fcFFFFfMnygUUUUAFMkbbETT6yNVuRDZsc9qaV2NK7PPvGmuw2Gk3M008cMUaFnd2AVQBkknsAK/Jb9n7T5/2n/wDgpV4v/aF1xJLn4f8Agi4/szwXBKp8uWcZKSgHuqsZznkPNFz8leyft9fFi98LfswT+E9CaaXxT4zuho1hDBzIY3/15Ud8qRHxzmVa+g/gF8LLT4M/sleDfAECQ/brKyEmqzR8+feSfPO+e43kqueiqo7V6afsMO5dZaL06/5H9NeAfB8cTjHj6sfdp7evT8fy8z2KiiivLP7FCiiigAoopjuEUkmgBWcKMk1jXupxwISWArP1XV0toXJYDj1r89vHHxt+Jvxu/aG/4UH+ynpq+JPF8u4az4nBH2LSIgQryeaQUULnBlORkhUDuQB00cO53bdkt29keFnWfYbLaPtKr9F1b7I9w+NX7U/w3+D1k8Ovas2oeIHXNvoWm7ZbyTPQsuQI1P8AecjPbJ4ryfwr4N/b6/anC3/hDw3p/wCzp8NrkAw6v4k3R3tzEf4o1aNpmyMFWSKNDniQ9a++P2W/+CeXwq+Aslp428aiP4t/GuR/tN34n1mMzRWc55JtInztIP8Ay2fMpOSCgOwfoRXkYviKjRfLho8z/mf6L/P7j8Yzbi/MMdJqMvZw7Lf5vf7rH5G+EP8AgkV8L5r+DWfjf8Wvif8AF/xBjM/+lixtZCeSDu82cj3Eq/TsPqDw/wD8E8P2M/DVoIrL4FeHL04+aTVr27v2Y+v7+Z8fhgV9pUV4NfO8fVfvVX8nZfcrI+WcU3d6s+Wp/wBiP9ki4thFJ+z38L1UDAMWjJG3/fS4P615F4v/AOCYH7Gfiu2n8j4ZXvhG9lB/0zQPEF5Cye6xySPCP+/dfoFRWVPNMZB3jVkvmxOEX0PxY8R/8Euvin8NS+p/st/tJeINMMWTF4d8YjdbSY5AMsKGInsA1tj/AGhXhV5+0F8e/wBnTxja+GP2s/hFrOgWkk3k23jDRYfOsLr0IZC0Uhx8xEbhwOsQPFf0OVieJPDXh3xj4I1Hw14s0PSfEvh7UIjFe6bqdolxb3CH+F0cFWH1FexhuJ622Iiprvs/vX6nq5fnOOwMk6FRpdnqvuf6H5r+BPid4W8eeD7XXvCmu6dr2kzj5Lm0lDAHurDqrDurAEdwK9St7tJUBznNfHnx8/4J9+O/gb4w1H40/sT318kEamfXfhpdTPcJcxrlmFruOZhjOIXPmDny3JKpTf2ef2lvDvxi8LyQhW0Hxnp42azoFy2JrZwdpZc4Lx7uM4yp4YA4z9DD2OIpe1oSvHr3Xqv12P1zhrjSlj2qNVctTt0fp/lv6n2kDkZFFZdnerNECGzmtMHIyKwasfeJpoWiiuW8UeN/B/gnTYrvxd4m0Tw7DK22D7feJE07f3Y1J3SMeyqCT6UJNuyJnUjCLlJ2R1NFeN/8LN8SeIfk+Hfwz8S6zC33NX8S50HT/riZGu2HcFLYqR/FyKX/AIQj4k+Jfm8a/EybRrJvvaR4IsxYIR/dkvJjJcP/AL8Rtz7eunsrfE7HN9cUv4cXL8F97sn8rmr8Wrn4aT/BfXPDHxS1zQ9K8Oa9ZyWMsV/eJE84cYxCGO5pQSCu0FgwBAzX5wfsg/Ffx58NviD4r/Zut9DfxPquk3st34XuNcuJdFhaxZtxd1liadUcPHMirCzFZXPAANfpl4X+GXgPwbqcmo+H/DNhb6zKu2fV7nddajOP+ml3MXmk/wCBOepr4Q/bn8Oah8PPit8Kf2pPCtsx1Hw3qcem+Ilh4NxauWMe4+hDTQknn99GO1ehgZwbdHfm2v36f5bn5Z4scKzzbKJVpRjz09UtXp66bb7KyufoXo3hD4neMrVG8cfFi60LTnHzaL4Cshpykf3JL2Yy3L/78Jtj049fUvCPwm+HPgbVpdU8N+FNNttdmXbca3dl7zVLgekt5Ozzyd/vyHqfWuF+GPi2w8R+CdH1nTLlbrTtQtIrq1mU8SRyKHRvxBBr3mBxJADXFWlNO2x/BuLq1oycG7LstPvtv8yaiiiuc4AoornvE3i7wr4L8NvrPjDxLoHhXSUOGvdX1CO1hB9N8jAZ9qaTb0KjFydkrs6GvlH9tv4Yf8LY/wCCZ/xO0G3t/tGsadp/9t6SAuX8+z/fbV/2njWWIf8AXSu7/wCF2jX/AN38Mfh54++Iu7hNSGn/ANk6UP8Aa+13xiEqf7Vuk30POGSeHfjr4xt5I/EnjPwl8MNImUrLp3hHTxqt/tIwQb6+jEPTjAsv+BV0UlKnNSbtb+vU9DCQq4avCq2ouLT1308ld/gfEf7IfxVsvEf7EnhDxBreqWlk2m2f2DVLm7uFjSN7c+Xvd2IA3KqPk/36+pbP47+F9Vg8j4f6P4s+K910V/C2neZYk/8AYQnaKz/ATE+1flv+zF8PPCvgX9ub45fBrxVoOna9e+EfETzeH5dWt1uGW38xkEyqw2o7R/Zm3KAfnxnAr9lfDtwrafEq4ChQAAOAK/orIsVPE4WEk9LfP+vvPvs1hRhWcoq6eq7Weq/rQ8/2fHrxT9+XwL8JdMftEH1/VCv+83k28D/8BuF+ueHJ8CPB2ozpc+P77xN8WbwMGP8Awl+o/abPI5yLCNY7JTnuIAenPFe1UV7X1eD+LX1/y2/A8r6xNfDp6f57/iVbKxstM0mCw02ztdPsYE2Q29tEscca+iqoAA9hXzj+2L4FT4h/8E1fi3oYh867ttEfVbMAZbzbMi6UL7sIin0cjvX0xVa8tLbUNJurC8iWe0uYWhnibo6MCrKfYgkVVeiqlKVN7NWFQrOnVjUW6dz43/YP8ev4u/YP+HN5PP5l5Z2H9mXGTlgbZ2gXPuURG/4FX6baTN5livOeK/DT/gnjd3Xg7X/jX8G7+V2vPB3jSWL5+uGLwH8N1ox/4F71+2fhm5ElhHyOlfjMouLaZ+yxkpJNHX0UV5P4p+OPws8IeJ38P6l4ttdS8VqM/wDCN6Dby6tq5/7crRZJwM8ZKAe9IZxH7V2m6drX7HqaPrGn2WraRfePvB9tfWN5As0FzDJ4o0pXjkRgVdGUlSpBBBINcJ/wzZ+zr/0QL4K/+EPp/wD8ZrM+OXjzx54t+C+hBPhHrnhHwWfiL4OM+r+KdUt7W9k/4qjSthgsYDM5BbaD57wMo3HaSAp99r4/iapONWHK7aH454m4mtSxNBQm17r2bXU8V/4Zs/Z1/wCiBfBX/wAIfT//AIzXd/so6bp2jfsevo+j6fZaTpFj4+8YW1jY2cCwwW0MfijVVSONFAVEVQFCgAAAAV19c7+zJ/ybBqX/AGUfxn/6lWrUuGas5VZ8zvoHhlia1XFVlObfurdt9TN+G37Svhnxz8R/jjomt2lh4Esfhx4wXw3Nqmq6zGsOoStkI4LKgjLEABCWJJ4Ndl4v+PPwu8JfAD4hfEVPGHhzxLo/g2wnudXg0XWLW4mWSNGYWwHmBVncrsRGZSzECvyb+Kfwe+J2t/BD9uPS4fhn8Qb5vEnx10q+0iG38P3TPqdkt0DJcW4VMywquSZEyoHOa9P+KP7OD2X7a/7Umi/Dn4KjT/Amu/sy3VtpMOk+GPJ0m811Jh9njiKoITersRlCnzAQG6819ifsZ+ivhr49fCvxB+zJ4J+LN5408MeE/CfifT7a6spte1q1tfKkmiWT7LI5k2C4TJR4wxIZWHau21Hx74G0i10qfVvGnhPTIdUtJbvTJLvV4IlvYIoxLJLEWYeZGiEOzLkKpBJA5r8N/EHw28WN4d/ZG8Y3fwo8f6X8NtA+E3/CM63pR+EK67caV4gjG28uZ9HuFGRdMFAuSuWKhickV6D4N/Zg1TUfFf7AHg/xl8O/iT4l+GOnXnjG91uw8W+H9n9i288MM9nb6gkLSxW6STR5SKV8tu2EZBUAH6A6N+1f4c8Vf8FJLn4AeENJ0vxDYadoY1LWfF0Xii0WCBmiaRIYbfJe5OAA5Rv3eSWGFyfoHwx8RPh/43vL238GeOvB3i64szi8i0XWre8a3OcfOInYrzxzivzU8TfBzVvDv7cH7a/iLwd8BLXW7Cb4T2Vt4QtjoElrYapcPZvHdW9tNCELSOrMsiQyLI+dpILZr5l+F/wl+Ll7+0bbX3gbwD488Iy6v8Adb8P22qH4Yt4S07T9YktXMVpuVN7bJSgW7upC8rjKs23kA/cjQviB4D8U+JdS0Xwz428I+ItY05ymoWOmaxBcz2jA4IljjcshBOCGApuh/ELwD4m8Y6p4d8N+OPB/iDxBphI1LTNN1mC5urPDBT5sSOWjwSAdwHJxX5HfBH4f6ZrXwv8AAHgrwH+yZ4++Gvx38MfC3WNJ1f4matZ3HhuHTNWl0+S2ViygLqjTzvvXzCfJVw69Djiv2R/gr4msv2nv2eFvPBHxa8DeMfAUd6PElwfhZa6Lp0CtG0csN1qvmK+oifP7sgSMN5I2ruIAP1z+P3xl0X4Afsk+MPivrtlJqtroluhh06KcRSX08sqRRQqxBwWd1BODgZODisr9nv486D8fv2Q9J+LFrp7+EopZLqDV9Kv7oNJpM9tK6SxyuVUDAUPkgfK4yBXzB+254T+Mnxh+Pf7P3we+F3haG60e11tvGHiHXPEWm3h8No9iCbS0u54F5ErecDCrBzmM8A7h8g618G/2rND+Bv7b3wHn8Hfa9Q8cJa+OtFv/AATp18vh+5nkvYW1TT7WeZeJpIQALcsWYRMoBDCgD9PYf2nvBerftxeAPg54Ql0XxtZeJ9Bv9TXxPouvQ3VravaHD25WMMGc8Z+cbcjIr2TRPiR8O/E3ivUdB8N+PfBfiDXLAsL7TtN1u3ubm12nDeZGjlkweuQMV+RHgXwumpf8FHfA/wAQ/gn+yV8RfhZ4TsPhBrGm3MGteFJdDt9S1VbWTy4JXj+6zFo4ftDlXkbdgny81518A/hz4/sv25f2T/F0fwh8b+DtN0iDXbXxZHZ/CeXQdN0GWawmRLZ7kq9xdrvbBubmRkywCEHzBQB+2ul/FL4Za54g0rSdF+IvgTWNV1OF5tNsrHX7aaa8jQsrvEiuWkVSrAlQQCpz0NecfCz9pf4YfFrxP8V9M8P6tb2X/CAa1Np2q3N7fWwhuI4gC15CyStm15x5jbRkGvxA+BngeLx/+wj+yx4a+GP7Pvjez+NSfEddaufizD4dEenpp9vqNwJZn1NTkrGFji8hsYaAkDLJ5nsnxC+BfxBl+Fn7b3gDwR8HPFOna7ffEuDxDppsPC7QW2u+HVnhc2dncBRHNhgsv2ZGOfLICluKAP2k0/4n/DXV/h5qHi/SviH4G1PwnYvsvtatNetpbK2bIG2SdXKIcsowSOo9afd/Ev4c2HhLU9fvvH/gmy0LTbw2WoalPrlultaXAVWMMshfakgVlYoxBwwOORX4kXPwZ8Ua7+yr+1r4k+H/AIJ+MTR674L03SYtDl+E0Pha31e7ivraRWtNNtmMkksMaSq7rEFO9uSc175+0d8AvDXg39mL9m2z8FfDvx74Vj0K6l1C81nwj4Ig8SQ6bqEtlbxyXGraRKpa8aXygplOWQoc8lVIB+sGkaxpGv8Ah211jQtU07W9JuV3W17YXKTwTLkjKOhKsMgjIPatGvin9grT/F+mfsQXtr4w+G9l8NZv+Esv202C30SXR/7VtT5ZTUHsJGJtGlbf+6AVQEBVQGGftagAooooAKKKKACiiigAr4T/AOCl3/KEv41f9wf/ANPVhX3ZXwn/AMFLv+UJfxq/7g//AKerCgDtv2D/APkw/wCDf/YlaX/6RxV+gVfn7+wf/wAmH/Bv/sStL/8ASOKv0CoAKKKKACq15/yDZv8AdqzVa8/5Bs3+7QB+Cv8AwUaOP2yv2UP+yhRf+lFpX6H/ABO1OOz0O9uJ5FihiiZ5HPRVAySa/O3/AIKOn/jMb9lL/soEX/pRaV9Q/ta+IToX7IHxS1RZCktv4YvjEwOP3hgcJ/48RQB8pf8ABMexl1X4NfGr4oXUbLd+K/HUgZmHzOsUYmz7jdeSD6g1+nVfFP8AwT00IaJ/wSh+HMrRiO41Sa/v5uOu69mRD+Mccdfa1frWT0vZ4KkvK/36n5LnFX2mNqvzt92gUUUV6R5pTvX2Wbc44r5K+Pfi9fCXwO8YeJC4U6ZpFxdJnuyRsyj6kgD8a+qNYl2WTfSvzF/bx8SHSv2KPFUCSbJ9Snt7KPnrumRnH/fCPXm5pW9nQlLsmelldH2leMe7R7v/AMEwvBbeGf8Agl7p2v3EbC88XeIL7Vnd/vsiuLRM98f6MWH+/nvX6IV4v+zl4V/4Qn9gf4OeF2j8q4sPB+nrdLjH79rdHm/ORnNe0V/MuLqe0rSl3Z8Vm+J+sY6rU7yf3X0/AKKKK5zzgooooAQnCk1574s1AQ2EvzdvWu9nfZbMfavnf4p+I7XQ/B2r6rey+VZWVrJcTv8A3URSzH8ADWtKN5HThabnUSR+Z8kR+PP/AAXo0jTZibzwl8KtN/tCZesbXgKOpz/eE0sGR3+zt9a/Uavzl/4J26Hd6p8MPit8ZtYixrHjbxXKQ7ckxRFpCVPoZbiVf+2Y9BX6NV15jL97yLaKt/n+J/or4X5JHLeH6MLay1f6f5/MKKKK88/QgooooARjhSTXN6tqS28DHcBxWteziKBiTjivjP8Aag+NUPwn/Z+1fXonjk1uc/Y9GgbnzLlwdpI7qgDOfULjqRW9Ci6k1FdTzszx9PCUJVZuySueQfGnxz8Q/jb+0vpn7K3wF/f+MNaBHiTWFkKw6RaYzLvcZ2AIcuw5wyooLuAP2U/Zm/Zn+Hn7L37O1l4H8EWcdxqUqJL4g8QTQhbvWLkDmWQ87UGSEjBKopxySzN89/8ABO39lx/gT+yr/wAJ343s5ZvjV4/RdT8R3V4C1zZwSHzIbMk8qw3eZKOplYg58tcfodXzuf5r7WX1ei/cj/5M+/p2+8/nTNc0rZhiXXq/Jdl2/wAwooor5o88KKKKACiiigAoorifGvxJ8AfDnSYL3x34y8N+E4J22Wo1O/jhkun7JChO6VyeAqAsT0FVGEpO0VdgdtX5M/t3fsY6tf6+/wC1J+zfaDRPjNoO698QaRYRYXxHAozJIIxw1yFzuX/luuRy4Xd9yf8AC5PGPiv938J/g34v1+3f/V694yLeF9K9jtuI2vnHcFLMqR0bkUf8K3+LvjD5/iN8ZLrQdPf72g/DfTxpUZX+5Lfzma7c/wC3A1qfYd/UwFatgqyqKSj3T1uuqaX62EpNNOLs1s+x+XXwV/ao8AeNfgJp/ivXPEGi+Fb5X+zalp15eqskVyAMpGpO6QNkFNoJIOMZBA90tvil4k8RxiP4efDXxDrMTfc1bxIx0LT/AK4lRrph3BW2KkfxcivkL9qz4Jad+w7/AMFAvBfxu8A6ZfR/BDxm39meIIJria9fS70jdI3nTM8jGQL56lmZmKXC5AIr7l8K63Df6XbzQTJNDIgeN0bKsCMggjqCK+4nKhUpxrUleMu/Tun5r1P2zhLPa2ZUOWc+WUdHZavs9brX0MP/AIQj4keJfm8bfEyfR7JvvaR4Isxp6Ef3ZLuUyXDf78Rtz7V1Hhf4ZeA/BupS6h4f8M6fbazKu2fV7jddajcD/ppdzF5pP+BOepruI23Rg0+uV1ZNWPt4YOjFqVrvu9X8r7fIKKKKzOoK86+LngCy+Kf7NHjb4f3wjEet6VLbwyOMiGfG6GX/AIBKqP8A8Br0WvPvEvxU+H3hLWhpOs+J7H+3mGY9FsFe+1KQeqWkCvM3boh61dPm5k47o58X7F0pRrNKLVnfTc+Pf+Ce3xCvtU/Zjl8Fa00kWveDdUl0q4glP7xIs74w3pty8Y/65V+sOj3AmsU5B4r8H/Bmu+KPh/8A8FnfiZovg7w1/Y1t8RLf+19NtPFhk08hjmZ52iRHc/P9s2xnYSDyU6V+p/hn4feM/FllGfiB8XPE01m4G/R/Bkf/AAj9mR6GZGe9J7ZW5QHk7Rxj08fSi5897J6/ef508eZHHA5tWpylZXfq/Rflex7r4w+JPgHwBBA3jPxh4f8ADklxxa297eolxdH+7DDnzJW/2UUn2rgv+Fs+LPEnyfDT4Q+Ltahb/V6x4sP/AAjenexKzo16R3ytoQR35Fdt4P8Ahd8O/AU09x4Q8H6FouoXA/0vUYrYPe3XvNcvmWU+7uxrva87mgtlf1/r9T4jnoQ+GPN66L7l/meGf8IP8X/FPzeNfivH4WsH+9pHw/0pLVsf3JL6786V/wDfhS3b6c56Hwz8Fvhl4U8SJr2n+FrXUfFCj/kYdcnl1XVf/Ay6aSYDPOA4HtXqVFJ1ZbbEyxdVqydl2Wn323+YUUUVmcx+Mnx8sT8NP+Divw5r6DyNO+InhKNbiUcK00cbQ7frmyt/++xX6M+ELvzLGLnsK+Gf+CnFifD/AMR/2XPivGPKTRPFstneS/3kdredVJ9NsE//AH0a+wPAl3vsYeewr9w4BxTnglHt/wAN+h+jKftstw9T+7y/+Au35WPc1OUBpapveWtno0l5eXMFpaQoXlnnkCJGo6lmPAHua8jm+PHgi9u5LPwNF4g+K+oIxQxeDNPN9bBhwVe9JSzjbPGJJ1PX0NfoE6sIfEzhhSnP4Ue0UhICkkgADJJ7V4p9o+PPir/j3sfA/wAJdMfpJfSPr2qFf+uUZht4X9/NuF9j0oHwL8Nauwl+I2u+LvixOTl4PE2of8S4+39n26xWjD03ws2P4jzmPayl8Mfv0/4P4F+yjH4pfdr/AMD8T80fDPjfQfhx/wAF8vj1baXJd+KNH8R2kd5bReGrc6jJPdlLaZ48Q5ClWkuQzOVVSvzEZr9VvCfif48eLLGOPwx4M8J/DPTnHy6l4zvTqV8o9Rp9k4jPHPzXqn1WvzZ+POj6X8O/+C937PWo6Hpthoeh6r4TbT/stjbrBCHBvowFVQAB+8g4A7V+u/gG5L6fDz2FflWa0nTxlSL7v8dT9VyqqqmDpyXZfhoUR8Cj4jHm/FX4lfEL4k7uX0sah/Y2kD/Z+yWHledH/s3Mk/1PGPWPC3g3wh4G8MJongvwt4e8JaOhytlo2nRWkOfXZGoGffrXRIcwqfan1556BwPxN+H1j8UPhDc+EL/Wte8ORvqWn6jb6noxgF3a3FjfQX1u6faIpYjia2jyHjYFcjHOa8v/AOFCeKv+jmfjt/4LvC3/AMpK9T+JPj6z+Gnwnm8V3mia94lA1PT9MttL0YW/2u7ub++t7G3jQ3EsUQzNcx5Z5EULk54xXAf8Li8ef9Gu/Hb/AMGvhP8A+XlRLAxr6unzW8rnkZlSyuUo/XFBvpz8v4XMv/hQnir/AKOZ+O3/AILvC3/ykr1D4ZfD6x+GHwhtvCFhrWveI401LUNRuNT1kwG7uri+vp764d/s8UUQzNcyYCRqAuBjjNcH/wALi8ef9Gu/Hb/wa+E//l5Xf/Dbx9Z/Ev4Tw+K7PRNe8Ng6nqGmXOl6yLf7XaXNhfXFjcRubeWWI4mtpMMkjqVwc84ojgYUNVT5b+Vgy2llcZS+pqCfXk5fxsd3RRRVnrhRRRQAUUUUAFFFFABRRRQAUyRFlgeNxlHUqw9QafRQBwHwv+GPgv4NfAvQvht8PdKk0Xwfo/nf2fZSXctw0XnTyTyfvJWZ2zJK55JxnA4AFd/RRQAUUUUAFFFFABRRRQAUUUUAFFFFABXwn/wUu/5Ql/Gr/uD/APp6sK+7K+E/+Cl3/KEv41f9wf8A9PVhQB237B//ACYf8G/+xK0v/wBI4q/QKvz9/YP/AOTD/g3/ANiVpf8A6RxV+gVABRRRQAVWvP8AkGzf7tWarXn/ACDZv92gD8D/APgpAcfti/sq+3j6P/0otK7z/goRrLad/wAE+fiM0bYknjtrYDPUSXcKN/46Wrz/AP4KQn/jMT9ln28ex/8ApRaVB/wUt1L7P+xJe227H2zXbOHHrhmk/wDadAH2N+y/o6aF/wAE5/ghp6LtP/CFadcSLjo81ukz/wDj0hr3auK+G2nf2R+zr4B0nbt+xeHLG3x6bLeNf6V2tfs2Hjy0ox7JH4ziJc1WUu7YUUUVsYnLeIZNtlJz2r8hP29PN8Q6T8MPA0Dt5+veMoIlC9T8rRfznH6V+tfiiTFjLz2r8ofj8n9t/wDBUz9kDQceZGfHcE86HncgvbIn/wAdR6+a4nq8mCqPyPcyV8lXn7Jv7k2fuPFFHBaxwwoscUahURRwoAwAKkoor+cD8vCiiigAooooAzdTk8uwbntX5vftx+Ln8O/sLfEe5il2T3VgNPQA8t9pkSBgP+AyMfwr9Edfl2ae/wBOa/HL/gpBqsz/ALNugaFakvc6r4qt4FjB++Fimb/0IJXo5dDmrR9T6ThfD+1x9KPmj6x/ZO8Kr4N/4JzfCLSBH5ck2gRajMCMHfdk3TA+4M2Pwr6GrM0XTIdE8HaTo1sALewsorWIAYAWNAg/QVp1xVZ883Luz/TLA4dYfDU6S+ykvuVgooorM6gpCcKTS1BcNtt2NAHH+I78QWcnOOK+APAvhEftTf8ABd/wl4I1Bft3w6+F1r/b+uQkboridGiZY27ENM9tGVP8KTe9fXnxE1yDSvDeo391L5dtbQPNK/8AdVVLE/kDXO/8EhvCEt3+z/8AGb45atb41vxx4zeCOVxljb2y+YSp7KZrqVTjqYh6Ct8RXeGwVWst7WXq/wDJXPyfxEzBqnDDp/E7v0X/AAbfcfsBRRRX5wflYUUUUAFFFFABXA+Otd8faTBptr8P/Adl4y1O8aQS3Gp6+mmafp4Xbhp5AkszbtxwIoJPuNuKfLnvqKqEkndq4Hz7/wAK2+LvjD5/iP8AGS70LT3+9oHw3sBpUZH9yS/mM125/wBuBrU/7I79t4K+Dfwx+Hurz6p4U8G6VZa/Ou2612633mq3Q/6bX07PcS9/vyN1PrXplFayxNSStey7LRfgKyCiiisBng37TfwV039oP9h34gfCu+WFbvVdOZ9HuZB/x638X7y2lz2AlVQ2MZQsO5r8av2J/iLqOu/s7r4W18zQ+JPCN62j3kE4IlRI/wDVbgehC5j+sRr+g6v56vFOiL8GP+DiX42+ELaP7FoHji0TxFp8ajCySyqtxIQOmBK16Pwr7Dhiu506uHf+JfLR/h+R9Dwpjnhczpu+k/dfz2/E/R7TpxLaqc54rTrjPDl15tlHz2rs+1elNWZ/Q9KXNFM8w1n4x+ANJ8R3WhW2sTeKPEtu5jn0Xw1ZS6reQv02yx26v5P1lKAdyKy/+Ei+MXiXjw74F0TwDYN92/8AGN+Lq6UdiLGzcqw74a6jYdCuc49atbKzsbdobG0trOJpGkZIIgil2OWYgDqSSSe5qzV88Vsvv/r/ADOd0K0379Sy7JW+9u7+6x45/wAKmvNc+f4h/ETxp4wVvv6bZXX9jaaP9nyrQpJIn+zPNKDXoHhrwf4U8G6KdO8JeG9C8NWLHc8OmWMdurt/ebYBubrknJOa6OiplUlJWbNKWEo05cyjr3er+96n5l/tnQf8IZ/wUQ/Zb+KcH7rz799Ev5xxshE0YGT7peXH5Gv0+8B3vmWEPJJIFfnL/wAFKtMkf9ijwp4jtRtvdF8Z20qy45RHguFP/j4i/KvuT4Uaump+E9Lv4T+5ureOZOf4WUMP516NT3sLTfa6/H/gn8Z+P+XqlnXtUviSf4L9bn1DGd0Kn2p9VrRt1mv0qzXls/nMKKgurq3stMuL27mjt7S3iaWaWQ4WNFBLMT2AAJrxP/hc1/4h+T4Y/DHx343VvuarqFp/YOlD/a869CSyJ6PbwTA9quMJS2NqVCdTWK077L73oe51k63r2h+GvDlxrHiPWdJ0DSIBme+1K7S3gjHqzuQo/E15F/wi3xw8V8+KfiLoXw505/vaZ4E04XV2B3VtQvkZWB6ZS0iYckMDjGtonwL+GWkeI4Ndu/D7+L/E8J3Ra74svZdZvom7mKW6ZzCP9mLYo6AAcVXLFbv7v6/zNPZUo/HO/ktfxdl91z87/wDgpF8QfB/xQ/4JyFfBkXiHxPY6L4ostRfxDaaLcDR4wVlthtvXRYZi32gACFpOozgc12Hwjufi547+Gvh3Uk8T+Gvh/pF9p0Fwj6VZnVNRkV41YMJbgLBExBztMEwBPU4yfev2/NN/tX/gkP8AGe227jHYWlyOOnk39tLn/wAcrwf9knUftv7Hfwxl3binh61h6/8APOMJ/wCy1+oeH01JTirpev8AXc+7yitGWU+5H4Zta67pPtb8D6Y0r4F+ALmS31HxfBq/xP1WJg6XXjO/fUo43HIaO1fFrCwPOYoU5r2uGGG3tY4LeKOCCNQsccahVRRwAAOAB6VR0xt1iv0rSr9bp04QXuqxxVKs5/E7hRRRWhmfln/wUFi/sf8Aa8/Y98ZRfK0HiuW1uW9UNxYMBn6GX86/Tr4c3G7T4Of4RivzT/4KfR/Yvgn8E/E3Q6Z4+jXf6boXk/8AaH6V+hfw+1O0sPDgvdQvLaxsoI981xcSiOONR1ZmYgAe5r8w4kjbMJ+dvyR+n8Nzvl8PK/5s+qbc5tV+lTV8/RftF/D6+VrPwFH4m+MGpIxTyvAulPqNsGHBV7/K2UTZ4xJcKevocS/2j+0X4u407w98Pvg7pj9LjXrqTxBqgHfNrbNDbxN6EXUwz1UgYPhHukn7R3/JvWg/9lN8E/8AqWaRXtFfF3x48Ax+DPgXo/xC+Inxf8c+J5tH+IXhC6ub3XNYi0vRtPhHifSvNla0tVgtvLSPcd9wJSgG7fkbq9d/4ah/Zo/6OI+Bf/he6b/8er3MqnFQldn5rxzQqVK9Lli3o9l5nuleL/s5f8m9a9/2U3xt/wCpZq9U/wDhqH9mj/o4j4F/+F7pv/x6m/su6ppmufsqXutaLqNjrGjah8RPGV1YX9lcLNb3UMnirVnjljkUlXRlIZWUkEEEHFLNZxcY2YcDUKlOvVcotaLdeZ+WHin4n/2n/wAFGf2ltA+JH7T/AO1F8NdK0HxWlt4a0vwBHe3lqsDRkurLFDKIsELtHy5yeuK+69P/AGlNY8IftM+Df2ZfCXw6+IPxo1+08H6RqVx4svtYhgmexmZIZr++MqLtdAVdgMtI77QoPI9l+EHwH/4VT+0b8fPiB/wlX9vf8LL8QW+rfYP7M+z/ANl+VHInl+Z5r+dnfndtTGOhqbTfgWNP/wCCjfi/9oA+KXlGu+CLfw1/YSafsa38qcS/aBciXknGNnljHXceleIfpR8/ab+3Yg/a38H/AA38WfCDWPBmneK/E76BoV7eeJrJ9W84OUjlutJU/aLWF224ZyeGzjpnkbv/AIKJXllpx8RSfs6eO7z4fQ/EGfwRc+ILHXbOVm1JHZYo4bZtskhcAEltiKWC72PFUPBP/BOvU/B3iH4UvF8ZNGn0r4f+PU8T6cifD+KO+1cee8zx6heLciSeb5hGkvCooP7tsjZ6Iv7DuP2Zl+HP/Cz87fjV/wALI/tD/hHP+mvmfYfL+0/h527/ALZ0AUz+31pPh34V/HO/+KXwn8S/D3x18M9S02wvvCY1e2v5L+XUlZrER3MeIxuCMz9QiDILn5a5xv8Agolaaf8AC34p32v/AAimtPGvgSxsdW1Lw/pPjSy1eC60y5uIrdrqC9tlaN2heZPMjKjbn73Bx2vxI/YW0P4neNP2mNX1vx7eWzfFW60C904WujqH8OXWkQPFFJuaUi6WTedylY8KWUHJDDX8D/sh39n8Mfi5onxL8beEvFN1438My+HlHhr4fWPh+00y2kjKtIqQ5kllZ9khLSBQUGFGAaAOZ8Wf8FAvBHhjxf8AtBadH4P1LVrP4baXa3lhfQ6iqx+JHmls4HihHlnyzHNewRk/PndnA6Vb8Z/tpeKtJ+IXxA0HwF+z14j+JK/DjRLXUfibeW/ia1so9Cea3Nw9vAJELXskaLJuCBTmNgBnGeH0r/gnDo1n4Q+Aen6l8U73VrvwJr93qfim7bQNn/CZRT6hbXq20y/aW8lEa0gXOZc7ScDjHe/En9j/AMd6v8c/i74o+D/x2m+FGifFewitPH2jT+FotUEzJC0BntJXlRoJHid1OO7swbIQKAL4g/bitpviF8KvDfwm+EPir4t6l8Q/Aw8UeHYbPUoLF1XzWR4LjzQUh2BJC8m8gMoUBsg14x8Cv2t9dsvj/wDFr4OSReIPjF8WdV/aE8S6foGiXGr+THoOgWwgxPLM6v5NpERKEjVSWIcKCRg/T/gX9krQPhz+038IfHPhfxPcw6D4B+G8ng200S5sBJLeB5jK129yJAFcsWJQRYJYkFRxXkZ/4J/2Vh471r4h+FviVB4b+MMnxjv/AB9o/jCLwsHks7W82+Zos8f2lTc2/wB/LeYmfMb5AGYMAbt7+3PbSftg+J/hZ4X+FGqeKl8OeJhoGsPD4nsbfWWl3APcWmkyMJ7q2TJJkQjIGQMcj68+KPic+DP2b/HfipNX0PQLjS9Burm11DWZxFZwTrE3ktKx4CeZsB9c4GScV8L/ABf/AGC/Efxg+NGt6n4g+MOjT+F9S8QR6tDc3XgW3k8TaKiSK/2Kx1ZZVeOD5dqh1bYOzHJb6/8A2gPgzpH7QH7IHjL4Ra1q1/oVjr1vEq6haKHktpYZo54nKEgSKJIk3ISNwyMgkEAH55fsAftIeKPGWr69cfEv4p6/q+iap/ZOkWFr41u7T+0ZPE00M091FYwwKrpYvGFaMSrg7DtPyvX0F/wUE8R+MtA/Zl+FVp4J8beKfAOoa/8AFnR9EvNV8P37Wt2La5S5WRQ69uFbByMqMjiuU8M/sPeP7X9ufwZ+0b4x+OnhzxN8TNEkigufK+Gtva2V/ZJBJbsrpHcKwuykny3O4lMKoRlUCvof9qL4Aaj+0T8E/CvhjR/Hg+HOr6B4wsvEljq50NdTAmtUmCJ5LSxA/NKGyWI+TBU54APk/wDtz4qfslf8FHfhf8PdZ+MHj345fDL4i+H9Ym+zeMbiO41HTLzTbZrnfFOqg7HBRCCAuGY4JUYx/HX7Ymt/FX/gmTqfxZj+HHxe+Evgl9T0hNK8R6F4ut7O91OeS/MFxDA4iZhBGyBXdkAkBZVAxk/QPhX9kbxNP8e7j4rfG/45at8afiFa+HLvRPDFy3hm30ew0KO6jeOaWO0gdg8rLIyliwJBIOflK19R/Yx/tD/gkl4R/ZZ/4WR5P9h3VtP/AMJP/wAI/nz/ACb5rvH2X7R8ud2zPmnHXnpQAvi79tjR/BHh/wDaQGv+ANTg8UfCnXtP0yLQo9TV5vEKai6rYTQHy8p5qkuV2uVAPJriPiV/wUI0z4ffFnxj4ei+Fdx4g07wLHaL49v18YWFnNYXEyK8kFjazFZdRMOSHMewZU9AQT6h8UP2O9B+Jv8AwUT+H/x4uPFtzpNjojWc2veFY9NEkPiC4sHmksZpJfNGwxPKMgxuGVFX5etef/EH9hvUNd/aj+IPj7wD8S/Dvg/TfHl1b3XiWw1n4fWOvXNtPENry2E9ycW7SjO4FHG47ucKoAO20/8AbBl8VftvxfBv4dfCXxF47tzYaJrE3ie11WGCztdJ1GOOV72VZFBHlJKhESlnl+YDbiub+Ev7c9t8Yvj/AGHhnwt8KNUn8L3esz6YdTh8TWM2q6c0TMpuL7SQ32i2tiVGJSWwCSQOM+0fD39ni1+Hv7aXxD+LNl4nN3Y+JfDGk6Fb6GNLWA2EenwiJX85H2vvAB2rEgXtmvmzS/2DPET/ALWPgX4g+L/jBo/iW38JeK18QWWqQeBbex8T6mUkZ47S+1OKQefCCcMTHllBA2DGAD9IqKKKACiiigAr4T/4KXf8oS/jV/3B/wD09WFfdlfCf/BS7/lCX8av+4P/AOnqwoA7b9g//kw/4N/9iVpf/pHFX6BV+fv7B/8AyYf8G/8AsStL/wDSOKv0CoAKKKKACq15/wAg2b/dqzVa8/5Bs3+7QB+BH/BSI/8AGYn7Lft47j/9KLSuT/4KeT4/ZK0ZM/6zxdbr/wCS90f6V1f/AAUi/wCTw/2XP+x7j/8ASi0rh/8Agp8pb9lfw6QThfGNuT/4C3g/rQB+sOkw/Z/C2mwYx5drGmPooFaFQ27rLYQSIAFeNWUD0Iqav2tbH4o9woryD4t/AX4T/HTTNEs/ip4U/wCEpttIlkl05P7TurTyWkChzm3ljLZCL97OMcV4if8Agnz+yFj/AJJH/wCXTq3/AMlVzVZ4lS9yCa85Nfhyv8zppwwzj782n5RT/HmX5H0T4tfFlL9K/LXxiBef8F2v2XLZvnEd602D2IaRs/8Ajn6V9E+JP2EP2U7C1ka0+FflEdD/AMJLqh/ndV8Gat+zz8HbL/grz8DPhkng/b4C8RM6atpn9q3h+0ECbH73zfMXlU+646e5r5Hiqdd4KftIpLybf6L8z2sBDDKnUcZv4ZfZX8r/ALx+t3iL9sXwd8OfjPrHhP4zeBviP8J9Mh1OS10nxbqejtc6HqsYcrHKlzBv2FwA21l+UMNxHIH014V8ZeEvHXhKHX/BfibQfFmiy/6u+0i/juoSfTchIB9QeRX48eM/2HfGHjf4g+JvAXwm+FV18G/hvZ6hNZp4j8WfES9vobyASH57LTonJCN95fPLBgeSDnH1Z+zj/wAE9/hz8APFdn4tfxr478V+NIgpa5g1KXSbIkc4+z27hpF65SWSRCOq1+LV6OFVO6l73bf9dPvPkcwwOUww6nCq1Psknf7pPl8/efoff9FFFeYfKhRXnnxQ+FPgH4zfCmfwR8StB/4STwvNcR3Ell9tntd0kZyjb4HR+D23YPevmj/h3R+xt/0R3/y7NY/+S62pxpNe9Jp+Sv8Aqjtw9PCON6s5J+UU197nH8j6q8TvtsJPoa/Gn9uM/wBpfGz9nvQ3OYr3xvEHB7/vIE/9qGvsLxB/wT5/ZCsbN3tfhH5TAcH/AISnVj/O6r80P2mP2fPg/wDDz9on4FaN4T8If2Touv8AitLLWrf+1bub7TAZ7ZSm6SVmT5XcZQqeevAx6uXRoqouWT69PL1Pu+CKOD/tSj7OcpO+zikvvUpfkz9MPiP+0Vpvwl+Kk2meO/h/8Q7HwQII3j8cWGlm90tWYZdZvKy8W3pypJIOBjk+qeB/iV4A+JXh7+1fAXjDQPFdmFBkOn3ayPDnoJI/vxn2cA+1fnV8Sf2SZYfine+CvgL8G7/w3ozQRyTeKtX+Id9DpCM6/MFtUkaeVxyCckAgcYIrsvgv/wAE7fB3w+8R6f4n8YeOvFPiLxNbMJI00O6k0i2hbuBJE/nt/vCRM91rnnRwnsk+ez/P5XdvvP7lw+ZZ48a6fsFKF9W21b0k4rmXpF+p+jVFMjQRQJGpcqihQXcscD1J5J9zzT68w+zCqGoPts2+lec/FP4JfDD41aRpFh8TfDP/AAktppczzWKf2jc2vlO4CscwSIWyFHXNeEah+wr+ytBalovhbtbHX/hJdUP/ALc10Uo0Wvek7+i/zR5mKq4+MmqVKLj3c2n9yhL8zC/ai1mTTP2UfiLcxMRJ/YVzGhzjBeMoD+G6vun/AIJu+H4fD3/BF74KQRgebe2d5qEz4wXae/uZBn6KVX6KK/HX9on9mT4J+CP2c/GGueEfBX9lavY2Jmtp/wC2L2bYQwydskzKeM9Qa+7f2Rv2B/2Qvir/AME2vhB8QvGXwkGteKta0JZ9Uvh4p1aDz5hI6M2yK6VF5Xoqge1RnscP9QipTaXN0in0fTmX5n4jxpVxE8dH2sUmo9G2t+7ivyPq7xX+234K+Fnx11vwf8cfh98UfhDokGqPaaN421PRHu/D+rxhtscqXNvv8svwdjL8oI3EcgfVHg7x14K+IfgyHxF4D8WeHPGWhS/cv9F1GO7hJ/ulo2IDDup5HcV+Jvjz9gLxn46+J3iv4c/BX4O3fwS+GFlqM1kninxj8Tb++tr2AOcvY6bDIzBWHzL9oLBt3JBzj65/Zg/4JpfDH9nPxjY+M5/HvxC8Y+O4Apa6tdUm0awyOcfZ7aQPIuc5SaWRGHBXrXzuNweWRoKUarU+1k7/AHN2/wDAn6Hx8ZTb2Prv9oj4v/8AChP2MPHnxe/4R7/hK/8AhG7OO4/sn7f9j+1b544tvneXJsx5mc7G6Y75r5z+Fv7Tv7UXxC8aeBTq37EWp+EvAXiGW2km8Ut8TrK6Sys5wrC68gW6vIAjBtmQT04rpP8Agoh/yhh+PH/YHt//AEutq+Bf2VviZ+xpovxd+B6aX+1r+0x4g+JE5sNMt/B2sanqk+iSahcxLai1aI2Yj8pZZdqZk2rtU7sDNGX4GnUwEqvs+aV2tpO2if2WkvV3CUmpWufsc/xV+F6ara2D/EjwEl9c38mn29u3iC1Ek11HjzLdV35aVcjcg+YZGRXk7ftQeA2/b58Sfs723lyeMtK8InXlupdTto7W5kEgT7CpL7xcAHeVK8ICx4Ffi5rvwn+HWsf8Eav29fipqvhLRr/4iaT8ddRt9J8QTW4a8sIk1HTh5cMnVEP2qfco4bfznC4+mdMtPh34f/4Lv29/4t0Lw3Ya34s/ZzgvPDl5daOhk1DW2wZrmOQIf9KMEdwGmyGKhlLc4O39i4eMZu7lZS6dUovvtaX4C9oz6/X9tfw94b+BvwB8R/FPwzpvg/xH8TfE7aINI0vxhYatbaMv2ua3F5LeRuscluBErO6A7C5Q8qa9x8D/ABa1PxP+0B8avC+t+HfD/h3wv4IawbTvEMXi20vW1SK4gllllnto/nsRH5Yx5x/eBiy8Ka/DPTNI8AWf/BF3/gm/49+IPh7w7deFdM+L89t4o1bUtIS6jj0ttb1KSaCclGLW7BGZojlW2/dJrovjzpvinXNR/wCCoUPw6tb6908a54CuNUttJhZnk0lLa6aUKiFSYwBGzKMfIrZwASOmeR4eUpRjpq1fWytUUdNez63+/USqP+vQ/e7wr488D+OtIutQ8EeM/CnjGwtpPKubnQ9XgvYoX5+V2iZgp4PBOeKreGPiT8O/G2rX9h4M8feC/F19Yki9ttF1u3vJLYggESLE7FMEgc46ivw8+Cnh/wAA+IPid8f/ABN8OviBp+t+DpvgdeaT4t034LfCy80iyVJUIikRbi5Ky6miksEXDOquM58zOb+w9rXhTSf+CjXwH8NeGLH4SfGKB/DF/DZ+MPCHh690DxB4ZgS1bcuuW8ZW1nZyRFulM7bzuWUttMnHVyGEYVJRk/dV7Wt0vre39bX2GquqP6CaKKK+ZNgr8Mf+CiNkvh//AILefsx+MYPkm1Xw3JpcuOAwSe5XJ9Ti8/QV+51fiB/wU9kWb/gpj+x7ZxgCeI3UzkdSpubfA/8AHG/OvouFm/r6XdS/Jm+Ek44ik10lH80fRHg+4L2UXPavUVOYwa8c8EsfscX0r2KP/Ur9K+jq7n9M4J3pofRRRWR2BRRRQB8Wf8FA7Nbn/gl740nYZNpqGnTL9TeRR/ykNevfs0X73n7M/wAObt2y03huwkP1a3jP9a8w/b3dV/4JWfEpTjLy6aF+v9pWp/oa7f8AZXDJ+yf8LkY5ZfCunA/haxV6lP8A3P8A7ef5I/kz6RMF9cov+6vzkfe2nHOnp9Kv1m6Zzp61pV5j3P5TluFFFFIQUUUUAfN37YMAuf8Agl38do2UMB4OvJMH/ZTd/Svib9ie4Mn7Enw8JOSLORfynkH9K+5f2tJFj/4JkfHpmwQfA2or+Jt3A/U18F/sQhk/Yi8AgnnyZz+dzMa/S/Dt/vZ/12PvOH/+RVU/xr8j9LtIObAfStesXRv+PBfpVrVdOj1fwzf6XNc6hZxXdu8Lz2N09vcRhgQWjlQhkcZ4ZSCDyCDX7OtjF7mT4o8a+D/BGiDUvGPinw/4WsGO1J9V1CO2V2/uqXI3N6AZJzXnP/C5Jtd+T4cfDjx945Dfc1Gaw/sbTB/teffeU0if7UEc3tnmum8L/CP4b+DtbOr6F4S0xNfYYk1u93Xupyj/AG7ycvO/f7znqa9GrLlqy3dvTX8X/ka81KOyv66fgv8AM/Ir/gpPF8V7r9hrwrq3jhvAWkaWnjm1EGiaEtzeTRSGzvcSPfS+UHUAEbFtlyWB38YP238Kfgr8OtQ/s7VfFGlXPxD1NNssVz4uvJNVWJuzRQzEwwn/AK5RpXzj/wAFT3VP+Cc/hxT1fx7ZqPr9jvj/AEr7c+D4KeGNMRiSywoD9QBX51xNHlxr1voj9F4ZnzYJO1tWfW2lRRQaLBBBFHDBGgWOONQqooGAAB0FaVUNO/5ByfSr9fPn0AUUUUAFFFFABRRRQAUUUUAFFFFABRRRQAUUUUAFFFFABRRRQAUUUUAFFFFABRRRQAUUUUAFFFFABXwn/wAFLv8AlCX8av8AuD/+nqwr7sr4T/4KXf8AKEv41f8AcH/9PVhQB237B/8AyYf8G/8AsStL/wDSOKv0Cr8/f2D/APkw/wCDf/YlaX/6RxV+gVABRRRQAVWvP+QbN/u1Zqtef8g2b/doA/Af/gpF/wAnifsuf9j3H/6UWlcv/wAFNIGk/ZGsZAuRD4otnJ9P3Vwv/s1dV/wUiH/GYn7LX/Y+R/8ApRaU/wD4KN6ebj9hjxJcbciz1Gym+mbhI/8A2pQB+jXhu5W8+Heg3aNvSfToJFb1DRqc/rW1XmfwV1H+1/2OPhLq27f9t8GaXcbvXfZxN/WvTK/aaUuaCZ+LVY8s2goPQ0UVZB5t4uGbKX6V+WHxCl/sv/gtl+ylqUnCT68toD7vMifzmFfqx4rTNjLx2Nfkn+09OPD37b/7LvjGT5INI8fW8kr+wu7OXn8Imr5PiunzYGoj3MpXM5R7xkv/ACVn7wUUUV/O5+XhRRRQAUUUUAcT4qXNhJ9K/GL9vd/7I1X4Q+KW+SPS/GcTNJ2XjzP/AGifyr9qPEke7T5PpX5B/wDBQvQXv/2Q76+VN39lava3Z46AsYM/+Rq9XLGvbRPseDq/ssxpS8z9L6K4j4Z+IV8W/s5+AfFKvvGr+HbK+Jz3lt0c/jlq7evLkmm0z/SylUVSCmtnqFFFFIsKzNUGbJvpWnVO9TdaN9Ka3Jkro+Kv2gdEfXPgV400iOMyS3mjXMMSgZJdomC4984r6r/4JVeL4vFH/BG/wVponE9z4Z1jUtIueclD9pa7RT9I7qPHtivI/iDYl7Kfjsa8r/4JZeMV+H37Zv7Qf7OGpOIIb2VfEvh1GO1SqERyqOxZoZrY4HaF/Ti82outlk0t4tS/R/mfinH+Gca9Or6r9V+p+5VFFFfnZ8AFFFFABTGjjeRHZEZkOUJGSv09KfRQA10SSJkkRZEbqrDINO6DAoooAgt7a2tIDFa28FtGWLFIowoJJyTgdzTLexsrS4uJbWztbaWdt07xRKrSH1Ygcn61aop3YBRRRSAK/A79uHWE8af8HDfw08N27ie18GeCY2vYhz5U8n2qfJ9MrNa/pX72zTQ29pLcXEscEESF5JJGCqigZJJPQAd6/mj+FviST46f8FKPj7+0GVdtM1rXXsNDdwd32SMqsQOehEEVqD75r6vhSj++qVXtGNvm9Pyuejk9B1sfRgu9/u1P0b8FxFbOLI7V69H/AKlfpXnXhO22WUeR2r0cfdFezVd2f0hg42poWiiiszrCiiigD4X/AOCimpLY/wDBNPWLUvtOoa7YWyj+8RIZsf8AkIn8K93/AGe9PbTfgh4L09l2Na6NawkehWFFx+lfJP8AwUhuzqvw1+Cvw4iJ+0eI/GqyIgPLeVH5H87xa+8PhjahNOtlCgKFAAHavWtbBx823+SP49+kHi1PNIU0/hiv8/1Pp7TBjT1+laNUrAbbBR7VdrynufzFLcKKKKQgooooA+X/ANtS+XTv+CVfxyuHOA/hmWD8ZWSIfq9fHH7Gdq1t+xl8PI2BBbTvM/B5Hcf+hV9C/wDBRvWE0n/gkJ8UIy22bUZdOs4eepbULd2H/fCPXln7MGmNpv7MHw5snXbJF4dshIP9ryELfqTX6h4dw1nL+uh99kMbZRJ95v8ACK/zPufRh/oC/StqsrSRixH0rVr9jjsc0twooopiPzI/4KpP5v7DPgDTVOZrn4hWxVe5xY3y/wA3FfevwrXGnWw9hX5+f8FLpPtsX7N3hnr/AGn44LbP723yY/8A2v8ArX6HfC+Iiwt+Owr8y4mlfHy8kvyP0zhmNsBF92/zPqXTuNOX6VeqlYDFgn0q7XgH0AUUUUAFFFFABRRRQAUUUUAFFFFABRRRQAUUUUAFFFFABRRRQAUUUUAFFFFABRRRQAUUUUAFFFFABXwn/wAFLv8AlCX8av8AuD/+nqwr7sr4T/4KXf8AKEv41f8AcH/9PVhQB237B/8AyYf8G/8AsStL/wDSOKv0Cr8/f2D/APkw/wCDf/YlaX/6RxV+gVABRRRQAVWvP+QbN/u1Zqtef8g2b/doA/Az/gpCP+MxP2WPfx7H/wClFpXpP7dGif2v+wz8TrfZu8rSzdY/64SJNn/yHmvOv+Cj4z+2L+yp/wBj/GP/ACYtK+rf2ivDreI/gl4z0FV3NqWjXVoAR1MsLp/7NQBkfsaa5/wkP/BLv4K3+/zPK8OpY5z/AM+rvbY/DycfhX01X59/8EzvEa61/wAEw9P0ndl/D3iO/wBOZSeV3ut3/wC3P86/QSv17LanPhKcvJfkfkOZ0+TF1I+b/MKKKK7jhOM8TRbrKX6V+Qn7fum3A+A+ka3abo7nSvEcFwJR1QFJUz/30yflX7F69Fvsn+lfm5+2P4bbW/2RfHtske94bA3igDn9w6zHH4RmvEzylz4aa8j28kqqOIg33P1e8M65b+Jvhv4f8SWZBtNW02C+gIPBSWNZF/RhW5Xyz+xN4uTxr/wSt+CmrCXzZLXw8mlS5PzBrJ2tMH3xCD7gg96+pq/mqtDknKPZn5zjKDoYidJ/ZbX3MKKKKzOYKKKKAMPW49+nvx2r89/2qfCJ8Vfsz+PNESIyz3OkT/Z0x1lRS8f/AI+q1+i9/Hvsm+lfMXxL03zLC44J4NdeEm4zTPWyiu6VaMl0Z82fsHeMR4u/4JpeConmE17oM1zo91znb5UpeJfbEMkNfYtfl3+w5qf/AAr39sj4+fAe8PkW5uxruhxE4HlBgrAepMU1seP+ebenH6iVWYU+XESts9fv1P8ASHgrMo47JcPVTv7qX3aflZhRRRXEfUhUci7oSKko7UAeS+MNO86yl+XORX5k/FvVNe+AX7Z/ww/aX8KW80l14a1WOHW7eI7ftVm5ZHjY9AHjeWEk/wDPRPSv1r1qyE9q4254r5H+LXgax8Q+E9V0nUbUXFheQPDPGR1Vhjj0PcHscV6WDqRT5ZK6ej9GfF8V5SsXhpQ69PXofs34M8YeHviD8JvDnjjwnqMWreGtd06K/wBNu4+ksUihlJHZucFTyCCDyK6avwa/4J3ftH3vwI+O1x+yH8XdTWHwtqV68/w71u6fZFHNK5JtCTwqTNkoP4Zt6/N5i4/eWvgM2y2eCxDpvVbp91/W5+ESjKMnGSs1uFFFFeYIKKKKACiiigAooooAKKK4z4h/EHwl8K/gr4j+IPjrWLbQvCuiWbXV/dzHoo4CKOrSMxCqg5ZmAGSRVRjKUlGKu2B8Kf8ABTT9oT/hUH7BN54C8OXb/wDCyfiSX0PSLa3OZ47RsLeTgDkfI4hUjnfOpH3Tj4k/Zw+GyeBPgzoGghFN3FF5l7IP+Wk7/NIc9xk4HsBXg1l4p8W/te/t7av+0Z43spbDw3aubDwPokh3LZWsbME9iV3OzN/FK7kYCgV+ingnQ/ItIvk7DtX6VhcGsDhFRfxPWXr2+X53P0XgbKJOTxM1vovTv8z1TQ7XyrNBjtXTVUtIhHbgY7Vbrlk7s/ZIRtGwUUUVJYUUU1mVI2d2VEUZZmOAB6mgD8sv2kbz/hP/APgtb8HfBETefYeD9H/tO8Uc+TcOXn5HbIjtP++q/T34eWeyxg+gr8nP2b7lvi7/AMFAPjj8cXDS6ff6udN0aVuc26ldo+ohitfzr9kPBNl5dhFx2FexjfcjCn2X47n+f/iznKx+d1qkXdXsvTp+Fj1a3XbaqPap6aoxGBTq8c/HwooooAKKKKAPy9/4Kuay8f7C3gbwhaNnUfEHjq2RIs/fjit7gn/yI8P516v8KdNjsPDWm2UQxFbwJEnHZQAP5V8x/wDBQ3Uh4s/4KP8A7LHwvhbzDpzTa7dwDkMkk6YLD/dsZfwJr7H+H1pssYOOwr9k8PsPy4Zz7s/RsHD2WUUI9+aX3uy/BHvunLtsV+lX6rWi7bNas1+oI80KKKKAPyl/bmn/AOEg/wCCnH7I/g0HeLG8m1Z4x6NcQtk/hZn9a/Tj4aQbdPt+McCvyv8Ai5cf8Jp/wce+G7KP96ngrwXGk6dQpkimkBPv/p8f6V+tfw7t9thBx2FflGeVOfH1X52+7Q/V8jp8mApLyv8Afqe9WgxZJVmooRi2Qe1S15R6oUUUUAFFFFABRRRQAUUUUAFFFFABRRRQAUUUUAFFFFABRRRQAUUUUAFFFFABRRRQAUUUUAFFFFABXwn/AMFLv+UJfxq/7g//AKerCvuyvhP/AIKXf8oS/jV/3B//AE9WFAHbfsH/APJh/wAG/wDsStL/APSOKv0Cr8/f2D/+TD/g3/2JWl/+kcVfoFQAUUUUAFVrz/kGzf7tWarXn/INm/3aAPwT/wCCjgz+2P8AspD/AKqDF/6UWlffHxQst+n3HB6Gvgr/AIKMjP7Zf7J4/wCqhRf+lNpX6R/EOy8zT5+OxoA/LX/gnTeDw18dP2ovhRK3lDS/E6X+nwnjdE0lxCzAem1Lf/voV+qNfkN8OLo/DP8A4OMZbNj9n0/4ieFJIsdEMiReYP8AgRewx65k96/Xmv0zhmt7TAxX8ra/X9T8z4mo8mOk/wCZJ/p+gUUUV9AfPmXqke+ybjtXyb8WtEg1PwxqdhdR+ZbXMDwyr6qylSPyJr6+uk32jCvAvH+n+ZYT/L1BrkxcOaDOvCT5Zo+a/wDglZ4mmT9mb4p/CjUpt2r+DPGMjGI8GOG4TaBj0822uD/wKv1Nr8Sv2YdaHwn/AOC9niXwpcP9m0T4leH5GtkY4RrpB56sT67oLpR7ygdxX7a1/N2fYV0MdOJ4vFtDkzGU1tNKX3rX8Uwooorxz5oKKKKAI5V3QsK8b8c6b51hN8ucg17R2rj/ABHYiexk4zx6VpTlZm1CfLNM/Dv48XM3wM/4KI/CT49WySRaQt+NK8RmNThrdwysSP4mMLzY94kr9d4ZobmziuLeWOe3lQPFJGwZXUjIII6gjvXxt+1D8K4/iB8DvEvhwoguriAvYyN0juEO6Ns9huAB9iRVL9hH4uTfED9kJPBmvSPH418BSjRtSgmP70265Fs5HsqNEe+YSe9eli4+1oRqLeOj9Oh/ZngNxPGpQnl83rvH9fw/I+26KKK8k/o4KKKKAIJ4xJEeM15f4p0Jbm1k+Tr7V6vWbe2izREEZq4SszCvSU42Py++P3wRsPHfhSWCRfser2xMmm36r89vJ+HJQ4GR9D1ANfUX7En7f91DrWmfs6ftS366D48slW08O+MdRn22+tIPljiuZW4E5AASYnEuMNiT/Weg+KvCyXUEn7sHI9K+JfjH8C9C8b6HJa6tZETx5NreQjbNbse6n06ZByD6dK76tKhjaPsa3yfVPy/VH5TxRws6snWpaS/B+v8Amf0XUV/OR8Ev20/2hf2QY7Hwb8UdNvPjV8ErQiK1vVlP9qaRCOAscrE5RR0ilyvRUlQDFftN8Df2tvgD+0RpEL/DT4gaXea0U3TeHtQb7JqsHGSDbuQzgd3j3p/tGvh8yyLFYT3muaH8y2+fb5n5lUhOnPkqKz7M+kaKKK8UkKKKKACioLm5trLT57u8uILS0hQvNNNIESNQMlmY8AAdzX5vftB/8FPPgN8Jftnhv4dXDfHD4j5MNtpvhyXfp8UvQebeAFW5/hhEjZGDtzkdeEwNfFT5KMHJ/wBb9hNpH3n8QviL4J+FPwk1fx18QvEem+FvCumRGS6vr2TavsiD7zyMeFRQWY4ABNfzr/HX47ePP2/vjxZWdrZ6p4N/Zu8PX7PpumO+2fV5Vyvnz7TgykEgAZWFWYAlizHlfFf/AAvf9rr4uWfjb9ojW5INBtXL6N4L0wtBZWKnsIwx2kjgszNKwwCwAAr7G8AfDuz0vSrOzs7GG0tIECRQxRhURR0AA6Cvu8syill69pN81T8I+nd+f3H1eRcM1sXNTrRtHt1fr2Ro/DfwLaaRo1jZWVnFaWdvGscMMabVRQMAAelfUejactvbINuOKytB0NLW3T5AMCu5ijCRjFVWquTP2/L8FGjBJIkAwoFLRRXOemFFFFABXyt+2b8Ul+Ff7AnjG+trn7Pr+uRf2JpADYfzbhWWR17gpCJXB9VX1r6pr8kfjzrrftE/8FW/D/w305vtngL4aFpdWZTmKe+3KZVPY4dYodp5HlzY4NduX0VOsm9lqz4/jrPoZTk9Ws3aTVl6v/JfjY+gf2QPhm3gf9nDwtpVxbmLUpYftmoAr8wnl+dlPuoKp/wCv008NWnk2EfGMCvA/htoXk2UGU7DtX05p8Ais1GO1GLquc22f505zi5V60pPds0a57xb4n0rwT8KvE3jLXZJItE0HSrjU9QeNdzLBBE0shA7nahwK6GvzW8b/tRp8RP+Csng39mXwrf2Fn4PM2r6F8SNN8T6QY4tYQ2qMIrdmKvlgJokIK7mJbEiFN2NChKo3bZav0OTL8BUxU3yrSKcn6LV/fsvM8l0X9ubx/4d1jRfjf8AGfxp4K0H4S+JbO5l8LfCfwvZpqPiO4QSGKCWaRgghXhnMjzANt2rECcL+jvwH+O3gb9on4A23xD8AvqKaYbuSzvLPUYVjubK5jCs0UgVmXO10YFWIKuvPUD4F8Qfsd67+zp8T9D139kf4MaJ8RvFGoSTm48UfEHXoJ08Khhti+yQM8OWBJbzSszgJt53Gvtr9mL4Exfs+fsuW3g241YeIPE9/qE2seJ9WVSqXuoT7fNZAeQgVEReASE3EAkiu3GfVnT5ob9PTzX6t3Z72d/2XPDqpQ0k3pay01veKva2mrd5eh9DUUVzPjXxVpvgb4PeKvGmsOI9K0HSLjUrsk4/dwRNIw+pCkCvMSbdkfKRi5SUVuz8XPFGpj4pf8HB/wAVtdjY3OkeCtPj0S0cc+VNGiQyL7fvTeV+l/gi02WMPHYV+WX7EekajrXhjxd8StczNrfi/wARz31xOR/rQHbLf9/Xnr9c/C1r5djFx2r+huFcH7DBwifp+axVFRor7CUfuX+Z3sYxCo9qfR2or608IKKK5Lx94pt/A/wM8Z+NLvZ9m0HQ7vUpAx4IgheXH47cUpSUU2+hUYuTSXU/KL4GTf8ACf8A/BZL9qD4gqfPt7XWP7GtZ+okjjlMK7T6bbOM/Qiv2j8C22zT4flxwO1fjp/wTr8NXK/s73viu/3z6h4j1+4vHuHHzSKpEXP/AANJT9WNfo78TP2kPCv7Pmp/DzQ9Z8EfFD4geI/GLXq6Ho3gbQ01K8lFnHFJOxiaWMkKsqt8u44DEgBSa/GK9XnnKb6ts/ZKUI0aSjfSK/I+z1GIwPanV8E/8N6Wf/Ro37cf/hrR/wDJVL/w3rZ/9Gjftx/+GsH/AMlVze3pfzL7zP69hv8An4vvR960V8Ff8N62f/Ro37cf/hrB/wDJVH/Detn/ANGjftx/+GsH/wAlUe3pfzL7w+vYb/n4vvR960V8Ff8ADetn/wBGjftx/wDhrB/8lUf8N62f/Ro37cf/AIawf/JVHt6X8y+8Pr2G/wCfi+9H3rRXwV/w3rZ/9Gjftx/+GsH/AMlUf8N62f8A0aN+3H/4awf/ACVR7el/MvvD69hv+fi+9H3rRXwV/wAN62f/AEaN+3H/AOGsH/yVR/w3rZ/9Gjftx/8AhrB/8lUe3pfzL7w+vYb/AJ+L70fetFfnnrv/AAUX8G+E/DE+veMf2bP2w/B3hu2eNbzWdb+HUdrZ2geRY1aSVrrCgs6qO5JAAJIFfoZVxnGSunc2p1YVFeDTXkFFFFUaBRRXlfxs+L/hb4CfsweKfiz40t9ZvPDWgpA13BpMCS3UhmuIreNY1d0UkyTJ1YADJzxQB6pRX5+/8PB9C/6NV/bW/wDDZp/8lUf8PB9C/wCjVf21v/DZp/8AJVZ+1h3R2f2fiv8An1L7mfoFRX5+/wDDwfQv+jVf21v/AA2af/JVH/DwfQv+jVf21v8Aw2af/JVHtYd0H9n4r/n1L7mfoFRX5+/8PB9C/wCjVf21v/DZp/8AJVH/AA8H0L/o1X9tb/w2af8AyVR7WHdB/Z+K/wCfUvuZ+gVFfn7/AMPB9C/6NV/bW/8ADZp/8lUn/DwfQsf8mq/tq/8Ahs0/+SqPaw7oP7PxX/PqX3M/QOivj79m39oO4/aE+MmpWfiLU5fgxq2nxSyWnwr1fR5bbxBeW5DIl9PNdxqskfG8RWiN5bBfMmYHYek+Cy6xq1x+0l/wkn7QfirU7Lwr4qutE0rUNUGiLFpdpHp9hdC+cxWUas6vPMpZz5WwY2gjdVpp7HNOEoO0lZn07RX5u6X+3xPo/irXNE1T4QfFr43aDYz+VpHxE+Evgm6uNI19Rw0ixXLp5e1gVJjmnjcgsjlSK+zvgl8YPC3x7/Zg8LfFrwXbazZ+GteSdrSDVoEiuozDcS28iyKjuoIkhfoxBGDnmhST2ZVSjUgk5RaT2utz1SiiimZBXwn/AMFLv+UJfxq/7g//AKerCvuyvhP/AIKXf8oS/jV/3B//AE9WFAHbfsH/APJh/wAG/wDsStL/APSOKv0Cr8/f2D/+TD/g3/2JWl/+kcVfoFQAUUUUAFVrz/kGzf7tWarXn/INm/3aAPwX/wCCi/P7Z/7J3/ZQ4f8A0ps6/U/xrZ+Zp83HY1+WP/BRf/k9H9k3/sokP/pTZ1+u3iW182wk46igD8H/ANtZbn4a/tDfA/46afE4k8LeKokvfLHMsJdZth/2SIpU/wC2nvX7F2tzb3um295aTJcWs8Sywyocq6MMqwPoQQa+Cv21vh4/jP8AZK8c6Xb2/m30Vmb2zAHzebAwmCr7sEKf8Cr039iT4kL8TP8Agmp8NtTln87VNHsv7C1IFssstniJCx7s0QhkP+/X2XCOJtOdJ9df8z43i7DXhTqrpp9+x9X0UUV90fCjWGYyPavMfF9j5tjL8vY16hXM67aiWzfjtUVI3iaU3aR+Mf7W0GqfD74l/DD43+H4j/bHgzxLBcNtON8fmLIoY/3d8YQj0lPrX7ueG/EGl+LPh7oXinQ7lbzRdY0+G/sJ16SwzRrJG34qwNfmt+0F4Ag8ZfCTxL4cuEUJqFm8SOwyI5MZjf8A4C4Vvwrpv+CZnxTuPF37Dd98NNdmYeLPhzqsmlzwStmQWkjPJblv91hPCB2EIr8V49y9xqRrJepvxFh/rGXQrLem7P0lt9z/ADP0doorP1bVtM0LwxqGta1qFnpWkWFu9xe3t3KI4beJFLO7s3CqACSTX5wfApNuyNCivzhvf+Con7OcHjy606w0n4oa54dtZljuvFFjoKGwiDHAch5VmCZ9Ywx7Ke/3n4I8ceEviR8L9I8aeB9dsfEnhjU4fNsr+0YlXGcEEEBkdSCGRgGUgggEEVvVw1Wmk5xsd2LyvF4WKlWpuKfdf1r5HV1SvYRLasMZ4q7SMMqRWCZwJnzb8QvD4uLKf5M5Br8i/FWpXv7K3/BSDQ/jHZxXC/D3xRKdO8YW8Kkqu8gtJtH8XyrMuOS0cgyN9fuf4j0tbmyk+XORXwX8ffhRpvjf4b634d1W3LWl7CV3qo3ROOUkX/aVgGH0r1sFWinyy2ejPvuC+I6uV46nXpuziz6qsr201LRrTUdPuYL2wuoUntriFw8csbgMrqRwVIIII6g1ar8z/wBiX4yat4X8Waj+y18T7kQ+ItDLt4RvJmwt9ajLm3UnrtXMkf8Asbl48sA/phXDicPKjUcX/wAOj/QnIM6oZrgYYqi9Jb+T6r+umoUUUVznshSEZGDS0UAZt3ZrNEQVzXm2veFYrmN/3YOfavW6ry26SA5Aq4zaMK1CNRWZ8XeJ/h0k6yjyAynOQVyDXxt46/Zb8Lapqralp9pdeGtWV/MS60pvKw4OQ2zG3OecgA+9frvfaHFOrZQflXB6n4Mhm3fulP4V6NDHShsz5XM+G6GIVpxTPzg8LfFH9uz4NRQ2vgn463/i/Q7f5U03xXGt8Cg6IDcLIyAdPkkTA6ccV7Xpn/BSz9tfQoRB4n+CPwv8S7eFuLFJ4Hf3bbdOv5Kv0r3XUPh3C5Y+QOfauVuPhnEXP7gflSqU8FW1qUYt+lvysfGYjgSnf3G18/8AM4+T/gqh+03LEI7T9mPwzDOOC82oXLKT9Mr/ADrh9b/b7/4KAeMoZLfQvDHwt+GcMnEV1a6aJ54x6n7RNOpP/bP8K9dX4Yxb/wDUD8q2LT4axKwPkD8qiOEy6DvGjH53f5swp8CXfvTf4f5Hwd4l8GftA/HK9jk+O/xw8Z+MbHeH/siC6ZLJWznKxYWJT7rEDx14r2P4c/ADwz4TiQaNocFvORiS5dd87/V2ycew49q+w9N8Awxlf3I/KvQdN8KQwBf3YH4VvPG2jyx0XZaI+myzg/DUJKSjr3erPKPDXgOOARkwjjHavbdI0KO2iTCAY9q3rTTI4UGFArWVFUcCvPqVXI+2w2BhSWxHFCsajip6KKwO8KKKKACiiqGqapp2ieGtQ1nV72203SrG3e4vLu4cJHBEilndiegABJNG4m0ldnz/APtTfHK0+A/7J+seJIZoT4t1AGw8NWrYYyXbqcSFe6RDMjdjgL1YV8ufsf8AwevPCnwxTVteSebxd4gmGoaxNOS0oZslI2J5JUMSc/xs9eL22r6r+2F+3rJ8SNQtriL4S+ELg2nhSwnQgXLqwbzGU/xMQsj+n7pOQpNfrD8OvC4t7SAmMdBzivblFYajyfaer/yP408ZeOY5ji/q9GX7uGi8/P5/lbzPYPCGki3sovlxgV6ci7YwKy9MtBBaKMY4r8+v25/C/wC01D47+HHxC/Zt8Q/Ee51yCC80m98PaNDC9hFE8LyvdSByP3jbFRd6uNyR7DG+0SebTp+1qcrdvU/nzCYZYzEqm5qN76vbbqdP+0n+0J8V9N/an0P9n34AxeDdO8czeHpfEfiHxR4slKadounxlxk8EZ+QszkMFBUbTklfjHQdLb9s/wCF3h25+ON34P8Aht8cr/Vp7L4P/EPw6ktrdeJfsKSSzPLBgFrWNoxsnBjO9tsaqwYPwXivSvBX7XX7Nvh/xXpvxST4d/tLfD3w0ug+OtN+Imqrp5122jYo5luAEzmSR0LMM/vAkuDtc/cnwQ/Z9+OPij9qz4f/ABk/aIh+HPhSx+HuhvpfgLwb4JU/ZIN8ZiM7ne6hfLPyqrtk7eECYb1uWnh6XaS++/6p6eVj7Tkw+XYVWahUje72lzK9rfzRldeSjfqz6l/Zw0z446N+y5pelftB6roWteP7S5mg+2aa28zWqNtheZ+FklYAsWCrlWTcN++vd6KK8Kc+aTdtz8/r1nVqSm0lfWy0XyQV+c//AAU3+JUvhL/gnzH4D0qVj4j8f6zDpVvBGcStbRsJpyvqCVhiPtPX6MV+HP7QXiT/AIX9/wAFyYPD9pJ9t8GfCeyFudpzE9+GDTH2cTsiEf8AToa9bIsE8TjIQR7/AArhFWx8ZyXu0/efy2/Gx9I/s/eBofB/wg8MeHYVUrp9hFC7L0dwvzv/AMCbc3419w6Jb+XZpxjivE/h/pPk2UPy4wB2r6Bs4/LtVHtX9HYGkoU0ke9jqrnUbZboooruOEK+FP8Agot49Pgv/gmZ4j0u2lMep+LNRttDtgh+YqzGabj0MUDof98eor7rr8kv219VPxS/4Kg/AP4H2Z+0ad4fU69rqKcpudg4jf0Iitxj/r5HrXkZ7ifY4Kb6vT7/APgHr5FhvbY2C6LX7v8Agn1b+yx4E/4Qv9nrwT4aMQSaw0uGO4AHWYqGlP4uXP41ufHOHyf+CvP7BAx1Hjb/ANM8Fez/AAv0nyrC3ynYdq8q/aFj8v8A4LBfsDD/ALHf/wBM8FfkGP8A92qf4X+R+g55/wAi7Ef4Jf8ApLPsKiivOPjD4v1L4ffsl/E/x5o0Fjdax4c8Kahq1jDeozwSTW9tJMiyBWVihZACAynGcEda/N4xcpJLqfztSpupNQW70PR6K/Nr4e/tr67B4ii/4Wbqnwl8b6HJ8NLjxpez/DATSXWhCBYXe0vIpriVRIRIyj51O9QCozmvZL/9tj4XWXhjS9VTwn8Xb9LzSrjW3trfwq/2i00eBwjatNG7qVs2OdjjLMFJC4FdU8BXi7ctz06uR42EuXkv6H2DRXzeP2pvhndfHqw8A6Fa+L/FVxOmnPc6voukm50/T11GJJrNp2DCREkjkR/MEZRAw3stZGnftf8Awo1P4l33h6Gz8bQ2anVI9J8Qz6Ns0rXJ9NR3vILOff8AvHQRyY3Kitsbax75fVa38rOf+zMXa/s3tf5f1r6a7H1PRXxHdftweB9S+CHjXxF4S8GfEZ9a034ez+MdCs9c0FrOHWbSPajSQuXO+KKR181h0QO6b1AJ0f8Ahtb4e6T4N8LXvirwz8QbK8ufDdhrfil7DQzcWvhaC8bZFLeuHykbsGZNodzHhioBq/qVf+U2/sbG/wDPt728/wCv103PsuivDfA/7QHg34hftHeM/hl4b0nxlPq3ha4mg1jVJNJI0uKSPydqi5DFS0gmJRfvERSEgAAt7lWE6coO0lY4K1CpSlyzVnv958Tf8FFv+UN3xi/7hP8A6eLGv0lr82v+Ci3/AChu+MX/AHCf/TxY19Fn9s79lIdf2gfhb+GuxH+tfZcOf7tL/F+iP1/w8/5F0/8AG/8A0mJ9NUV8wn9tP9k9ev7QHwx/DWUNcx4x/bc/Zmt/hJ4pm8O/H74dHxDHpFy2mCLUUkf7QImMWFIIY79uAQQa98+8PsWvhP8A4KXf8oS/jV/3B/8A09WFeOfBP9pz9so/sqeCPij45+Ceh/HrwBrunC6Gr/Dq8WDXbRQzIwn09wFnlDIw22+1enIPFcD+2N+2N8Afjv8A8EcvjP4Z8G+MTp3jvOlrL4R8QWr6fq0bx6xZNLGIpOJGRVYsImfaFYnGDgA+2aKKK+DP64PmjUf2ifsHgT9ozW/+EP8AN/4VXdPB5P8AauP7W22yT53eV+4+/txiTpn2rr7T4+/DH/hJPCnhzV/Etjo/i7XLWyki0plllEEt3GrwQPMqeWkj7vkVyrP1Ar59+I37P/xp1Hxf8b9D+H+sfDWL4ffFaWCXV7nWzdDUdHYQJBceSkalJg6puXcy4LYOAMmXxP8As1/EB/2rdJ8V+BtT8N+F9JhuNIFzq9rrN7Bd3NrZRxRPBeWBSS2vWZEIjfdEUGN27aCe72dBrf8Aqy/W58o8ZmsJO0L2dtV/elqrW+zy76a663Po/Q/jh8KPEvxuvvhzofjXS9Q8ZWkk0cunokgDyQ/66OOUqI5Xj/jRGZlwcgYNcb8QfjX4m0b9om2+FXwy+G//AAsrxnHof9t6slxr0elWthaGQxxgyvG++V3BAQAYBDE4zjxr4VfsteKvAX7RXh7UNXn8O654S8O61qeqaTqkviTV5L0G7MuxE08yLZ27gSsJJAH8wY+UMSw9I+IPw0+Lmlftdy/GP4LXXgK91HVfDKaFrui+LZbmG3bypWkguopIFZi6ltrIQAVBwcnInkoqdk76de/yNlisynheapDllza8qu1G3RSum76X1TWqOlf9pL4d6B8NfCes/EyTVfhZrWt2ks58P67p05vbMQyeXK0qxxtshDdJmCoylTkZwOrv/jf8KdM+KuleCbzxppieJNRa3S0t0SSSNmuQDbo0yqYkaUEFFZwXByoNfLvxT/Z3+PXxA8H6RpmofEDQPFVxP4DutH1qe71S60aL+0ppWk+0+XZQ/wClW6qViWCXCDYrsrncDFcfsy/FOL45+D/Emg6p4P8ADL2sGhR6xrGla5fxS3UdhBBFPBcWTRNb3wYRuIpD5BVdu4EqKr2VBr4u5i8xzWMrKjdLl1a1212dr3ts0l1PpKw+KvwO8b/tBjwRa694Y8QfEDRpbqO2gmsi7wyIhjukt53TY0iozLIsTlgu4MMZrpNJ+D/wk0CHU49C+Fvw50WPUrY2uopYeG7SAXcJYMYpQkY3pkA7WyMgHHFfLHwq/Za8VeAv2ivD2oavP4d1zwl4d1rU9U0nVJfEmryXoN2ZdiJp5kWzt3AlYSSAP5gx8oYlh921jW5YO1OWh6WW+2xEHPF0kpJ6adLLv911o7DI444oEiiRIokUKiIuFUDgADsK4r/gmj/yhL+Cv/cY/wDT1f13FcP/AME0f+UJfwV/7jH/AKer+vWyT7fy/U/PPFP/AJhf+3//AG0+7KKKK94/Iwr4T/4KXf8AKEv41f8AcH/9PVhX3ZXwn/wUu/5Ql/Gr/uD/APp6sKAO2/YP/wCTD/g3/wBiVpf/AKRxV+gVfn7+wf8A8mH/AAb/AOxK0v8A9I4q/QKgAooooAKrXn/INm/3as1WvP8AkGzf7tAH4Mf8FF/+T0f2Tf8AsokP/pTZ1+yWpwiWxbjtX42/8FF/+T0f2Tf+yiQ/+lNnX7QSrvgZfagD5B+KWiiawuQUDZBzxX5vfsGax/wq79uT49fs6Xzm3sJ7ka/4bhfhdgwHVfVmhlt+n/PBvTj9c/HmlCfT5vl7GvxR/adN58Df26vg5+0bpcMq2+lasuna+IQcy2r79y8d2he5TJ77PavQyvF/VsVCp0T19HuefmmE+s4WdPq1p6rY/aKiq1neWuoaTa39jPFdWVzCs1vNE25JEYBlYHuCCCKs1+uH5GFU7yLzLUj2q5SMNyEetAHzp4/0YTWU52Z4Pavzb8BeKf8AhmT/AILR+HfElzL9h+HvxKQ6RrhY7YoZ5HQLKew2zeRIWPRZJvev1w8T6cJ7KT5c8V+an7V3wl/4Tv4J6xYWsAbWLX/TNLOOfOQH5R/vqWT/AIFntXyfEuWLFYaUbHvZbKnVjKjU+Gas/n1+W5+z9fmJ/wAFQ9f15f2aPhf8PLHUzoXh3xp4zhsde1FlPlxxIAyJIcgbN5EpBIz5HXANe4/sL/Hr/he/7CWhXWr3hn8d+Gdui+Jkkb968sSgRXDA8/vY9rE9C4kA+7XuXxr+C/gb4+fALU/h34/sZbnSLl1mtrm3YJc2FwoYJcQuQQsi7mHIIIZlIKsQfwSl/s2JXtF8L/r/ADPicH/wmZpH26+CWv8AmvzR4N4n8ffs/wD7GXw8+GPwb1zwrqei/DjXoJrCXWhoxuNMjkCqGbUJcfPJPuctgOcAllCcjI/Yp+Dfif4L23xosp9R8O3vwq1/xWNZ+H0mi6mt1ZvZTIx3Ie3yfZ4znqYiQSMMflv4mfsUftKa1rnws+CUnx88d/Eb4E3d4za/dahbw20eiWttsaGJv30kt1IQGEe4eWrLHwAPl8517xtoX7RvwQOjab+zB8Rb79lH4Waq2n2ep+DPFyWuoQJDCC8sthL8tyfLKytxvj3kmUb33dyoRlTtGd7/ABP56b218j6COBp1cM40q3Nz6zl/28+V2k4tSburXd1r6/ulRX5EfsX/ALTEvhP9l743+IvGWpfEDX/2dfBOv21r4N8Ra1YPd6vHbzyspt5vKLB1hRoHYjiMSYHBRF+2v2X/ANo4/tLfDrxf4usvAuseE/DGneIJdP0TUbydXTWIF5EqrgMjqCodfmUM2FdiGC+fXwVSk5X2XU+bx+SYnCuo2rxg0m/VJpeuuq6H0ndQiWEgjNeLeNfDa3VpL8gPB7V7n1FYmp2K3FswK54rCnOzPNoVXCVz8WP2n/gZqWupZeMvBkk2k/ETw7MLrR723fy5HKNvEe/sQw3IezegY19M/sp/tKWHx5+FM2na4sej/FPQEEPiTSXXy2kKnZ9pjQ87GYYZesb/ACngqW+hfHng5bq2mIjByD2r8rPjb8IfGPgX4yWvxt+DU0+j/EDSZPNuraBfl1KMDDAp0clflZDw68dQM+xHkxNPkk9Vs/09D+gPCzxGnlFdUqrvTluv67f8DzX6/wBFfNX7N37S3hL9oT4aNPaCPQ/HWnRhdf8ADsr/ALy3foZY88vCT0bqp+VsHGfpWvHq0pU5OMlZo/tDB42ji6Ma1GXNGWzCiiiszqCiiigBCAetRNBG3VRU1FAGdJp0L/wiqjaNC2fkWtyinzMhwi+hz40ODP3F/Kp00iFD9xa2aKfMwVOPYppZRIBhRVlY1UcCn0UrlJJBRRRSGFFFFABRRRQAV+S/7T/xm1j9oj42/wDDOfwjvn/4Qqxug3jXxDbtuiuCjcwoRw0SMP8AtpIBj5U3N0/7Tv7T2uePvG93+z1+z1dteancFrfxT4qtZD5NnFnbJDFIvTrh5B/uJliSPQv2efgLpHw98DWmladAZrhyJL69kTEl1Ljlj6AdAvQD1OSfZwuHVCPtam/Rfr/kfgHit4l0sLRlgcHK8npJr8l+vfbueqfBP4VaX4S8FaRoWj2ItdOs4gkSAZJ7lmPdiSST3JNfcvhvR1tbSP5cYHpXL+EfDUdraRfu+gHaup8e+MdI+F/wB8X/ABA1uOaTSfDukT6jcxQjMkqxRl9i/wC0xAUZ4yRXDWqSqS7tn8a47FVMTVstW3+LON+P/wAb/DX7PP7Nd/8AELxNa6td2iXMVlbRWFk058+UkIXwQEjGCzMzDONoyzKp/KnwF8Gv2mvEf7N/hn9sT4M/tBav4++LeqiTUNd8LzzZs7pBI2+wVS/ls0e3aYGVV/55lCqbty4/aa/a88W+KfhdLqnhP4JeKvBnxcEx0v4XXKNNcf2Pn57m8lK/uofLDHznYrwzGLClR638B/gZ4h8EftQeHfif+x/8S9G1b9mTxZq1xH4t8OapcSzwWP2eSSKVrXdhpDviKRScOMxlvMjJNejTp/V6bu1d/NPyfb9bH02FwryzCyUnFTet3aUZJXTg9PdbadukmrJ6F/4YfDL4B/t22dj8aPiP8Gtf8EfEvw5q39m+LbECS0s9Wu4ANyS5Ueei8Bgdsqf6t2ZQpP6dQQQWtlDbW0MVvbQoI4ookCpGoGAoA4AA4AFOSOOMMI0RAWLEKMZJOSfqafXlV67qPyWyvex8jj8fLESSV1BfDFtvlXZXCiiisDgPE/2ivi9YfAv9jXx38S7t4Dd6Zp7LpUEp4ub2T93bR46kGRlLY6KGPavyZ/Y1+H9/Z/C2TxjrxmuvE3i28bVL+5n5lkVyTGWPcnc0n1lNdN+3X46k+PX/AAUA8E/s0+H7pp/CHhGQar4xeB8o90VH7skd44nCAjo9y4IytfXfw08Nx2em2kUUCRRIgVEVcBQOAAOwr9W4EylqLryWr/r+vU/R8pwv1LLU5fFV1f8Ah+yvnv8Ace7eFdOENjH8uOK9FUbUArI0q2EVqvGMCtmv1uEbI8+crsKKKKsginnhtrOa5uJY4LeJC8skjBVRQMkknoAOc1+MX7M883xr/wCCgXxx/aCuUkmstT1ltN0KSRTkWqFdq89CsMdqv4tX2l+3v8Vz8Lv+CdPiqGwuDD4i8WMPD2mBD8+J1b7QwxzxAsoBHRmT1Fcv+yH8Lf8AhAf2c/COgTW4j1BLYT6hxybiX95ICe+GbaPZRXwvFuLvOFBdNX+n9eZ91wlhLQnXfXRfr/XkfoH4C0zydPhyuMAdq+bf2kF2/wDBYr9gUe3jf/0zwV9l+GLEQafEMY4r44/aV/5TIfsD/wDc7/8Apngr4PH/AO7VP8L/ACPezz/kXYj/AAS/9JZ9Z1w/xO8Gf8LH/Zv8f/D7+0v7G/4Sbw5e6P8Ab/s/n/ZftNu8Pm+XuXft37tu5c4xkda7iivzaMnFpo/nanOUJKUd0fOt1+zp4YX9gfXfgloA0Hwxc6v4OGgX3iHT9Aiie4k+zCA3ckKMpdiQXKmTOTjd3ry74t/sb2PxH8a+D/FFh4i8JWviHR/BUXhOdvE3ga21+0kto3MiXMFvNIqw3KM0hViXXD7WUjr9t0V0QxdaLumdtHNcVSlzRnrdvo999/Q+G/FP7GMfiH9oPwX4ttvG+i6PpnhyTSDp/wBj8G29rrFlHp6RR/Z7a+tZIQkEyxndHJDKsYYrGEXCjK8KfsL6P4R+JesX2m+JPB58OzDV308SfD2yfW4ZNQSVAsupsxleKDzmKCMROwwrPtGD980VX1+vy8vNp8jZZ5jVDk59LW2X+X47nxo37IkE3gvwlodz4+le20b4JX3wzleLRgj3K3UMURvhmYhCojyIjuzu+/xz57rP7CLaz4j0PWrzxz4H1LWx4c07Qtdu9Z+GlnqglisMxxT2Md1LItpM0ASJ9wmRiN+3IUD9DaKI4+utpfgghnmNg7qf4L17dzx34TfCSH4Wa58U7qDWU1WHxh4xl8QRwJYC3Gnq9vbwC3GHYSBfIzuwn3sbRjJ9ioormnOU3dnnVq06s+abu/6R8Tf8FFv+UN3xi/7hP/p4sa+0h8DPgmv3fg98LB9PCll/8ar4t/4KLf8AKG74xf8AcJ/9PFjX6S19nw5/u0v8X6I/X/Dz/kXT/wAb/wDSYnmI+CXwYX7vwj+GK/TwtZ//ABusLxZ8CPhdqvwq8TaVpHwu+Gltql7pNzb2cv8AwjlrHsleJlRtwjyuGIORyK9ror3z7w/MP4WfsG/E1v2evCfw8+PH7Rvi7UvAuh2K2lv4E8ASf2RprR5LFLm6CrPdqSxJ3KhB6Gqv7bnwI+D3wU/4IV/GrTvhb8O/DPg6Mx6OktzZ2oa7uFGtWHEtw+6WX/gbmv1Gr4T/AOCl3/KEv41f9wf/ANPVhQB3FfKXxK8R/Ebxb+3doXwO8D+OZPhnp0PgmTxTrGtWmm293eXYN39kitolnVkRQwLs4UnkDjv9W14v8Svgno/xE8e+H/GNp4o8YeAPHGjW0tpaa/4Zuo4bh7aUgvbyiSN0ki3DcAVyrcgjnPxNGUVLU/qfM6NapRSp33V0nZtX1SfT712PEfhD+0N4pfxrpHws8fQweLPFY+I+t+DZfE1oEtI7ldOtBdpdPAilQ7owRo0ICkZ9qpWv7TvjXxL8b/gyvh7wVbWvg3xGPEqarFPqcbTO2lzeSzI2wFAgUS4wd/mhRgoSfSD+yr4Eg+GPhTQdF8SePvDus6Dr9xrsPiqw1OP+17u+uUaO6mnlkiZXaVW2sdg4VQMAYLNP/Zc8IeG/B3gK08N+IvG8V/4Lk1ebRri4v4JJLv8AtNt9zBclocPGxCjICuAPv5ya6efDt3t/Wv8AwDw4YbOIwUHLRWd7q+8NLtXeindve6OA0X9si5uvCGl6/wCIvhBrvhfR9e8Eap4k8K3MutwTrqp062a4uLchF3Q/IuUdh8wIO0dKs/FH9p/XtI+EWryeDPCca+JG+EEHj20urq+VorRJp0iMTIUHmGMMXzkbtuMDOaZ8G/2R9L0D4P8Ag6P4la14r8Qa5p/g670IaJcarHNpukC+Qpe/ZNsatmRSVyztgHAwAoXqNF/ZB8CaZpev2up+NPif4rGq+Bm8GO+s6rBIbXTN6vHHDsgXY0e0bTyOWLKxJNNvDKe2xnShnlSgk5Wcl/dTWi7Lve3ZWvqJ8e/id498If8ABLa++JWl3S+CPHAtdJkkmhjhvhZm4vbWKbaJI2jfKSOOUOM8cgGvJPB37S/ifw3b/ETUNQ1bxR8dPBdsdKs/B+tz+F10CfVdWvJnhOnrmKKN1B2MZdg2ANkMSufq7xV8HNE8a/sow/CPxJr/AIovtHWKySTVRNAmoTfZJ4p42ZhD5eS0KBsRjIzjB5G98Tfhv4f+K3wku/CHiOXU7S1knhuba+02cQ3dlcQyLJFPC5BCurKCMgjqCCCazhVpKPLJdfw0+f4nbicDmE63tadRq0FZX3l717q/L1WvK9UrWSPnDUv2ttS0LRr7TNc+D+twfEzT/Gmn+GL7wlZ63BcMZNQtZbizmhudoSRJBFtwQm0k5Ixz2fwa+KfxL8bftT/Gjwl428I2PhjTPDJ0wWltFqUVzJZSXFlHM0LugAm3bmfeMBcbeetT6T+zB4Nsrmz1PVPE/jnxL4pTxrY+Lb7X9SvIGu9Qu7KF4beKXbCEFuiSMAiKpH96vTdC+Gek+Hf2i/HPxI03VteGoeLYbVdX0ySWNrJpLaJIYpkXy/MVxGgU/OVOSdueaU50eVqK6ee+n/BHhqGZupCVaeilt7vw2lvZau7je2m7XQ9Hrh/+CaP/AChL+Cv/AHGP/T1f13FcP/wTR/5Ql/BX/uMf+nq/r08k+38v1PhvFP8A5hf+3/8A20+7KKKK94/Iwr4T/wCCl3/KEv41f9wf/wBPVhX3ZXwn/wAFLv8AlCX8av8AuD/+nqwoA7b9g/8A5MP+Df8A2JWl/wDpHFX6BV+fv7B//Jh/wb/7ErS//SOKv0CoAKKKKACq15/yDZv92rNVrz/kGzf7tAH4Mf8ABRf/AJPR/ZN/7KJD/wClNnX7SV+Lf/BRf/k9H9k3/sokP/pTZ1+0lAHG+JbHz7KTjORX5u/tT/CmD4h/AjxV4XkRFlu7VjaSsOIrhPnif6B1XPqMjvX6jX8Ims2GM8V81fEjQBcWM+Ezwe1AHxj/AME8vi3c+Pv2JF8Da/JIvjL4eXX9iX8Ex/ei2GfsrMO2FV4f+3c+tfetfizZ64/7Kv8AwWM0jxjcP9j+GXxLzpuvsflitbhnUec3YbZfLlLHna8wFftNX6fw9jvrGESb1jo/0/A/MOIcD9XxbaXuy1X6/iFFFFe6eEZmo24mtm4zkV85fEDw8J7SY+Xng9q+nnXchBrgfEmlLcWUgKg5FYV6alE3oVOWR+PvgrxpL+x9/wAFTtP8Y3DvZ/CH4gyf2f4oTkRWcrNkXBHby3bzc9djTqBX75xyRzW8c0MiSxOoZHRsqwPIII6ivyS/aF+Elh47+GOsaBfRhPOQvbT7Mm3mXlJB9D19QSO9dz/wTr/aDv8AxH8OdT/Z0+JF0YPiX4CQw6b9of59Q01CFUKT95ocqnvE0RGcMa/EOM8ldGr7eC0e/wDX9fgacS4H61h1jIfFDSXmuj+Wz+R+m9fnl+0T+wfoXjn4d+MLj4Haxe/Cnxd4kv0ufEFnb6veRaPraEsZUltY5PKV2JVgdhXKY2jcXH6G0V8PRrzpS5oM+MwOYV8JUU6MrP8AB+q6n41/G3wt/bnxt+Ef/BNv4OSSeCfAVpYw6n421iZlSfUIlBuHxnHnOcGZgAQ0roMKsTVkeAPj/ceDv2k/G3wP/YF+DPgbXND024e+1ebxF4jcTa7LbxxwSvZLJcx/L+74Kl92TJtUGv10134beBPEvxL0PxprXhbRr/xfosE0Gk61JbKbuzSZGSRUk6gEM3ByAWJGCTX446T+zv49+FemRfAPxV+zb4s+IGmW/i2XUvBXxm+HeqRWer6QkxQLOWIAWRNibo5pI047hEkr1sPiKdSDjLp0fV9Xur9D7HLcww+KoOnU6K7TekpNtym9Y81rKyvda2vY/Un9m3496N+0Z+zHZ+P9L0m78PX8V7LpuuaPcvvfT76IIZIt2BuXDowbAOGGQDkD3pl3Lg1+Hfj34b3n7P8AP+z1+yP4J+J99pGtX/i26+IPj7xtbzf2c9jZxBo1uC28+Wi20E5Ks5UvCvJDAD77+Af7Zvg/9oT9qPx/8PvB3hPxLDoXh6wW+svFN0AttqEO5YyzRsA8O9m3Rg7i6KzEIRtrjxODsnUp/Dv6K9l9542Z5JZSxGGV6bu/SN7J699bdbI+o9Y0pLq2cFc8V83eOvAyXMMxEQOQe1fWgaK4tUkidJYnUMjocqwIyCD3Fc3q2jx3UDAoDkelc1Ko4s8bDYmVKR+Gfxh+BHijw18Voviz8G9SuPCXxH0+Qzf6MwSO/wD7wYH5dzDghgUcHDDnNfU/7Nv7Ynh34uXUfgPx7ax+AvjDa/ubjSrrMUOouo+ZrcvyH7mFvmH8JcAkfUnjPwHHcwykQgkj0r88/jr+zLonjbN95UujeJLYZs9Xs1xLGQcqGxjeoPYkEdiOa9VTpYiCjU36Pt/wD918PvFHFZPNQk+am90/6/H89j9PqK/JH4cftcfFb4BaxY+CP2jdJ1Hxh4ODiCw8Z2QMt1EvQeaTjzgB/e2ygAnMnAr9PvA/xA8F/ErwLB4l8CeJdK8T6LLwLiym3eW2M7JFOGjcd0cBh3FebicHUo6vVd+h/X3D/FOXZzRU8NPXquq/z9UdhRRRXKfRBRRRQAUUUUAFFFFABRRRQAUUUUAFFFfNfxy/ar+E3wI02e21/V11zxhszbeGdKdZbxyR8vm/wwIePmcgkfdVulaU6U6kuWKuzmxmNoYWk6taajFdWfQmq6rpmheG73WNa1Cy0nSbOFpru8vJlihgRRks7sQFA9TX5RfGf9qLxt+0P4tvvhL+zt9v0fwRuMPiDxm6NC91GeCkXRo4mGeOJJOmEXdu4HXX+O37Xniy2v8A4kzXXgD4WxzCXT/CdgzIZhn5Wk3cu+P+Wkg452IobNfcnwp+C+j+GPDdjpOi6TBp2nwgbIo06nuxJ5Zj3JJJr16WGp4b3p6y/Bf5s/nDxB8YouEsLl7stnLq/wDJfj3tseffAP8AZ90PwB4Sg0/SrRpLiQq97eyqPOun9WPYDnCjgfUkn9BvCHhKO1t4v3QyB6VP4V8HxWkMZ8oDAHavX7KyS3hAAAwK4sTiXN3bP5UzPNKlebbd2zOvb3SvC3gfVdf1q7h07RtLspby/upPuQQxIXkc47Kqkn6V+bNx+11e/EXwXrmt/GjwP4T+GP7G/i7SNQ07TtZ1zUWk8Qa4mDAPs1pCzyFmLFuIdsaqW804UtY+L/8AwUD+Ed9ovjzwe/wt+KHj74MSi48NeJvHGi2oTT8zxtDLHA74VyQ5ClnTd1XIwT82XP7NWhfBif4c+MNF+GPxg/bXl1jTi/hDS9W0ia00bwxbuglt0voCsuWJlBMUghjALsVB211YbCqKvVVm9v6vZP1PYyrKIUoN4uDU5fD8ld2d0oyWj97ZbJsr/Ar4EfH3Q7DxTrf7KPi/4R/FH4b+M9NfQtO+IHiBp4tU8PWQeQvbCByGtpAX3OgikVjscKOMfrx+z78HNL+Af7I/g/4W6VfSaqukW7m7v3TYbu5lkaWaQLk7VLu21cnChRk4yfNv2NPgPq/7P37HCeG/EslgPF2uazPr+u2un4FpY3E6xp9mhC8bI44o1+XjcGwSMV9X1z47FupNxTur79/U83P83nia06aknFPe2sraJvvZXtay62CiiivPPnAr59/ae+Ouk/s8fsd+J/iHevby6wkX2Pw9Yyn/AI/dQkBEKY7quGkfH8Eb98V7/JJHFA8srpFEilnd2wFA5JJ7CvwR+MHxAl/bR/4KQrHpkr3nwK+Hcxg0wDPk6tcFhvnx/EJGQY/6ZRrwpkNerk+XTxuJjBLTqe/w9lSxuJvP+HDWX6L57fea/wCyb8NNXh8PX/j/AMXPcah448YXbanql3dczESMZF3H+8xdpG6cvg9K/RLVfHHgH4Q+BtM134heIbPwvpN5fJYW1zcxyMslw6O6xgIrHJWNzyMfKawvh54ZEFpATHjAHavm3/gphbrafsM/DmQ4SNfiRZbmPAA+xX3U/hX75Sp/UcE5QXwo+3nNYzGRhLRN9D9APiD8T/AHwh8B2fiL4i+JbPwtolzfJYwXdzHI6vO6O6xgIrHJWNz0x8tTWfxQ8Bah+0Jqvwps/ElnP8QtN04ahfaKscnmw258vEhYrtx++j6Nn5hx1r4R/wCCphB/YD8Exggu/wARrLao6t/oN/0qx4G/5WdfjL/2TCD/ANxVdlXMKkMT7JJWvFfepP8AQ5KWX054b2rbvaT+5xX6n6R0UV4n+0R8YNP+Bf7IPjH4i3hhkvrK0MOj2sh4ur2X5II8dSN5DNjkIrntXqVakacHOT0Wp5lKnKpNQitXofm58ftbb9ov/gszoHw8s3N54C+FURl1AKcxTX5ZHlB7E+YIISp/54y+tfqj8MdBENjAdgHA7V+aP7D/AMLtT074Xz+N/EvnXXi3xleHVtRuJxmVkclo9x7k72kPvKR2r9jPBekC3sIvlxwO1fkGNxUsRXlVl1Z+vYLCxw9CNKPRHpOmwCKzUe1eAfHz9mLwn+0F4n+H2vaz43+KXw+8SeDHvm0PWfAuuJpt5ELyOKOdTK0UhAZYlX5dpwWBJDEV9HxrtiAp9cjSaszplFSTT2Pgr/hgqz/6O5/bj/8ADpj/AORaP+GCrP8A6O5/bj/8OmP/AJFr71orP2FL+Vfcc31HDf8APtfcj4K/4YKs/wDo7n9uP/w6Y/8AkWj/AIYKs/8Ao7n9uP8A8OmP/kWvvWij2FL+VfcH1HDf8+19yPgr/hgqz/6O5/bj/wDDpj/5FrHu/wBiPSbHxFaWF1+11+3FF9pQmKU/FNdu4HG0/wCi8V+hteN/F+0vbjStGbT3aO5WVyGXqANv+Jr1MlyvD4vGQoTSSlfXtpue1w9kOBx2PhhqkYxUrq9lpo2mfN3/AAwVZ/8AR3P7cf8A4dMf/ItH/DBVn/0dz+3H/wCHTH/yLX1h4M1vVD4es4NcidkZdsV6oymRxtY9vYmvRa5sblkcNVdOUU7dVszkzHIaWDrypThF26pKzPgr/hgqz/6O5/bj/wDDpj/5Fo/4YKs/+juf24//AA6Y/wDkWvvWiuT2FL+VfccH1HDf8+19yPzz13/gnR4N8WeGJ9B8Y/tJ/th+MfDdy8bXmja38RY7qzuwkiyKskTWuGAZFYdwQCCCAa/QyiirjCMVZKxtTpQpq0EkvIKKKKo0CvK/jZ8IPC3x7/Zg8U/Cbxpc6zaeGteSBbufSZ0iuozDcRXEbRs6OoIkhTqpBGRjmvVKKAPz9/4d8aF/0dV+2t/4cxP/AJFo/wCHfGhf9HVftrf+HMT/AORa/QKis/ZQ7I7P7QxX/P2X3s/P3/h3xoX/AEdV+2t/4cxP/kWj/h3xoX/R1X7a3/hzE/8AkWv0Coo9lDsg/tDFf8/Zfez8/f8Ah3xoX/R1X7a3/hzE/wDkWvjvxD8KvA2g/wDBYnwZ+y5J+1L+2K0WseFpru61Bviavm2+pNma2ts/ZtoVreKViCpLNLBgjkN+2ur6tp2g+E9U13V7qKx0nTrSS7vbmU4SGGNC7ufYKCT9K/mK8ReHPiP4/wD2s3/ah0+4vrP4jazoGp/Fnwzp8nJgsdL1SOK1t2A5YfY7aQrg/MPLHrk9lDsg/tDFf8/Zfez9hP8Ah3xoX/R1X7a3/hzE/wDkWj/h3xoX/R1X7a3/AIcxP/kWvtD4d+N9H+JfwH8HfEHw/J5mi+ItHt9StMtlkSaNX2N/tLkqR2IIrsqPZQ7IP7QxX/P2X3s/P3/h3xoX/R1X7a3/AIcxP/kWj/h3xoX/AEdV+2t/4cxP/kWv0Coo9lDsg/tDFf8AP2X3s/P3/h3xoX/R1X7a3/hzE/8AkWvq74J/CDwt8BP2YPC3wm8F3Gs3fhrQUnW0n1adJrqQzXEtxI0jIiKSZJn6KABgY4r1SiqjCMdkY1cRVq255N27u4UUUVRiFfCf/BS7/lCX8av+4P8A+nqwr7sr4T/4KXf8oS/jV/3B/wD09WFAHbfsH/8AJh/wb/7ErS//AEjir9Aq/P39g/8A5MP+Df8A2JWl/wDpHFX6BUAFFFFABVa8/wCQbN/u1Zqtef8AINm/3aAPwY/4KL/8no/sm/8AZRIf/Smzr9pK/Fv/AIKL/wDJ6P7Jv/ZRIf8A0ps6/aSgBGGVIrzrxXpQuLGT5c8V6NWbqNsJ7RhjPFAH5BftffBZfiP8BNe0WCBDrEI+16S7cbbmMEqMnoGBZCewc16D+wv8dX+Mn7GtlpOvTyf8LC8FlNG8Qwzn99IEBWC4YHnLohVieTJHJ7V9R/EjwytzYzny85B7V+O+v6td/sh/8FP9C+MFrHPF8MvGMx03xlbxISkRcgtLtH8QIE47kpKvAevZyLMfqmJTfwy0f+fyPGz3LvreGaXxLVf5fM/bevHfiX+0B8Hfg9r+m6X8SvHWmeE9Q1C3NxZw3UMzmWMNtLDYjDGeOa9atLu11DSbW/sbmC8srmFZre4hcPHKjAMrKw4KkEEEdQa/Nr9o3SdK13/gux+yfpOt6Zp+saXcaPqAuLO+t1nhlAjuSAyOCrYIB5HUCv0bH4idKkpQtdtLXzdj86wGHhWquM72Sb030Vz7W+G/xy+Efxemvovht4+8P+LLmzQSXVtaTFZ4kJwHMThX2543YxnvXmfin9rv9mnQPGWteGdd+K+hafrulX01jqNpJbXJaCeJzHJGSIiMqysOCRxXyl+0b4S8KfCn/grh+xxr3ws8P6L4Q8Q6/wCIJdP1630SzjtY7mzaa1hZ3jjAUkx3FyCxGSFHPyjHiPwtX4jP+2n+2CvgX9mfwN8foT8TdQF5ceINSsLc6aftt7tRFuuXD8k7f7gz1FeVWzTEQn7Ky5k7Oyb6X0S1PTpZXQnD2t3ytXV2k97at6eh+iTaz4K+J/w8PiXwJ4i0bxXocjtGLvTrgSorjqjY5VhkHawB5HHNfnB8fvBXiz4efFvQPj78LnfTvHnhO4W5lMSEi7gXO4Oo++AhZWX+KNmHYCvev2AdPsoLT9obQtTsJPCvj6HxoZte8HR23lWmhq5lEUduQ7B0ysqZGMCNByNrH6Q+IPhBbi3nPlZBB4x1rHEYdY/BqU1v/wAN/S+RpCosJiZUt4+fVNfj/TPof9nv46eFP2h/2ZNE+InhaRIXmXyNX0wyBpdMvFA82B/oSGVsDcjK2BnFe3V/Ph4a8X+JP2H/ANtD/hYGhWV7qHwX8TTrbeLtDtulvljtkjXoHQszRngcvGSoYGv3u8J+K/Dvjn4baL4v8J6taa54b1a0W60++tmyk0bDg+oI5BU4KkEEAgivwrOcqqYGu4tadD4fiDJvqVVTp605bPt5PzX4o6GiiivIPnj87fjF+xL4d8dft3eJv2hPiB4u8TeJ/AqaCst/4EsLNjNefZI0ZLRWiO6SBjCJPJC72kON3NfBf7Pfhj49ftN6L8RtA8D6c3wh8BeM/Ekl18R/Ggt/KLWkeYrXQrBBtzDBFlSi44fa7KgCyf0DV4d+0X4B8W/EP9hf4l+AvhxqcPh3xZrOlvFYTrJ5CuzSrJLEWH3fOUSRlv8ApqSe9enQzCaShLySb2Xy/rY+qy/iKsoKjUs/hUZPaCXXl2fR3fZb2PlK++N11+yb4X0X4b/Dv4AfE34o/AnwlpSvqXxAsPECaiIUBLTsqqrrmM53RvJAE5wiRhWP3d4F8ceFfid8H9B8deC9Wt9b8Maxai4sbuL+IZIZWB5V1YMrKeVZSDgiv57fFPgTVPAeh/DD9n/4a/Cf4y/CD9qDxVZppviW4i8Z50zxBauJIp53SGaRXgZklb7saRojHMmM19bS+E9X+F37fn7HX7Kfw28a6vpWm+AdJuvE/jvWbS5MCXSzSPcXSzjOBE4gZAjZCrcpnJGa6cRgqckmnrq790uu73e1vuPSzHI8PUhFxn775pN780Um3J+9JauyVnrfbQ/W/UNLiuImBUHIryDxN4Jhuo5D5QJPtWN8LP2rvhJ8aP2kPGHw1+Hl1rviG58PQLLca7b6Y76Tc/MVZYrlcjg8AuFWTkxlwM19EXFokyEFQa8p89KVpKx8jONfCz5akXF72fmfnV49+Edlqml3dnfabbX1lMpWWCeEOkg9CCMEV8D61+zt41+GHj+bxl8BfGOsfD/Xhy9ks7G1uADnYwOQUz/BIrr7Cv3a1bwzDcxt+7Bz7V4z4i+HUNwshEA59q9ChjnHTofUZNxRicHNTpTcWux+cPgz9vjxl4F1C18P/tJ/DTULA7hGPE3h+IGKU9NzQk7GPcmOT6R9q+9/hz8cPhN8WdPSb4f+O9A8QTFdzWKT+VeRj1e3k2yqPcrjivIvFnwgtb6zuLe5sILq2kBEkUsQdHHoQeCK+LfG/wCx14OvdRa/0a11DwnqaPvjn0mXYqsOQdhyox/s7a0lQwtXVe6/Lb7j+gOG/HTFUoqGLiqi77P7/wDNNn7CUV+MemP+2V8KCsfg74uSeNNIh4XT/EqfaCyjooMwcqB/syr/AEr0LTf25v2hfCwEXxF/Z6tdfCcPc+HbqaAY/vHAuF/UD6Vzyyup9hp/P/M/Xss8WcgxSXNNwfmr/ld/gfq1RX5wab/wUv8AhQsiQeK/h98TvDV0eGCWtvOiHvktLG3/AI7Xd2f/AAUQ/Znuow0+u+KNOP8AduNBmJ/8h7hWEsvxK+wz6qjxbk1VXjiY/N2/Ox9yUV8WP/wUD/ZeWPI8a6vIf7q+HrzP6xiuc1H/AIKP/s42KObaTx3rBHRbPRApb6ebIn60lgMS/sP7jWfE+URV3iYf+BJn3tRX5l3/APwUl0rUAU+H3wN+IfiqVv8AV/a5ktgfQ/uUn/z3rgdT/ap/bJ8ch4fCHw88I/Dexk/1d3ex+fcxfXznIP8A34raOV4h/EkvVnhY/wASMgwqfNXu+yT/AFsvxP1vkkjht5JppEiiRSzu7YVQOSST0FfKHxS/bW+AHwuS5tZvFsfjPX4sgaV4ZC3j7v7rSgiFCDwQX3D+6elfAF98Fvjd8WrhZPjN8ZPFPiK0dgz6VZTMlqD6qhAiX8IhXvPw6/Zb8F+FZYJtL8NW7Xy4IvbtTPPn1DNnb/wHArojgKENakr+S/zPzPPfHWhTi44Knr3f+X/BZ5l4n/aG/am/aCd9N8B6R/wo/wACT8Nf+Yx1GeM+kxAcZHI8pI/TzCK6T4Sfsq+HvDmrx61fxXHijxPJJ5suramPMfzCclkU5CknnPLc/er7h8NfCxI/LLW4/wC+a960DwJDbIh8kD8KueMjCPLTVkfz/wATeIWYZpNyr1W/L+v00PHvB/w1SFYiYB27V9GaB4VhtYk/dgY9q6rTtDht41GwDArO+IHjvwj8J/gtr/j7xtqkOj+GtHtTPdztyx7LGi/xyOxCqo5ZmA715k6spysj83rYqrXmox1b2OstrRIY1AAGK+LPjD+1LZWf7bHw2/Z2+HB8NeMvEOva3LpXjmze9e3n0e2e23h4pQCnmKrSSEAOR5QQhWkBHxpqd9+2D+0Z8CfHH7V+g/GS8+BPw80O2u9Q8FeErW9kijvrOz3tI90yMEYt5bDdMsgdww2pHtJ67Q/glN+3J+wd4C/aKsGg+Fn7Tdi8i2/irTYzbW+sz2UzRxzTLHypJjGJUG6NgQAyKqDtp4SnTfNUlfp6Pz/4B72HyXD4WXtMVUTS912v7s2tObul15Xo0fNWneH/AB1+zN8a/C3wj/aL+H/xC+I/wS8H6veaz4J0/wAIaKk9j4j1KV1+zzXTFlEipknymJdGfBVkOG/Uf9ibwb8UNB+AHjfxl8WodW0rxR8QPGd34mXQ9RneSfS4JkiSKKTccq+2MfIQCqhFIBBUd3+y74m+PXiP9neaP9ofwbbeFfHOk6lJpwuopUzrEcWF+1mJPlQM2QCp2vguoVSor6RrPGYyU04NK/VrZ+nr1OfO85qVlKhKEebq4u6dne66K71fV+VrBRRRXmny4UUV8iftgftTaJ+zV8AzNZ+Rq/xP11Ht/CmiffLyfdNzKo58mMkcdXbCDGSy6UqUqk1CKu2dOEwlXE1o0qSvJnzT/wAFBv2jtSjhtf2WvhNeG4+IXipFj8T3Ns//ACC7CQZMDMPuvKnzP3WHPH7xSML9n/4Qab4E+G+laBp0O9YV3XE7JhriU43yN7k9B2AA7V4V+zl8Htcj1fU/iJ8QLi51n4leJp2u9Wvbtt8sfmNvKE/3iTlscZwBwor9OvBvhtLW0iPl9AO1ft3CmQLCUk2veZ+lSp0sBhVhqTvbVvu+/p0R2XhrSFtrOMbR0rlfj38C/C/7QX7Nmo/DrxPcXenRSTpd6fqNqA0ljdRhhHKFPDDDsrKcZVmAIOCPYLO3EUA4q7X3kqMJ03CSumeNGvOFRTi7NH54W/7E/wAQvGHjbwQPj3+0brfxZ8DeEb1LnSvDw0COy+0sigIbiUSMWPGCWDuVLAOu4mvftC/Z7/sX/gp14z/aO/4S77T/AG/4XTRP+Ee/srb9n2/ZP3v2jzTuz9l+75Y+/wBeOfpGiuenl2Hhqlre+rbd1otW+h0VMxxE930toklZ6vRLqFfjj+1f4rf9pT/gpL4V+AOgyvd/D/wFOb7xbLE2Y57zgPGcdSikQDuGlm/u198/tX/Hmy/Z8/Y+17xak0DeLLxTp/hi0fBM17Ip2uV7pEMyN2IULnLCvjT9jL4MX3hj4Z/8JB4kSe48aeJpxqWs3FyS02XJZI3J5LAMWbPO93r53irMeWCw8Xq9X6dPvPouFcu5pvESWi0Xr3+R9/fCvwqlrp9qFhVEVQFVVwAB2FfX+jWYgs0GMcV514K0Nbawh+TGAO1evwoI4APavgz7wlooooAKKKKACiiigArNvNOivdWsJ5lV0ti7BSM5LDH+NaVFXCpKDvF6/wCehpSqypy5ouz1/FWPPtBkOgeN77w9cMRazt5tkzdDnt+I4+q+9eg1z/iDQo9a09Cj/Z76E7reYcYPofb+VYFt4qvNKdbLxLZXEUq8LdRrlZB6+/1H5V69ai8clVpaz+0ur813v18z3q9B5lFVqOtS3vR6tr7S73622Z39Fc/H4q8PyqCupwL7OCp/UVL/AMJJoWM/2rZ/9/K894LEJ6039zPJeXYtOzpS+5m3RXIXfjbQ7f5YZJ76ToFhjPX6nH6VR/trxXqf/IM0VbGE9Jbo849RnH8jW8MqxDXNNcq7ydvz1OunkeLa5px5F3k+X89fwO9orhBoXiy5+a88SfZ2POLdTgfltqOSx8YaOvn2mpDWol5eGVcsw9s8/katZfSfuqtG/wA7ffaxayqjJ8scTBy7apfe1Y7+iuf0PxFaa1E0YBtr6P8A1ts55HqR6iugrgr0KlGbhNWaPMxOGq0Kjp1I2aCiiisjAKKKKAGuiSwvHIiyRupVlYZDA9QR6V8DeJNL0y3/AODhH4S6Xb6dYwaZH8D9St47SO3VYUiF8FEYQDAXaSNuMY4r77r4T8Vf8rF3wq/7Itqf/pwWgD7ltrW2stOgs7O3gtLSFBHDBDGESNQMBVUcAAdhU9FFABRRRQAUUUUAFFFFABXwn/wUu/5Ql/Gr/uD/APp6sK+7K+E/+Cl3/KEv41f9wf8A9PVhQB237B//ACYf8G/+xK0v/wBI4q/QKvz9/YP/AOTD/g3/ANiVpf8A6RxV+gVABRRRQAVWvP8AkGzf7tWarXn/ACDZv92gD8GP+Ci//J6P7Jv/AGUSH/0ps6/aSvxb/wCCi/8Ayej+yb/2USH/ANKbOv2koAKRhuUg0tFAHn/ifSFubKQbc8V+eP7Rfwf0vx78Lde8M6rBm1vYSqyquWgkHKSL/tKwB98Y6E1+oN5bia3YY5rwbx54ZW7spv3ecg9qAPzQ/YB+NGr2Q179lr4l3PleNvBpc+HZZn/4/tPByYkJ5bywwZO5icYAEZr3T9oL9lzxL8Y/2kvAHxR8H/GG5+FPiTwpp8trYzweHV1By0jNucM08YX5XZcFT1618aftWfCjxN4e8aaN8cvhk82mfEbwfOt2kluvzXUCEsVK/wAZUFvlPDozqQcgV+jv7O3xz8PftCfswaJ4+0TyrW/YfZtc0xX3Np16gHmRHuVOQ6E9UZTwcgfe5FjaeNofVq2rjtq1dLbbqj4LPcHUwVf6zR0Ut9E7N779zyX4Vfshnwn+03bfGX4rfFfxP8cPiPY2jW2j32q2gtLfTlYOCY4RI+Dh3AG7aC7MF3EEeer+xb8WdA+OvxT8Y/Db9qnVvh3beOPEt1rWoadZeCo59jTTyypGZGuxuKCZl3BVz1wOg/Q+ivfeV4blS5dnfd3u/O9zwFmmJ5nLm3Vtlay8rWPmj9nr9mzSPgLpPjK+l8Wa58QPHPi3UFvfEniTVUCS3kilyoCAttAMsjHLMSXOTjAHrHiHRUubWQbMkiu/qtcQiWI5rpp4enTpqEFZI5qmIqVKjnN3bPgf4q/Dew1zw7qOm6jYxXthdRNHPDIuVdT2/wDr9RXyP+z78cfEX7Efx/f4eePZdR1j9nnxHfl7K/IMj6DOx5kAHVf+ekYHzAeYg3Bkb9ZfEvh5Lq2k/djkelfFfxg+EmleKfCWpaNrGnpd2FyhDqRyp7Mp7MDyCOhr5TiDIqeLpOLWp7GGr0q9J0K6vCW/+a80fqfpupafrPh6x1bSb601PS723S4s7u1lEkU8TqGR0ZchlIIII4INXa/B79nf9o/xh+xp8TbX4T/Fua/8Q/ATUbthoutiNpJdBd2ycAZJiySXiHI5ePJ3I37o6Tq2l694Y0/WtE1Cz1bSL63S4sr20mWWG4icBldHUkMpBBBFfhmY5dVwdVwmj4TOcmq4CrZ6wfwy6P8AyfdGhRRRXAeOeE/HvxW3w1+GunfFDTPg5q/xg8R6DfBLa30W3jbUNPtpwUuZ42Kl9ojyGRAdxK7sKC6/lz4N/Zg+N/7W37YfxF+N/wASP+Eo+BXwu8YFLa40iRvL1nVNNiESxWgRlBihIgiZ2kXazAEI4+Yft5RXZQxkqMXyrV9fI9rAZ1PB0pKlFc705tW0r3sltvrex+OP7VXivRPhT+yRdfC79kzWrnwLoXgDxPBbfFeDwiZLfWrOCWNPLuDO2JJVZzseYOfnCIzBcivc/wBkT4hfEyL9ou++G194x8U/G74I6t4SXxN4D+I+s2j/AGkqJIYprGec58yVHlZWV28xGjOQA21ei+N37Jnj7Ufjj4z+Kv7O/jrw94M8U+NNIbSvG/h3xNY/adF12Ix+X5jARyGOQL1xGwYknK7n3+t/sifAHUf2bf2NtP8Ah1rPiOHxNrLajPqN9cWwYW0MkuwGKANhvLAQHJALMWOBnA66tej9Wte7ffe/V/J7eTPYxWPwbyzlUlKb7/Fd6tt23TWjvrF2ep9OMisORWfcafFMpyoOa0qK8lOx8cm0cHqHheCcH92pB9q891XwDBNu/cqf+A176QD1FQvbxuOVFaRqtG9PEzj1Pj7VfhfBIW/0cf8AfNee6j8JI2LYg/SvvSXSoJP4Aay5vDtvJn5Fyfat44po9ClmtSPU/Om/+DkU8bJJaJKh6q6ZB/A1xV3+zz4cuJN1x4W0Oc+smnxsf1Wv02l8J275/dKfwqi3g2An/VD/AL5raONkjtp57Ujsz8yF/Zu8JK+V8G+GwfUaXD/8TW/p/wABtIs3U2mg6ZakdDDZomPyFfoqPBkGf9Uv5Cp08HQBh+6B/Cm8dLuaS4gqtfEfDVl8IVBGYP8Ax2u50z4TxIwJt/8Ax2vr2HwtboR+7UfhWrDoNvH/AAD8qyli2cVTOJvqfOmlfDSCJlP2cDH+zXpGmeCIIQv7pfyr1aPT4Yxwoq4sSL0ArCVZs4KmNqS6nMWWgQQAfux+VdDFaxxKMKBVqisnJs5JSb3EAA6VzHjTwV4U+Inwz1bwd420LT/EnhnUoTFeWF5HuSQdQR3VgcFWUhlIBBBANdRRSTad0EJyjJSi7NH8/v7TX7MPxc/Zi8Aa3pngvxR468Wfsh65rFveeJ9D066Au9OjSQFo5cqwVWGAJ1XYzLGJVyqbv2S/Zz8b/CXx5+yF4Q1L4JmGDwBZWi6fZ6eIjHLpzRKoa2mUkkSrkFiSd27cGYMGPtVxbwXdhPa3UENzazRtHNDKgZJFYYKsDwQQSCD1rC8J+EPC/gTwHZeF/BmgaV4Y8O2hc2unadbrDBEXcu21V4GWZifc1218Y61JRktV17+vn5nu5hnbxuFjTqr34u91onpvJdZaLXsdHRRRXCeAFFFeA/tE/tGfD/8AZt+B83i7xpdfadRnDR6HoVvIBd6rOB9xAfuoMgvIRtQEdSVVrhCU5KMVds2w+HqV6ip043k9kL+0Z+0T4H/Zt+AF1408XTi61CbdDoWhwyhbnVbkDIjTrtQZBeQghF9SVVvxw+G/hLx58c/2jr79oP40FrvxNqUgbRNLZSIdMtxnylRDnYqg/Ip5GS7ZdiRV0HQfiR+05+0gPjj8ccsCR/wjXhraRbafADujAjPRBnIB+Z2O5uwP6SeBPBSwQxMYsfhX6vwrwx7K1WqveZ+lYHA0spoNXvVl8T7f3V+r6m54G8IrbW8JMeMAdq+hdMsEggUBcYFUdH0pbe3QBQOK6lVCrgV+p0aSgjyq1VzY4cDFFFFbmAVDcXFvaWE93dzw21rDG0k00rhUjRRlmYngAAEkmpq/Lr9vD4461r3iXTf2UPhRdGXxb4jCHxfeQvxYWTDd9nYjlS6/PJ38vC4Pm4HHj8bDC0XVn0/F9jswGCni6ypQ6/gu54NqXiG7/bQ/4KUXHjJlmm+C3gGc2fhq3kU+XeyhgxmKnqZGVZWzyEWFCOtfrh8M/CYt7SAmMA4Havmr9nb4M6V4C+GeieHNJtyLa0jHmSsnzzyHl5X/ANpjk+3QcAV+ifhXRUtbKL5QMCvyXEV516kqk3qz9aw9CFClGnBaI6/SLJYLRAFxgVu0yNAkYFPrE2CiiigAooooAKKKKACiiigApkkcc0RjljSVD1V1yD+FPopptDTad0YknhzQpXLPpVmCf7qbf5VF/wAIt4fzn+zIPzb/ABroKK6VjcQtqj+9nWsxxaVlVl97KVrpun2XNpZWtuf70cYB/PrV2iiuec5Sd5O7OadSc3eTuwoooqSDkPEPh97lxq2kk22sQfMDHx5uOx9/59DXgH7S/wAf9e+DP/BNv4ifF/wtpmi6l4t8OLZJHYaskjWpe4vre1LOsbo5UCZmADDlcZr6ur8+/wDgon4Vnvv+CZPxWi05jEmqQ2CyqOjSpqVpKoPpuKD9a9fDT+t0/YT+JfC//bfn08z3sHP69R+rT+NL3H/7b6Pp2Zyn/Cy/+Ci//Pp+xV/368Q//F0f8LL/AOCi/wDz6fsVf9+vEP8A8XXvfUUV+f8A9rYjy+4/Yf8AiHeT/wAsv/AjwT/hZf8AwUX/AOfT9ir/AL9eIf8A4uj/AIWX/wAFF/8An0/Yq/79eIf/AIuvGNa+MPxGs/hP+2jqcHiLy77wHfyReFJPsFuf7PUWUcoGDHiX52J/eB+uOnFbmm/tULD8evB/wsu/Da6lrdzp2kNqmo3WtW1hPNJfW8cpmtbWQL9qjTcfM8pgynIVGwcdH1zF20t/Vn+p4v8Aqzw4pJSUlfRXfW8o20v1i/kel/8ACy/+Ci//AD6fsVf9+vEP/wAXXk2oaP8At4al+2j4f+Os7/sjr4u0fwxP4etrRG1wWL200wmZ3QguZAwwCJAuP4T1q34C/bJ8JeO/2o9O+H1toltaabq+pX2naHqieIbW4upprQOWa4sF/fWsUgjfy3fO7C8DdWp428S/FHx1+3nefB3wD8QB8LNI0DwhFrmpapBottqF3f3E87RxQhLgFVhQLuZlGScqSMghfXcWpWlZaXLXC3Ds6XPRUp+9y2T1vv1sttb3tbY7r/hZf/BRf/n0/Yq/79eIf/i6P+Fl/wDBRf8A59P2Kv8Av14h/wDi68w8f/tEeMvgJ8JfCcPxM0Lwl4x8U/2Vc3Wt6npviSDS7S4EEm1RaxTr5k9y6YYwogCndhsYrUk/aw0eb9qPQfhxpfhR7hdQh0yZru/1y3sblo7+FJo5La1lwbpI1ceZ5b7gQQqvg0fXcY1dWt/kJ8McNRlyTclLRWbd7yV0tvyukd3/AMLL/wCCi/8Az6fsVf8AfrxD/wDF0f8ACy/+Ci//AD6fsVf9+vEP/wAXXmPgL9snwl47/aj074fW2iW1ppur6lfadoeqJ4htbi6mmtA5ZriwX99axSCN/Ld87sLwN1fZNRUzHFU3aR14Lgvh/FwcqLcknbd7/d5ngn/Cy/8Agov/AM+n7FX/AH68Q/8AxdfUH7I/xk8Q/tAf8E8/h58XPFem6NpPiHXUvRe2ukpIlqjW9/c2oMayO7AFYA2CzYJPNc1XD/8ABNH/AJQl/BX/ALjH/p6v69DLMXUr83P0t+p8Zxzw7g8q9h9XT97mvd325bfmfdlFFFeqfABXwn/wUu/5Ql/Gr/uD/wDp6sK+7K+E/wDgpd/yhL+NX/cH/wDT1YUAdt+wf/yYf8G/+xK0v/0jir9Aq/P39g//AJMP+Df/AGJWl/8ApHFX6BUAFFFFABVa8/5Bs3+7Vmq15/yDZv8AdoA/Bj/gov8A8no/sm/9lEh/9KbOv2kr8W/+Ci//ACej+yb/ANlEh/8ASmzr9pKACiiigAPIrmta05bi1fKg5FdLTJEDxkGgD4u+JXgtbi2nPlA5z2r8j/7V8Q/sP/ttf8LE0G0vL34KeKrpbfxbotuvFoxYkSRr0DKSzx9By8eVDA1+/wB4m0NLuzkBQHI9K+GPjV8KdL8T+DtX0XV9PjvdMvYWiuIXXhlPp6EHBBHIIBHStqFedGoqkHZoyr0IVqbpzV0z6Z8PeINF8V+BtJ8S+HNStdY0HVLRLqwvbdt0c8TqGVgfcHp1HQ1sV+L37OXxk139kH9odfgR8V9QmuPgzrt20nhXxBcnCaTK7ch26LEzECQdEYiQYVmJ/Z9WV41dGV0YZVgcgj1r9UyvMqeMoqcd+q7P+tj8qzTLamDrOEtuj7r+tx1FFFekeaUrq2WWI8Zry/xN4ZjureQ+WDkeleu1SubZZYzxmonBSWppCo4s/OX4sfCPSvE3hbUNI1fTo77T7hSJI3Xp6MD1DA8gjkGvlv4Q/HD4n/sN/EGPw/4gTVfiB+zrfXZzb53XOis7cvCTgK2TkxnEchyRsYk1+uviLwzHdwyDywSfavlX4hfDK01LTLy1u7GC7tJkKSwzRhkdT1BB4Ir5HPMgpYum1JHu4fFUq1J0a65oPp+q7M/QHwB8QvBnxR+FemeNfAPiHT/E3hq/Tdb3lo+QD/EjqfmSRc4ZGAZTwQK7Ov539KsfjH+yN8X7rx78Cru51LwrcSBtf8F3ZeW3u4x6JnLEDO11/eJ2LKWWv11/Zt/a++FX7SnhkReHr0+HfHdvDv1Pwlqcqi8gx954jwJ4gf41GRxvVCQK/F82yOvgZu6vHufIZzw5VwidWi+en36r/Ev12PquiiivEPmQooooAKKKKACiiigAooooAKTA9BS0UAJgeg/KjA9BS0UAFFFFABRRRQAUUUUAFFFFABRRRQAUUyWWOG2kmmkSKGNSzu7AKoAySSegFflX+0f/AMFCkTxFe/Cj9lq2j8d+PZd0N14qjjEunaZ2ZoM/LO4/56N+5U4/1mSB04XCVcRNQpq7PQy7K8RjqnJRjfu+i82z6a/an/bB8A/s1eC/sUhi8WfFC/i/4knhS1lzKxbhZrgjJihz043OeFB+Zl/Kjwn8O/iN8cvjyfjN+0Bfza74nuGDaZorri10yIHKRrFyEVc5WMdDlnLOSRvfCH9nu7XxxcePfH+pXfjf4jajMbi91a/laYpI33ihfkt23nnHACjiv0P8G+BEt4YiYgMAdq/WOHOFI0LTqK8j9DwmFw2V03Gk7ze8v0XZfizO8D+BkgiiYwjPHavpHRdGS1t0AUZAp+kaNHbW6gIB+FdZHGI0AFfpVCgoI8mvXc2EcYRABUlFFdJzBRRXl3xj+L3g74H/AAE1n4g+Nr37Pplkm23toyPPv7hgfLt4VP3pGIPsAGY4VSRFSpGEXKTskXThKclGKu2eUftZ/tJ6V+zn+zy+o24g1P4ha1utPCukN8xlmwAZ3UcmKPcCcfeYqmRuyPiv9lb4G65Y3upfEX4gTXOsfE3xTM13q93dnfLCJG3mMn+8Sdz44yABwoJ85+Ffhnxz+0t+1HN+0Z8XIColYL4R0M5MNhbKSYmVT/CuSVJGWZmkPVTX68fDrwUltbQkxAdO1fl+dZrLG1tPhW3+Z+oZLlUcFR1+J7/5He+BPCyWlnCfLAwB2r3qythDbgYxWXpGnLbWqAKBgV0QAAwK8Y9kWiiigAooooAKKKKACiiigAooooAKKKKACiiigAooooAKKKKACvkn9ufj/gl18SnCb3WXTNvtnVLRSfyJr62r4a/4KD+K7bQv+CZ3xHV2ysEdjPcAd/8AT7YRp9WYj9PWvQyuDlioNdHd+SWrPVySlKeNptOyi+ZvslqzprFmfRrVm+8Ylz+VW6aiLHCkajCqoAHsKdX5xXmp1JSS0bZ/Us2nJtHzD49/ZU8F+PviZ4q1+48YfErw7p3io258W+H9E1lYNO1swKqIZkMbMpKKqtsZdwHYkk6/i/8AZs8H+Nfixp/iTWPEXjQ6ZaX1lex+G1u4H05JrPZ5Ji8yFpbdT5Y3rBJGJOrdTn4/+GniX4lxeM/Dvw5+HnjGy8EL4u+Kfjv+09Rn0aLUGjFo8U0bJHIQN2WYcnHzZIbAFUtI+MnxN1rxP8IPi5qHiXzdRh+E/inUbrQLe0RLXVLnTbhoyu0HOZjEjccptIXhjXd7Gstp7f1+h8H/AGjl0k3LDu8mm9rbxb6309om1ZJtvfU+2vBf7PvhzwD8VV1/w94s8fwaHDd3d5Z+EzqiDSbae6ZmmYIsYkkXLMVSSR0RmLAZwQ/4l/APQ/iH8UNP8c2HjHx98N/G1tpjaVLrXhHUktZ7uyZ9/wBnl3xuGUMSykAFWwc8DHw1aftKftC2X7NnjXxHda1pmoXL+D9I17R7+/g0eOa0uLnU7W3khS1tLmZ3s3inbZNMiOChB2tgV1fx0+OPxv8AhFNqNlZfEO28T634N0KwvvEot/CllbafcTXl5IEWd5pxKqmLbHHHaq7nZvdhk4X1etz/ABK+39aeZo84yxYZp0ZKCtK1krb2t719ot6bJfI+hNW/Y++Gt/4f0jStK1vxt4UsLPwbN4TuU0m8tw9/YTStNIJXlgkIkeV3kZ49hcsQ2VJWtPVP2WfBms+JfDF1qni34gahpGinTZIdFub23ltJJbBIkhkXdAZLct5SmRbd4lkJJI5OfNtO+J/xN8SftLeLF/4Wv4J8DaNp3xKfwbZeDNS0mOS5vIRbo63cUoJlNxIXMiIR5WEIY9a8Q+FHxD+KFv8AAn4G/D+0+MNp4TfxbrHiq5vPF+raXb3ctithdyBLFBMfLZpGLSkyfMqMFX5VAoUKzV+f+tX28gnicsU+VYd2fp0cYpW5tE3LrbzR9seC/wBn3w54B+Kq6/4e8WeP4NDhu7u8s/CZ1RBpNtPdMzTMEWMSSLlmKpJI6IzFgM4I96r87fhR8a/jf8XPin8FtGtfFWgeHbHUPC1/qviW4TREnTVEsNYFoZLcMQYzcRqBnO1BI7KpITH6JVy4iE4y993Z72TYnDVqLeHg4x0/FJ6avZNdvIK4f/gmj/yhL+Cv/cY/9PV/XcVw/wDwTR/5Ql/BX/uMf+nq/r1sk+38v1PzvxT/AOYX/t//ANtPuyiiivePyMK+E/8Agpd/yhL+NX/cH/8AT1YV92V8J/8ABS7/AJQl/Gr/ALg//p6sKAO2/YP/AOTD/g3/ANiVpf8A6RxV+gVfn7+wf/yYf8G/+xK0v/0jir9AqACiiigAqtef8g2b/dqzVa8/5Bs3+7QB+DH/AAUX/wCT0f2Tf+yiQ/8ApTZ1+0lfi3/wUX/5PR/ZN/7KJD/6U2dftJQAUUUUAFFFFAFW5gWaEg15H4v8MpeWkv7sHIr2as69tEngYFc8UAfkp+0R8BtF+IXw71LQdYtSEcF7W5RB5lrMM7ZE9xnkdwSDwa8W/ZL/AGl/EHwn+JNj+zD+0HefZ/JK2/gjxTcOfJmiJ2xW0jt/Afuxsfun923RcfrP4z8Ix3ltMfLByD2r82P2kf2dNG+I/gW602/g+zX0JaTTtQjjzJaS46j1U4AZehHoQCO3AY+rhKqqQ+a7o4sfgKWLpOnP5PsfpTRX5Tfsr/taeIPA3jyx/Zz/AGlrk2GuW+228LeL7uUmHUI87YoZ5W6k9EmPX7r4cZb9Wa/UsBj6WLpKpTfqux+W4/AVcJVcKi9H3Ciiiu04irPbpKhyK4fW/D0V1DJmMc+1ehVFJEsikEVMoprUqMnFnx54w+HyTpKVhBJ9q+Avir+zj9o8ZReMvBeo33gbx7ZTC4s9Y0yRoWMq8qzFCCG/21Ib1zjFfs7qWjR3EbAoDmvH/EvgaK5jkxEDnPavGx+V060Wmrns4LMp03ufE/wY/wCChnjX4aeIbD4e/tbaHcvbZEVl4+0u13h1HG64iQYkGOrxAOON0ZJLV+uHhLxj4U8e+A7HxR4L8RaP4o8PXi7rfUNNulnif1GVPDDoVOCDwQDX5ifED4P6brejXVhqmlWuo2Uo+eGeIOp98HofQ9RXxxZ/Db4w/s+/EO48X/s6+N9U8Nyu4a88P3cvmWV4o/gZXykgxwPMG5ckh1Nfluc8FtNzofd/X9eRhjuH8FjvfoP2c+32X/8AI/ivI/omor8qPhF/wU10BtatvB/7Svg6++FXigYQ63ZW8s+lznpuaP5pYgT0K+avUllFfpr4W8XeFvHHg228ReDfEeieKdCuB+5v9KvUuYX9RvQkZHcdR3r4HE4OtQlapGx8TmGU4vBStWhbz6P0ex0VFFFcx5oUUUUAFFFFABRRRQAUUUUAFFFFABRRRQAUUUUAFFFeGfGH9pP4K/AnR5J/iT470jSNQ8vfBo0D/aNRuOONlvHl8HpvYBB3YVUISm7RV2a0aFStNQpxcm+i1Pc6+ePjv+1J8G/2d/C73XxA8TQ/268JksvDmnYn1O89NsQI2Kef3khVOPvZ4r8yfiH+3n8fvjpPdaB+zr4Qk+GXg6UmNvFesBXv5U6EocGOE4yCIxK4OCHWvOPhz+zFZJ4rfxT40vNQ8feMrqbz7rVNYdpi0p5L4csWbP8AE5ZuMjFfV5VwnicS1Kpoj7LA8I8nv42XKv5Vv83svxYvxH+NP7Rn7Zd5LpjG4+D/AMEJ2wuj2bsbnU4s8ee+FaYH0wkXQ7XIzXufwj+A+geDdAhsND0tbdDgzTON0s7f3nbqT+g7AV734T+G6RCImAflX0LoPhOG1iT90MgDtX6tlHD1HCxSjE9+rjadGl7KhFRiui/Xu/NnHeFvBEVtFGTEB+Fe0abpMdvEAEAx7VoWenpDGPlAxWoAFGBX1dOioI8OpWc2NRFRcAU+iitjEKKK47x94/8ACPww+E+r+NvHGtWug+HNNi8y4uZjyT/CiKOXkY8Kigkk4AqZSUU23ZIqMXJpJXbDx/4+8J/DD4Sa1448bavb6J4c0uAy3NzKeT2VEXq8jHCqo5JIAr8XZr/xt+3J+1Da/EHxnYXWi/BbQrh4/C3hyRuLkBuXkxwzMQPMfpwI1yATR4k8SeP/ANu/4+2eta3Z6j4V/Z/0O7Y6HoZkKyai4JUyyEcNIRkMw4jBKISS7n9NfhZ8MbTS9IsLS0sILSzt4ljhhijCpGgGAoA4AA4xX51nuePFS9lSfuL8f+AfouRZGsLH2tVe+/w/4J0Xwz+H8VrZ2yrbpGiqAqquAAOgAr6+8P6KlraRjYBgVm+GvDsdnaxgIB+FejQxLHGABXzR9KPRAiACn0UUAFFFFABRRRQAUUUUAeZ6R4u1LUtaeB9R8NQstzLH9i8mX7QyoW6HfjJAz0q/aeOIB4Z0y4vrS7ub+ey+13Een25dYI8kF2yeF4Pcnit/RtDTSdDns/OW4eSeWXzfK2kb2Jx1PTOOtc4vgm7tbC2j07WxazDTfsF1I1pvEse4ncBu+VhuPc19LKrllWpJNcqTVt9d77K6W3d3Pt5V8jr1ZxkuWKa5d1dWlfaN0ttGm721te2rL4z0SItl7hkEsCK6oMOJ0Low5+7gHJ7YNatvrdjcaLfaiGkhs7SWVJZZFwD5ZIZhjqvB/KuZuvAdnPcW5ivJIIYdK+xLGY9xLBHRJScj5lDtxj8RW9baBBF8Oz4emmeeJ7Z4ppgu1nL5LPjnBJJPeuTEQy1Qj7OTvdX8l16f1fyPOxlPJVSg6M5Ntq9+i6va19L/AD8jDufHVr/wjupXFrYalHewWX2qCG7t9nnRngSDnlASM9DitpdcFn4BttX1dXSR40LxxQkMzsQAqpknJJGBmsIeDLue0u11HWhdzNpZ0+2kS02CKM4yxG75m4HcV0Oq6J/aXhKLTlufs88LRPBceXu2PGQQ23PI46Z71pX/ALOvCEHpzavXay2uvXpf8DXFLJlKnTpvRz9566Rstm0nbfpe/R6FBvGGnLYxP9j1ZryS4a3SwFr/AKQXVdzfKTjABznOKY3jXSfsljJDb6pdvdpI0cEFsWkUxkB1Zc8EZ+nHXplk3hvVZ/sF6+vbtbtLiSWK4a1BiVZFCtGI933cDrnOaNN8IjT7/T7k6g080Edx57NDjznmYFm6/KBjpz9afJlajdu71018/wC6tPh131d+5XssijDmcm3ronLe0rK7ivdvy2e+rurakX/CaWza9EkVpcy6W+kPqH2lU5AXkjGemMj/AHsD3qb/AITXTWsbWaCx1q5e53NBBFaEyOigEyAEj5OcZ7nOM1Th8FSW+nWlvFqo/d6PNpszNa53rISQw+b5SGwcc5AxxnNXrjwzdr/Y1xpmqrY6hYWP2MzPbeYsseFH3dwwcrkc/nVzjlXMkn37+dr6ddNv+G1qQyBziovTXX3ktOazl7revu3tsunabT/ES6p4ytrWyMMulz6QLyOXaQ+7zdmDzjHtjOe9dTXKaL4Vi0TVLOeC7eWO30z7HsaPliZDIXznuSeMfjUmt+JrXSz9lt1+3amx2pbx84P+1j+XWuHEYenWrqGEV1b+m/1PJxuFo4jFqngE5Rt6dXq/la72LWv65Bomlb2xLdycW8I6sfU+wr4D/wCChGjT2v8AwRJ+OGramWfVrv8Asgvu6xqdasDj69M+nA7V9yaL4fuZNU/tzX28/UmOYoTysI7fiOw7fWtzxD4c8PeLvBt94c8V6Do3ifw9eoEvdL1ayjurW5UMGAkikBVwGAOCDyAe1PEVadCk6FJ3b+J9/JeX5ixVelhaLw1B3b+KXf8AuryXfr6HwL/w0L8Av+i4fCD/AMLKw/8AjtH/AA0L8Av+i4fCD/wsrD/47X07/wAMt/sy/wDRunwJ/wDCB03/AOMUf8Mt/sy/9G6fAn/wgdN/+MV8h/YsP5mfbf8AEUMV/wA+I/ez44sviX+yZpus2eo6d8QP2drDULS6ubq1urbXNKjlgnusfaZUZXBV5cDzGBy+BuJqtB4//ZBto/D6W3jf9m+2TQZJZNDWLWdJQaa0pJla3w/7ouWYsUxuJOc5r7Q/4Zb/AGZf+jdPgT/4QOm//GKP+GW/2Zf+jdPgT/4QOm//ABiq/seP87Mf+Ik1f+gaP9W/yX3I+ILPxV+xfp2j63p1h4n/AGY7PT9ZlSXV7WHU9HWK+eNw6NMgbEhVwGG4HDcjnmpfEfjn9jfxf4sj1Txb4v8A2bfFGsfY2tlvdW1TSbuQQZ5i8yRj8uWPyk92wOtfbX/DLf7Mv/RunwJ/8IHTf/jFfGHiX4CfAyD/AIL0fDTwfB8F/hPD4SuvhHqN9c6InhGxWxmuVvlVZ3gEWxpAvAcjcBxmj+yFe/OyX4jVOXl+qwsIPH/7Ia/FVPHS+Ov2c18aLEI110a5pX24KF2ACbfv+78vX7vHTis2/wDE/wCxbqvhe80TUfE37Ml7o93qTanc2UuqaQ0Mt4yhWuWTdgzFVAMn3iBgmvuL/hlv9mX/AKN0+BP/AIQOm/8Axij/AIZb/Zl/6N0+BP8A4QOm/wDxij+yF/OwfiNUaaeFhr+u58g2PxX/AGWNL1XTr/TPiV+z/p19p+nf2bYXFr4h0uOS1tNyt9mjZXBSHcqny1wuVBxwK6H/AIaF+AX/AEXD4Qf+FlYf/Ha+nf8Ahlv9mX/o3T4E/wDhA6b/APGKP+GW/wBmX/o3T4E/+EDpv/xipeTQe8mbR8TcRFaYeK+bPmL/AIaF+AX/AEXD4Qf+FlYf/Ha6f/gmj/yhL+Cv/cY/9PV/Xu3/AAy3+zL/ANG6fAn/AMIHTf8A4xXrvh7w54e8JeDbHw54U0HRvDPh6yQpZaXpNlHa2tupYsRHFGAqAkk4AHJJ7124PBRw97O9z5jiXiirnHs+eCjyX287f5GzRRRXafLhXwn/AMFLv+UJfxq/7g//AKerCvuyvhP/AIKXf8oS/jV/3B//AE9WFAHbfsH/APJh/wAG/wDsStL/APSOKv0Cr8/f2D/+TD/g3/2JWl/+kcVfoFQAUUUUAFVrz/kGzf7tWarXn/INm/3aAPwY/wCCi/8Ayej+yb/2USH/ANKbOv2kr8W/+Ci//J6P7Jv/AGUSH/0ps6/aSgAooooAKKKKACiiigDJv7FLiFhtBJH514b4z8Gx3ltKREDkHtX0ORkYNZN/YJcQsCoJP60Afjp+0P8As56F8RfBlzpuq2hiuotz2F/Eg860k/vKe6njcp4Ye4BHlH7PP7Wviz4EeN9N+BX7Ts0z+H1xB4Y8dSFnRIgdqR3DnlohwBIfmj4Dgrhl/Xjxf4MivLeU+UDkHtXwX8b/AICaD438HX2i6/pa3lnJlkcDbJA/Z426qw9fwOQSK7MDj62Eqc9N/wCTOPHYCji6fJUX+aPvO3uLe7sILu1nhurWaNZIZonDpIjDIZWHBBBBBHWpq/EL4Y/G/wCLP7E/iq38GeP7fUviL+z/AC3OyxvYhuu9FDHpHk4A7mFiEY8oyncD+x3gXx74P+Jnwx03xj4F1+w8SeHL5N0F3aPkA90dT8yOvRkYBlPBAr9MyzNqONheOkuq/rofmeZ5TWwU7S1j0f8AXU6+iiivUPLEIBGDzWfc2Mcqn5QfwrRooA841fwxDcxtmMc+1eMeI/h5FOJCIRz7V9VvGrjBFZV1pkUynKg/hXPUw8ZHRSxEoH5p+Pfgno/iDSZrLWNFs9TtTk+XcQhtp9Qeqn3HNfJa/Az4hfCTxvL4o+AvxE8S/DvV85ktUu3NtOB0R+u9P9mRZBX7W6n4VgnVv3Y/KvLdb+HkMwciAfXFeFjskpVk1KNz2cPm0lHleqfR6r7j4j8Hf8FEfj98L5ItO/aC+FEHjbR4/lk8SeGwLa4293dFzC5/2cQV9z/C/wDb0/Zg+Kf2e3sfiLZ+ENYlx/xLPFqf2bICei+a5MDMemElY/pXiGu/C1H37YAf+A18y+N/2YvBfiGSaTUPDFmt02Sbm1UwS59SyY3H/ezXwuP4GpSbdPQ56+UZTi9eVwfeO33PT7rH7j2t3a3+nQ3ljc295aTIHingkDpIp6FWHBHuKsV/OXp/wJ+Jvwu1R774N/F/x74Dl37zbQ30iwyn0cRsqsPZlavVtF/al/b5+HZVNSn8C/Fuxi4xqOnxxybf96E27Fvc7jn1r5TFcI42l8Op49fgypvQrRl63i/1X4n7vUV+POkf8FRPGejbYviV+zN4iskX/W3+jam5T3xHJBj/AMi16tof/BVf9mrUnWPV9J+KHheYcSfbtFhlRT7GGd2I/wCAg+1eNVynF0370GeVV4WzSn/y5b9LP8mz9MKK+KNN/wCCiP7H2phAPi4ljK3WO88O6lFt+rG32/rXZ2/7bH7KdyitH8cfBKg9PNmkjP8A48gxXM8JXW8H9zOCeT4+PxUJL/t1/wCR9SUV80P+2T+y1HGHb46/Dwj/AGdSDH8gM1i337dH7JmnxF5/jb4WkA7W0NzcH8o4mNJYas/sP7mSsqxr2oy/8Bf+R9Y0V8G6x/wUq/ZE0yFmtPH+seIHX/lnp/hm+Un6GaKMfrXkOsf8FYfg3ue38F/DT4r+LL4cKstrbWsb/QrLK/5pW0MuxMtoM7KXDmaVNqEvmrfnY/VCivxc1j/go7+0f4nR4vhz+zhpXhvfxHP4kvZ7rA/vdLYZ79x9a8k1r4kft3fE8PFr/wAYo/AWlzcG08MwJaSxA9cSQosh/GY16eH4Zx1X7Nj0qPBuNf8AFlGHq7v8Ln7oeL/H/gb4f+H21Xx14w8M+D9OAJFxrGpRWqNjspdhuPsMk18FfEn/AIKf/APwtdTaV8O7HxT8YPEGSsEek2bWtm7j+EzTKHP1jicGvz10n9kuw1fxC2seONc8U+OdYmObi41G9f8Aen1JyZD+LmvqHwX8CNC8P2yw6LoGn6WhGG8i3Cs/+82Mt9Sa+lwXA0m06sv6/rzPYocM5bQ1rTdR+Xur9X+R5J4u/aV/bX+PBms9In074C+D7jK+VpSsmoNGfWdszBx6p5OfSuc8CfspeH7fWzrPiQX3jXxBNJ5txfawxlDyE5LbCSCSecuWPvX33oXwxjj2ZgH5V7Bo3gWCAL+5Ax/s19xlvDGHoL3YnqLH0sPDkw8FBeX6vdnz14X+F8cEcKLbLGigBVVcAAdhXvugeBobdEzEBj2r0/T/AA9DAq4jHHtXTwWccSj5QK+po4OMDyK2NlM5/TtDit0XCD8q6WK3SJQABU4AA4FLXakkcTk2FFFFMQUUV8qftKfta/Dz9nPwuLS+f/hKPiJexZ0jwrYyjz5CeFkmYA+TET3ILNyFVsHGNfEU6MHOo7JG1ChUrTUKau2es/F/4yeAfgd8Hbzxr8QdYTTdNiylrbR4e5v5sZWGCPILufwAGSxVQSPx51G5+J/7cPxs0/xl8Qra78K/BjTpy/hzwrDKwFyOnmOeC7MOGlwMj5YwoJNWvDvwy+KP7Sfxyg+LX7RM73TA50TwmiFLSwiJyqGLJCL0JQksxGZCTkV+oXw9+GkVrb26i2VEUAKoTAAH9K/Os5z2eLfJDSH5+v8AkfouTZFDCLnnrP8AL0/zMj4YfC200zSbC0tLCC0s4I1jhhijCpGoGAoA4AA7V9leGfDUdpbR/uwMD0p/hzwzFaW8f7sDA9K9Jt7dYYgABXzx9CEECxRgACrNFFABRRRQAUUUUAFFFFABRRRQAUUUUAFFFFABVC/1Ox0y086+uI4EP3QeWb6Dqaz9f16DRbBfl8++l4ggHVj6n2/nWJpfhmW9uhq3iVjd3j8pbN9yMdgR/Tp9a9HD4OHs/a13aPTu/T/M9bC4Cn7L2+Jlyw6W3l6eXd7DT4vvr6QjRNCuryMHHnSZC/px+tO/tPxy3K6DYgf7Tj/4uu4VVSNURVRFGAqjAAp1U8dQjpCgred2/wA0W8yw0NKeGjb+85N/mvyOF/tTxwPvaBZH6OP/AIuk/tTxw/CaDZKfVnH/AMXXd0Uf2hT/AOfEfx/zD+1aX/QND7pf/JHBNZeNdT/d3d9a6Tbn7wg+9+GOf/HhW9o/hvTtGHmRIZ7s/euJeW/D0rforOtmNWcORWjHslb7+r+ZlXzevUpunG0IvpFWT9er+bCiiiuA8sKKKKACiiigAr4T8Vf8rF3wq/7Itqf/AKcFr7E8b2nie/8Ag34qsvBWrR6F4xm0m4TQ9RkgSVLa7MbeTIyOCrKH2kgjkZr8NbO//aM1z9k6+/b2139p3RNF8c+DPD2o+HLrRZ/h3Z+fZTreeX/Zr4cRl5ZzDiQx7lEq8dRQB++VFeU/Az/hYj/shfDy5+LWqf2v8SLvRYbvxBP9jittlxMPNMPlxKqL5QcRcAZ2ZOSSa9WoAKKKKACiiigAooooAK+E/wDgpd/yhL+NX/cH/wDT1YV92V8J/wDBS7/lCX8av+4P/wCnqwoA7b9g/wD5MP8Ag3/2JWl/+kcVfoFX5+/sH/8AJh/wb/7ErS//AEjir9AqACiiigAqtef8g2b/AHas1WvP+QbN/u0Afgx/wUX/AOT0f2Tf+yiQ/wDpTZ1+0lfi3/wUX/5PR/ZN/wCyiQ/+lNnX7SUAFFFFABRRRQAUUUUAFHWiigDNvLJJ4mBUHNeTeKPB8V3BJ+6U5zniva6qXFqk0ZBFAH5v/En4S2Wq6RfWd7p0F7ZzxlJoJog6SKeqkHgivzbk8CfGf9lP4q33jz9nvUbi98PTyCTWvBV7umt7pBzgJnL4GcFSJV6KzAkV/QJr3heG7hkzGvPtXzV41+GiXEcxFuDnP8NaUqs6c1ODs0Z1aUKkHCaumeYfs4/tg/DP9obTF0q1lPhD4jwIf7Q8KanKBPlfvtbuQBOgwc4AdcfMq8E/Wdfj98bv2UdK8S69/wAJJokt34Q8bW0gltda03Mb+YvKs4UgsQQMMCGGBzxiofhl+2x8WPgT4hsfAv7UuiX3ijwuXEFh4602PzLhQOB5wwBOAOp+WYAEkSEivuMr4ohO0MTo+/T59vy9D4fNOF5wvPDart1+Xf8AP1P2HorjvA3xB8E/EzwBbeKfAPifSPFWgz8LdWE4cK2MlHX70bjPKOAw7gV2NfXRkpK6d0fIyi4uzVmFFFFUSMZFYYIqlNp8UoPyitCigDj7zw9DLn92D+FcdqHguCUN+6B/CvYajaJG6qKzlSizSNWSPmjUvh3BJuPkLz7Vweo/C+Fy2IB+VfZUljC+eBWfLosL/wAC1zTwcGdMMbNH8/nwrf48fGH4Y3PirTfiH8MdCtotRksjbatapHMWRUYsAIyNpDgA+xr26+0Tw94M8HeCNK+NWs+HL/xL4guXtrTUbXS5JdPunMuEUSCPZHhXjB3lRwT0BNfLf7Pep/sU2nwNvov2hfD3iDVPHZ1mZoJrKTUAgs9kXlr+4mRM7/N7Z5HPSvr345eMvgV4y/4Jl+Afhv8ABnw9d+IrzxZrCaP8PtGnEq3VnLBOEe5JkYyBVLGMFm+bzCDlQ+Pi8K06Dm5pyttzNv7radup9pilJV1BQajfflSX33179Dxvxzp3wF0rw/8AEj7Lovhi/wBb8JQMl+ieHJGhiu2ykMDyxxbctJ8pAbjDZI2kjjfAvhv4F+Jv2X3+IvibSPDWhxWL+TrPl29xHHBOSSkcYOTIxXaQE3dT6ED6O/Z70+wsf2G/2mPgLqmgHTfjp4Z0vW31u2DNLPrZkt5ViuYyeXAJSPjjDRt/y1rwrVraHxt/wRv+CuqeFLjUdRs/AHisL4+Sy0priXSVZ5nWdopFCTKiOp/iT94AxHzYU6einZfC3a3VO1vVdfRjhU1cLtWkle/Rq9/R9PVFnwH4B/Zv+Iz6mnhK10y/u9PtzcXVpNFcQzLEOsgR8Fl6crnGRnGRSeG9F/Zg128ii0OLQdRuG0251Fo/7Lndo7e3DmV3V0+XARiFPzEYIBBBPqvwp0bwf8Tf23bnxj4Z+LPxA+L+o6D4OuxqOtR+A7fSNISB7adI7aeQNE/mhpAyjyWJ2gBsIdvVfso+ANBb/giZ498XRaRYLrd1pOvtcX/2dfOcRwSoq78Z2hVHGcdfWtKGH52kox+076a2t2bXXuzOviOSLblL7Ktfq773S7dkeHaf4r/ZUstT0iG11DwlayX2PKlj8POiw5baPNbyh5eSP4sYGCcAg17f441/4SfCHVtN0jxlrsGlajeQfaLawtbGW4k8nJHmFYkbamVbBOM7WxnBryvXvCelQf8ABsX4X15NPtFvH1UXBn8obzK2rzRF93XOwBM/3QB0ru/HvjQ6H+3ppfh3W/FFn8CdKj+HmntZ+MbHwUuq634laSG3Y2lvK0cjKNzso2D70JHJYYqMnCKukrqLWn81+7XbuiZRjOTs27OSev8ALbsn37MzfjJ4607Rf2JNO+Knwj17S9WtLnxBDp4vPsu9RkSb0aORQUcbVOGAOCD0NffenfDOFNv7gflX4/21vFF/wQh8XwP9pivbT47rFLbXfFzCpsYsCReqtlWB46hvQ1/RXFpUMePlWvUymPt5SlLtF/ff/I8vNpewjGMe8l93L/meIad4Agi2/uFH4V3Fh4SgiA/dD8q9ES1iQcLU4VQOAK+ijQjE+dlXlI5+10WGID5AK2Y7WOMcAVZorVJIybbEAA6CloopiCiiigAqC5ubay064vLy4gtLSCNpJ55pAiRooyzMx4AABJJ6V82fHr9rX4O/s+6RPD4p11dX8X+XutfC+kss19ISPlMgztgQ9d0hGRnaGPFfmN4p1/8AaO/bJ1pW8a3V18K/g88ge28LaazLJdpnKmUkBpT0O6QBQQCkQzmvFzLPcPhLxvzS7L9ex7WW5FiMXaVuWPd/p3Pob46ft6anrvjC7+Ff7KWnr4v8TvmK98YtEHsbEdC1uG+WQg/8tX/d8fKJMgjzf4J/swz2vjibx54/1K68d/EjUJjcXmr37tN5cjfeKF8kt23tzjoFGRX0R8Hf2ffD/gzwzb6V4f0aGwtgQZHC5kmb+/I55Zvc9OgwOK+4vCHw+htYoiYQMe1fnmPzKvjJ81R6dF0R+h4DLaGDhy01r1fVnDeBvhvHbxQloADx/DX05oXhyK0gT5AOPStbSdDitYVAQDj0rqo4lRQAK4DvI4YFiQADpViiigAooooAKKKKACiiigAoor87v2x4/Fnin9vD9kL4S6N8Ufil8MPDfi9/FL65c+BfEL6VeXBsrC3uIMyKCCFbcMMrDDtjBwRFWoqcHN7LUxxNeFClKrPaKbfotT9EaK/OT/hje8/6PA/bj/8ADqn/AOR6P+GN7z/o8D9uP/w6p/8AkevI/t/Cd39x8n/r3lXd/cfo3RX5yf8ADG95/wBHgftx/wDh1T/8j0f8Mb3n/R4H7cf/AIdU/wDyPR/b+E7v7g/17yru/uP0brF1zW7XRNKM0xEk7cQwg8uf8PU1+f3/AAxvef8AR4H7cf8A4dU//I9Xpf2Q2n8ORafL+1D+19JNG24ai/xDVrw/MWA8025IAJ4xg8da6MLn+XKd6rdl0S38vL1OzBcd5Eql68pcq1slv5eXqfa/h/RbmbUW1/XMyajLzDEw4hHbjsfQdvrXbV+cn/DG95/0eB+3H/4dU/8AyPR/wxvef9Hgftx/+HVP/wAj08VxTh68+aTfkraJdkLG+JGXYmpzyb7JW0S6JH6N0V+cn/DG95/0eB+3H/4dU/8AyPR/wxvef9Hgftx/+HVP/wAj1zf2/hO7+45P9e8q7v7j9G6K/GD9qj4L+MvgJ+wh44+LXg79rH9sPU/EmgPYPZ22t/EyS4s5DNf21u3mRrEhYBZWIG4DIGcjIP7P16GExlPEwc4bbHv5Vm2HzGk6tBuydtdNdH+oUUUV1HphRRXxr/wUE8XeKfAv/BIb4veKfBfiLWfCniW0TTFtNV0m8e2urcS6rZwyeXKhDITHI65BBwxoA+yqK/KP/hmPXf8Ao7n9tb/w6b//ABmj/hmPXf8Ao7n9tb/w6b//ABmvM/tbD939x91/xDvOP5Y/+BH6uUV+Uf8AwzHrv/R3P7a3/h03/wDjNH/DMeu/9Hc/trf+HTf/AOM0f2th+7+4P+Id5x/LH/wI/Vyvxl8efBTxjcf8Frx8ALK3/wCLB+P/ABXafF7WoVQ+WJLKOSO9t27FJ7v7PvGON8Fd9/wzHrv/AEdz+2t/4dN//jNUZP2Vbw67b6tN+1b+2QdThge2gvH+Jp86OORkZ41cwZCs0cZKg4JRc5wKP7Ww/n9wv+Id5x/LH/wI/Wqivyj/AOGY9d/6O5/bW/8ADpv/APGaim/Zi8RtaSrb/te/toxTlCI3k+J8jqrY4JURAkZ7ZGfUUf2th+7+4P8AiHecfyx/8CP1hqGK5t52YQTwzFfvBHDY+uK/Of8AZbTVPg/8Sk8M/tAWvxR+LviE/a28O/E7UNfvPEGnRQmNy8DWczM2nTNHuTfiUS7zGJsER1ofAXxX+z1oC/tRXEvwH8UaJp+r+ILu906yX4Q3enzapojWOnxCyt91vGDuuIpmFvuXDHzMDlh2RxVKSupI+dr5BmNGfJOjK/pc/Q6ivxw0r4D/ABW8afFnxH4sv/jr+1H8F/h3etnw34Dsfi1eX+oaanGDPdOzogwDiBfOKZAM7Y5+xf8Agn34u8U+Ov8AgkN8IfFPjTxFrPivxLdpqa3eq6tePc3VwItVvIY/MlclnIjjRckk4UUUcTTqtqDvYWY5JjMBTpzxEOXnvZddLbrpufZVFFFbnkhXwn/wUu/5Ql/Gr/uD/wDp6sK+7K+E/wDgpd/yhL+NX/cH/wDT1YUAdt+wf/yYf8G/+xK0v/0jir9Aq/P39g//AJMP+Df/AGJWl/8ApHFX6BUAFFFFABVa8/5Bs3+7Vmq15/yDZv8AdoA/Bj/gov8A8no/sm/9lEh/9KbOv2kr8W/+Ci//ACej+yb/ANlEh/8ASmzr9pKACiiigAooooAKKKKACiiigAooooAjkiWRSCOtczqehxXMbDYDn2rqqQgEc0AfNvijwBBdRSYgU5HpXyd8Qvgzp+r6ReWOo6Xa6hYzqVmt7iESRuPQqeDX6aXNjFOhyoNcJrPhWC6jbMa8+1AH8/2sfs8/ET4NfEabx1+zp4x1bwNrinM2lNOWtLtQc+WwYMrL6JKrrnuuK+hvhh/wUYTSNftfBv7T3gfUPhz4gGE/4SDTrZ5tPnxwXeIbnQf7UZlUk9FFfoP4o+GkNwkhFuCf92vlL4jfAjRvEWiXGna1ollqti/WG5hDqD6jPQ+hGCK9HA5ricI/3ctOz2POx2VYbFr95HXut/69T7Q8MeK/DPjXwZaeIvCHiDR/E2hXQzBf6ZdpPC/qNykjI7g8g8EV0FfhVd/s4/Ef4QeNLjxR+z58RfEXgHU9259Oe5Z7SfHRH4Idf9mVJBXsPg7/AIKE/Ev4bXcGh/tNfCi+kt1YRjxT4YjUCTtl4mbynY9TskTH/POvs8FxTh6ulVcr+9HxmN4WxFLWk+Zfcz9dKK8O+Ff7SXwS+M9vEvw++IOh6rqbrk6RPIbW/X1/0eULIQO7KCvua9xr6SnVhUjzQd15HzdWlOnLlmrPzCiiitDMKKK/KL9nL9rS78Af8E9vHfxQ+NmseNvHkMPxYm0C0ljdLm4t42tLeRF/eyIBEpEhwDnLcA5rkxGNp0JxjPS6bv2tb/M7MPgqleEpQ1tZW73P1doxXx94E/bO8A+Nv2qNI+FFx4K+KPgjVddt2uPDV94o0L7FBq8ao0geIM5cK6oxRiuGxg7WIU+O/Bf9rzxV4j/bx+Ovh34gaJ480X4c6HELqxbU/DkFsnhOCC3mmmbUpEO9PMEf7vJkLHAGM1k80w94pSvd2+dr6miyvEWk3G1lf5N20P0i2j0FRLbwJv2QxLvOXwoG4+p9a+IPC/7e/wAMPEPj3w1aX/gj4reEfB3iTUjp3hzxrrehCHSNQn3FQFlDkgMwwDg4z8+wBiNrxV+238N/C/7TPij4Rf8ACJfEbXPHGj6na2ItNK0uOdbszoHMyESZWGIMu9mAI3DAbnFf2nhXHm51bYn+zcUpcvI77n2DbWNlZ2/k2lpbWsW4tshjCLk9TgdzVjavoK/Kr4T/AB2+IXxM/wCC0vjCPX7j42eFvh74cjdbbwvNpkdtpumILCbdJrAEn7oMytJE3zlpGjGVUAD2O0/4KEfCye40/V7rwD8YtM+GeoauNK0/x9deHQujzz72UnzPM3BflY8KXwrZQFSBlSzbDyi5N8qu1r1t19DarlOIjJJLmdk3bpfp6n3ngeg/KmPDDJLFJJFG8kRLRsyglCRgkHtwSK+VPi/+114L+FXxsPw207wb8RPij47g07+0dT0nwdpIvH022wD5k53Db8rBsAHAKliu5c07v9tj4LQ/sf8Ah74w2cviTVrLXdTOk6T4ds7ASavcX4+9aiHft3qCpLb9uGTBJdQd5ZhhlKUXNXW5zrAYlxjJQdnsfXdFfLHwy/a3+HnxAufHel67onjT4VeKvB2kvq/iDQfGOmG0uoLFEDvcqoLFo1BXOQG+ZTtIIJ4Twz+3f8Ptd8SeEjqvw5+LvhDwb4r1Qad4Y8YavoiJpd/MXMYBkWQlAWBxweASdoUkL+0cNZPnWv8Aw3y+Y/7OxN2uR6f8P8/kfcVFFFdpxBRRUFzc21lp813eXEFpawoXmmmkCJGo5LMx4AHqaAJ6K+Jfit+3/wDs6/DOSfT7DxJN8SfESHYuneFEF0m/oA1ySIcZ4O12Yf3a+LvE/wC0d+2F+0HLJZeCNMg+AfgW44FyjMdTljP/AE2ZRID3BiSL/eNeNjc+weH0cuZ9lr/wD2cFkOMxGqjyru9P+Cfpz8Y/2j/g78CdDa4+IfjCxsdSaPfbaJaH7RqNz6bIF+YA9N77U9WFfmj41/a6/aO/aMkm0L4G+G7n4QfD+clJPE16/wDxMbiPplJAMR5HaEMwI/1oqH4a/se+H7PxF/b/AIqbUPH3ieaTzZ9Q1pjKGkPV9jEgnPOXLn3FffvhH4SpDHD/AKKqKAMALwBXx2P4kxOIvGHuR8t/v/yPscBw3hsPaU/fl57fd/mfDHwf/ZI8P+H9aTXtYS58YeLZZfOn1fVB5jeaTlnRSSFJPO4ktyfmr9DfBvwtjhERa3A6dq9s8N/D2C2jjPkAY9q9h0zw/DbRriMDHtXzp9EcR4d8GQWkSfugMD0r1Gy02OCMYUDArQit0iUAKKsUAIFCjiloooAKKKKACiiigAooooAKKKKACvgD9pb/AJTI/sD/APc7/wDpngr7/r4A/aW/5TI/sD/9zv8A+meCuXH/AO7VP8L/ACPLzz/kXYj/AAS/9JZ9Z1WvLy00/Sbm/wBQuraxsbaJpbi5uJRHHEijLOzHAVQASSeAKs18h/t0aVrur/8ABNzxjBo1hqmr2kN9p91r2n6aGNxdabFeQyXSKF5I8tSzf7KtxivzqhTVSpGLdrs/nzB0FXxEKTduZpX9T6J8HfEb4ffEOyvbnwD458IeNrezkEd3JoOsQXywMc4DmJm2k4OM9ccV2dfl141+Kvwg1H4S/Gnx7+xz4Te4+ImgfDeCCbxl4W0VrXTrO1ku4ibXyMosl5FAJJ1/ckxrFtLrjZXlOp/E/wAV23gD4v6T8F/j38TfH3wzt7zwgum+OtU1Rry80/UrzUo4ru2huXRfMVoWV3hYFUJ27QGIPcsulLbT1+X+enc9uPD06jvFuOqVpLVX5d7bfErXs3rpofshd39jYLbtfXtpZLPOkEBnmVPNlc4SNcnlmPAUcmrdfjP8VY9Wsr3xb4K8YfFX4kap4L+HX7QnhN4vEWr66TeadY3tvBPcTTXIUALAxZ4nIHlEnFdXr/if4uWnwP8A2lfiZF8XviZHpmn/ABmvfCMkdncCWHwvoA1O3N1fW6bGbz442KK+SIoy20A5YH9m3Salv+trfmH+rrcYtVFrbo+trfg9T9VtW8QaDoB0z+3db0jRf7Sv49P077feRwfa7qTPl28W8jfK21tqLljg4HFGia/oPibQF1bw3rekeINLaaSFbzTbyO5hMkbtHIm9CV3K6srDOQykHBFfkVaeLdR8QeMvC+j6P4+8U/Fb4PaJ+0x4Sh8EeLfEF417c3Zksrh76AXTKDPHDNhVY5xuIyRg15ZJ49+Ifhv4AfDfRLHxzffDP4fTv4zvRrkfii40GCbVo9duhFHLcwWdy0pSM71tNqiYsRuJCqbWVtq3Nr/wG/vNo8MykklP3rr8U3tvfTbvc/d+ivzy+AV58VfH37eWqz+Ovin4pe08K+AvC+pXWg6U8ltpeq317YXSSTSQTwpJGhIaUw7Ij5hQso8sLX6G1wV6Pspcrd/+CeDjsG8NUUHK7snp5q/5HxN/wUW/5Q3fGL/uE/8Ap4sa/SWvza/4KLf8obvjF/3Cf/TxY13P/GzT/qxP/wAuWvruHP8Adpf4v0R+seHn/Iun/jf/AKTE+7KK+E/+Nmn/AFYn/wCXLR/xs0/6sT/8uWvfPvD7I8N+MfCXjGyvLnwl4o8PeJ7e0uXtruTStQiult5kYq8TmNjtcEEFTggg18b/APBS7/lCX8av+4P/AOnqwr8efjL/AMLH/wCGj2/4VB/wzX/wvX7UfP8A+GZv+Eo/tH7/AM/mbP8AQcbs78/N13V9CfGn/hvj/hx98Xv+Gmv+EC/4RHyNJ2fb9v8Awkuf7XsfLz9k/wBH2527vM/e+vOaAP06ooor4M/rg/Lfx34k8PeHfhz/AMFCfD+u67pGk67e6gslnp91eJHPcLcadCITGhOX3EgDAPWusvfjP8TvAv7RPgzwxfazHpHw601PDulTx6bp1nqapLc28Ilh1ICQXdpKzviJ0UpgqSr5OPrnRNI+CHxt0rw78W9P8KeDfG4k3f2R4g1Dw6pul8iZ4/lM8QlXZIj4yBgjI6g12OofDrwBq3xJsvGWqeB/COpeLrMqbTWrrSIJL2ArjaVmZS4K4GCDx2xXe8RBaSj/AMPZL9D5KOTYmX7yjWSTd01fWLlKWtt/iW2jtvqfDvwa+P8A8aPHH7VmgNqz2beCtd8QaxplxoV0NKtRpkdoZREbVhdfbridfLXzlkhA2uWUBQGra+KOmfDzxr/wVSufCnx6u9N/4QLTvhwl/wCFtO1vUjZ6fLctcut1cBt6K06oMdSVQbuNuR9l2Xw/8Cab8TLzxpp/gvwrY+MLtCl1rdvpUMd7MGOWDTBd7Z75POBnoKwNZ0P4SfF3UNT0TxFoHgz4gXPhm/FveWuqabFdnTbho0k2fvFO1ijITjqCM1Pt48/NGNlbp/XyNv7Ir/VlSq1VOXNf3tU7Lb0+1bWz8j4P8efGfVPh98BPCWkfAL4k+LdY8PaR4CvfEVtPrGi21zc3dpHdtDC11cX5h22oZWijWGN53ATaGBUnqdV/aK+J9t+0z4Tnv9as9J+Hd0fD0dxHo2nWmpwpLqEEMk0OoDzRd2bs8uIXVSu0qSr5OPY7/wCJX7JHi/4s2HgnXLHwZrHiDRtTl8L2EeseCJvstpcq5t3sIbia2EAy3yBEfDcYyDXu7/C34Zv4w0bxC/w88ENrukQxw6VqB0O3+0WSRACJYn2bkCBQFCkbQOMVpKrCK96HfdHJRwGJrSboYlNJx0i3ZWVrWu7el9bas+Jvg18f/jR44/as0BtWezbwVrviDWNMuNCuhpVqNMjtDKIjasLr7dcTr5a+cskIG1yygKA1fopXmd/ovwl8E/FOw8YXugeC/DvjPxHqK6Tba0NLhivdQuZVdxB5yrvZnEbk5PO3noK9MrlrzjJpxjZHu5ThauHpyhVq88r31d7aL7r726X0CuH/AOCaP/KEv4K/9xj/ANPV/XcVw/8AwTR/5Ql/BX/uMf8Ap6v69fJPt/L9T848U/8AmF/7f/8AbT7sooor3j8jCvhP/gpd/wAoS/jV/wBwf/09WFfdlfCf/BS7/lCX8av+4P8A+nqwoA7b9g//AJMP+Df/AGJWl/8ApHFX6BV+fv7B/wDyYf8ABv8A7ErS/wD0jir9AqACiiigAqtef8g2b/dqzVa8/wCQbN/u0Afgx/wUX/5PR/ZN/wCyiQ/+lNnX7SV+Lf8AwUX/AOT0f2Tf+yiQ/wDpTZ1+0lABRRRQAUUUUAFFFFABRRRQAUUUUAFFFFABTGRXGCAafRQBjXelQzocqK4PWPB8FyjZiU59q9VpjRqwwQKAPkfxF8MoJ1kPkA5z2r598VfB2G5t54pLKOWJwQ6OgZWB6gg9RX6UXGmQzKcqOa5PUfCsE6t+7B+goA/Cb4h/sYeCNXvZL7TdMuvCmqq+9LrRm8kBgcg+Xgp15yoB965jRtQ/bX+B7ongj4on4k+H4OF0bxSv2gso6IDMSyKOmEmT6en7c6x8PbecN+4U5/2a8k1z4UQy78W4/wC+a2o4irRlenJp+RjWw9KsrVIprzPgbw//AMFLNa8MyQ2Xx2+A/ijw06kLLqvh9/Mgc9ysU+0Y+k7V9Z+Bf23P2YvH8US6f8VND0C9fAaz8SbtMdCf4d8wWNj/ALrtWHrvwbjljlRrRXRgQVKZBFfMfjH9kP4e65LLLe+C9MjnbJM1mhtXJ9SYiuT9c172H4oxlPSVpev/AADwsRwvg6msbx9P+Cfqrper6Vrejx6joup6fq+nyf6u5srlJon+jKSD+dfhEvwb+LTf8EavGXhST4V/EU+I7j48DUY9HPhq7+1y2f2GNDcCHy95h3Ar5gG3PGavT/sc3fhbWn1P4c+PvHngPU+onsr1gVx0wYzG/wCb1uWU37dHgQj/AIRr4/XHiO3j/wCWfiKEXTSD0zcRTHPvvH1roxGf0MVb2sHGya0s97d7djmw2QV8Jf2U1K7T1utr9r9z7O/aA8G+K9Y/4K3fskeJNF8KeIdU8O6PJf8A9r6rZaZLLa2AZV2edKqlIgecbiM9q8J1v4c/EG+/bf8A20/h1/wgnjiEfFjQ418KeJ49Lf8AsXzLe0kmCT3f3Iw7ERcbjuJBA4rlbP8Aa0/bs8Nqqax8Nvhp4xt0+/OkJjlf3Hl3SD/yHXUWn/BRj4xaWoj8U/sp61eOPvzaXqk6IPfH2WUf+PV2yzLLq0nJ1Gru+393la0v0OKOW5lSioqmnZW3/vcyetup4h4R+F934w+H/wANvgx4l+DH7YmteK7C+ht9bsta8VS6b4U0bywyfbreR4ZowoUsVQIvDMqM2Ru+5/gX4I8TaV/wWV/as8Y6x4S1/TdD1O30+LRtavNMlitb1fLj8xYJmUJJgoudpOCozXktv/wVB0O3x/wkPwD+Jej4+95UyS4/77SOtNP+CqPwYX/j7+HHxet/XbY2bfzuRWuFrZbTcZe2vZp7W2TXbzMsVRzKopR9ja6tvfdp9/I6r4c+FPiboP8AwUP/AG4/FWkeDtat7nVdHtm8H3up6bJFY6rdx2snlpHLIojlXzNobBIGea/Pv4h+CPjH8SP2M9Pj1z4d/tZ+N/jNY6/53iEazp1x/Yemx+ZMqpp9mn33ZWiJKRkKDIcqpGft9v8Agqr8AyuIfA3xjkk7qdMsB/K8NVpP+Cp3wpdSNP8AhZ8WryQ/dV7a1TP/AHzM1TiJZdUhyOvp734u/wB6Kw8cxpz5lh9fd/8AJVb8SPWtU8Z/s5f8Faviz8XNQ+EnxM+JXgX4h6BajR7/AMKaM15cW1xHHAotp0O0w5aNhhsNjYQrYYDhvjd8OfjT8R/2avgB8X9Z+EGo+ENR8M+KbrUde8F/DoPZ6zbWNwbXZdRKMsLxRa54+dPMTKja+3pZ/wDgpvfXBP8Awjv7MvxC1jP3fN1Bos/98W0lc5eft9/tMa2WHhH9mjTtG3fc/ty8nlx9c/Z/6VFbG5dyzg6zcW27JbNu+9tdS6OCzFShNUUpKyu3ukrbX00Nr4N+AI/Ffxa+J/xH8P8AwS/aB1tbfwPeaXY6h8Y/FzRT+JWmi2nTfs7wswiYbwJhOVU4yATgfP8A4D0P4neEPid8PoP2c/B/7U/w48ZS+II08VeC/FFm83hSztvMbzT9pdUBjOF+aRN2GchwwXd3l9+0D/wUD8Xgx2n/AArr4bh/47PT4pdv/f03NcjefDr9qvx/uXx3+0h42+zS/wCusdJuJoYJAeoKRvEn5ofpXm18zwaUeRyuutkvue6/E9KhlmMblzqNn0u3962f4H7OeLfiX8O/ANqZvG/jvwh4RQLuA1fV4bVm/wB1XYFj7AEmvkDx7/wUf/Zr8ISS2uhat4h+I+pqdiweHtMbyt/YebOY1I903/jXxb4c/Yg8Frd/atbXxD4munbdK9/esodj1P7sKfzJr6f8F/s2eF/DYT+w/C2k6W4GDLBaKJG+r43H8TWtfi3ES/hwUfx/yMsPwlh461JuX4f5nkOv/tz/ALTnxJ3Wfwd+C1j4B06XhdY8RO1zMF7SJ5gijH02S/jXlN78Dfjj8ZtQS7+Ovxl8VeJ4GcO2j2MxSzQ9cqmFiT/gMI+tfpronwfRNmbYf9816/onwugiCf6OOn92vBxWZ4rEfxJt+XT7loe9hcswuH/hwSffr971Pz++Gv7LXg7wj5L6J4Ys4LoDm8lTzbg+v7x8sM+gIHtX1v4a+Escfl7rcD/gNfUGk+BLeBV/cr+Vd/Y+HYIFGI1H4VwnceM6B8O4LdE/cqMe1es6Z4Zgt0X92vHtXYQ2UUSjCgVcCgDgUAUoLKOFRhRV0AAcClooAKKKKACiiigAooooAKKKKACiiigAooooAK+AP2lv+UyP7A//AHO//pngr7/r87v2x5PFnhb9vD9kL4taN8Lvil8UPDfhB/FK65beBfDz6reW5vbC3t4MxqQAGbccsyjCNjJwDz4yDlQnFbtP8jz83pTq4GtCCu3GSXq0z7For4w/4bIvP+jP/wBuP/w1R/8Akij/AIbIvP8Aoz/9uP8A8NUf/kivg/7Kxf8Az7Z+G/6sZr/z4Z9lRQwwRlIIooVLFiEUKCTyTx3NLFFFDFshjjiTJO1FAGSck8e9fGn/AA2Ref8ARn/7cf8A4ao//JFH/DZF5/0Z/wDtx/8Ahqj/APJFH9l4v/n2w/1YzX/nwz7OIDKVYAgjBB70pAIIPINfGH/DZF5/0Z/+3H/4ao//ACRR/wANkXn/AEZ/+3H/AOGqP/yRR/ZWL/59sP8AVjNf+fDPsyOKOGBYoY0iiUYVEUAAewFK6JIm2RFdcg4YZGQcg/nXxl/w2Ref9Gf/ALcf/hqj/wDJFH/DZF5/0Z/+3H/4ao//ACRR/ZWL/wCfbD/VjNf+fDPs+ivjD/hsi8/6M/8A24//AA1R/wDkij/hsi8/6M//AG4//DVH/wCSKP7Kxf8Az7Yf6sZr/wA+GVf+Ci3/AChu+MX/AHCf/TxY1+ktfjB+1R8aPGXx7/YQ8cfCTwd+yd+2HpniTX3sEs7nW/hpJb2cZh1C2uG8yRZXKgrEwB2kZIzgZI/Z+vqsiw9SjQcZqzv+iP1HgnAYjCYGcK8HFuTeva0Qooor2j7E5vw34O8JeDrK8tvCXhfw94Yt7u5e5u49K0+K1W4mdizyuI1G5ySSWOSSTXxv/wAFLv8AlCX8av8AuD/+nqwr7sr41/4KCeEfFPjr/gkN8XvC/gvw9rPivxLdppj2mlaTZvc3VwItVs5pPLiQFnIjjdsAE4U0Aa1FfK//AA05rv8A0aN+2t/4ax//AI9R/wANOa7/ANGjftrf+Gsf/wCPV8d9QxH8jP6W/wBbcn/6CInxt8N/gf4j8RfDX4Y6D468C+P7XTNN+FHiUy2clte2KpqJ1mSS1ilC7CZSr+akbcthXAOAa4/xDpur63czaN468F/GDxT49T4C6Imk2ukW999p07XQbhLea6iiIZHDjJklBC7XB5cA/fP/AA05rv8A0aN+2t/4ax//AI9WDB8dVtviPf8Ai+D9jH9syLxLfWUVld6gPhZJ5ssETM0cZ/f4wrO5H1NegvrN23B/0z46f9h+zjCGLjpZO63SjZfNW07XZ8y/EbTPi/pPhL46+EdV8C/FDxV4v8Z6J4MmsdT0TR57y0aayt7ZNRZ548qjCSKTKjLNuBxg5r6s+BHgqHwf+2T+0o8nhLWtEm1bxHBf6dqU1lOLS+tJLaMt5U7fu3YT+cWUHcpPIAwKuf8ADTmu/wDRo37a3/hrH/8Aj1H/AA05rv8A0aN+2t/4ax//AI9WU6WJlHl9n/Wn+R6OGx+SUcQqv1tOzur+fO9/Wb18keMfDb9nnxj43134np458W+L/C3w+Hxr1TXbfwh/YMVt/ahivVnguhdSJ5rQSYXGz5WC5Vu9cD4R8G+NoP2tPCN1/wAIX8TrX44w/FW8u/GfjC5guho954bLT/u1nY/Z3haIwJFEvKshwFPFfUv/AA05rv8A0aN+2t/4ax//AI9R/wANOa7/ANGjftrf+Gsf/wCPU+XFa+5uZPEZAlDlxSvF3vq7630vtbpba701PkDQvgF/Zn7GX7O/i7xH8PviDrHjFPiRbXXjSC5tr+5vrTTke/jA+yfeiiUfZz8iA/NuPUmv1nr5X/4ac13/AKNG/bW/8NY//wAeo/4ac13/AKNG/bW/8NY//wAerKth8TV3g+p35Xm+RYGLjTxEdVFfcrX+e/rc+qK4f/gmj/yhL+Cv/cY/9PV/Xh//AA05rv8A0aN+2t/4ax//AI9X0l/wT78I+KfAv/BIb4Q+F/Gnh7WfCniW0TU3u9K1a0e2urcS6reTR+ZE4DITHIjYIBwwr0spoVKfPzq17fqfFeImb4PHfV/q9RS5ea9ul+W35H2VRRRXsH5oFfCf/BS7/lCX8av+4P8A+nqwr7sr4T/4KXf8oS/jV/3B/wD09WFAHbfsH/8AJh/wb/7ErS//AEjir9Aq/P39g/8A5MP+Df8A2JWl/wDpHFX6BUAFFFFABVe7GdOm/wB2rFRyrutnX1WgD8EP+CkksenftT/su63eOtvpdj8QYnurhzhYlE1s+Se3yo5/A1+09fn7+3f8BYPjL8B9S8PzE217FMLvTLzZu+zXCBgrY7qQzKR/dY45wa+H/h5/wUB/ae+BXw9svh38V/gLefGG60aFbSx8Q6bqkttNcQoNqGZ0t51lbaAN5WNiACwLZJAP3ior8V/+HtPj7/ozHxh/4VU//wAq6P8Ah7V4+/6Mx8Yf+FVP/wDKugD9qKK/Ff8A4e1ePv8AozHxh/4VU/8A8q6P+HtXj7/ozHxh/wCFVP8A/KugD9qKK/Ff/h7V4+/6Mx8Yf+FVP/8AKuj/AIe1ePv+jMfGH/hVT/8AyroA/aiivxX/AOHtXj7/AKMx8Yf+FVP/APKuj/h7V4+/6Mx8Yf8AhVT/APyroA/aiivxX/4e1ePv+jMfGH/hVT//ACro/wCHtXj7/ozHxh/4VU//AMq6AP2oor8V/wDh7V4+/wCjMfGH/hVT/wDyro/4e1ePv+jMfGH/AIVU/wD8q6AP2oor8V/+HtXj7/ozHxh/4VU//wAq6P8Ah7V4+/6Mx8Yf+FVP/wDKugD9qKK/Ff8A4e1ePv8AozHxh/4VU/8A8q6P+HtXj7/ozHxh/wCFVP8A/KugD9qKQgHqM1+LH/D2rx9/0Zj4w/8ACqn/APlXR/w9q8ff9GY+MP8Awqp//lXQB+0EltFIOVFZVxosEoPyA1+On/D2rx9/0Zj4w/8ACqn/APlXR/w9q8ff9GY+MP8Awqp//lXQB+s954Tt5Q37pTx6VyF/4Ct5d37lf++a/Mb/AIe0+Pj1/Yx8Xn/uap//AJV0xv8AgrL47br+xf4v/wDCqn/+VdAH6D3/AMM7eTP+jrz/ALNcVffCeB92LYflXxK//BV3xu55/Yv8Xf8AhUz/APyrqq//AAVS8aOOf2MPF/8A4VM//wAq6APrS9+D8LE4th/3zXM3XwbjOcW3/jtfMr/8FR/GT/8ANmXi8f8Aczz/APysqo//AAU98YN1/Y08XD/uZp//AJWUAfRM3wYXJ/0bn/drOf4MjP8Ax7j8q+f2/wCCmvi5j/yZt4uH/czT/wDysqI/8FMfFx6/sb+L/wDwpp//AJWUAfQI+DIz/wAe/wD47VmP4MjjNv8A+O185/8ADy/xZn/kzfxd/wCFNP8A/Kynj/gpl4uH/Nm/i/8A8Kaf/wCVlAH05B8GVDA/Z/8Ax2ugtPg5EMZtx/3zXySv/BTfxcv/ADZr4u/8Kaf/AOVlWk/4KgeMU6fsZ+LiP+xnn/8AlZQB9rWXwigULm2H/fNdlYfCu3Tb/o6/9818BJ/wVK8Zp0/Yx8XH/uaJ/wD5WVcT/gqt41Q8fsYeL/8AwqZ//lZQB+k9h8OLePH7hR+FdnY+B7eID9yvHtX5XJ/wVg8cp0/Yv8X/APhUz/8AyrqYf8FZ/Hg6fsYeL/8Awqp//lXQB+vFp4Zt4gP3a1vw6XBEv3BX41f8PavH3/RmPi//AMKqf/5V0v8Aw9q8ff8ARmPjD/wqp/8A5V0AftGsKKOAKlr8V/8Ah7V4+/6Mx8Yf+FVP/wDKuj/h7V4+/wCjMfGH/hVT/wDyroA/aiivxX/4e1ePv+jMfGH/AIVU/wD8q6P+HtXj7/ozHxh/4VU//wAq6AP2oor8V/8Ah7V4+/6Mx8Yf+FVP/wDKuj/h7V4+/wCjMfGH/hVT/wDyroA/aiivxX/4e1ePv+jMfGH/AIVU/wD8q6P+HtXj7/ozHxh/4VU//wAq6AP2oor8V/8Ah7V4+/6Mx8Yf+FVP/wDKuj/h7V4+/wCjMfGH/hVT/wDyroA/aiivxX/4e1ePv+jMfGH/AIVU/wD8q6P+HtXj7/ozHxh/4VU//wAq6AP2oor8V/8Ah7V4+/6Mx8Yf+FVP/wDKuj/h7V4+/wCjMfGH/hVT/wDyroA/aiivxX/4e1ePv+jMfGH/AIVU/wD8q6P+HtXj7/ozHxh/4VU//wAq6AP2oor8V/8Ah7V4+/6Mx8Yf+FVP/wDKuj/h7V4+/wCjMfGH/hVT/wDyroA/aiivxX/4e1ePv+jMfGH/AIVU/wD8q6P+HtXj7/ozHxh/4VU//wAq6AP2oor8V/8Ah7V4+/6Mx8Yf+FVP/wDKuj/h7V4+/wCjMfGH/hVT/wDyroA/aiivxX/4e1ePv+jMfGH/AIVU/wD8q6P+HtXj7/ozHxh/4VU//wAq6AP2oor8V/8Ah7V4+/6Mx8Yf+FVP/wDKuj/h7V4+/wCjMfGH/hVT/wDyroA/aiivxX/4e1ePv+jMfGH/AIVU/wD8q6P+HtXj7/ozHxh/4VU//wAq6AP2oor8V/8Ah7V4+/6Mx8Yf+FVP/wDKuj/h7V4+/wCjMfGH/hVT/wDyroA/aiivxX/4e1ePv+jMfGH/AIVU/wD8q6P+HtXj7/ozHxh/4VU//wAq6AP2oor8V/8Ah7V4+/6Mx8Yf+FVP/wDKuj/h7V4+/wCjMfGH/hVT/wDyroA/aiivxX/4e1ePv+jMfGH/AIVU/wD8q6P+HtXj7/ozHxh/4VU//wAq6AP2oor8V/8Ah7V4+/6Mx8Yf+FVP/wDKuj/h7V4+/wCjMfGH/hVT/wDyroA/aiivxX/4e1ePv+jMfGH/AIVU/wD8q6P+HtXj7/ozHxh/4VU//wAq6AP2oor8V/8Ah7V4+/6Mx8Yf+FVP/wDKuj/h7V4+/wCjMfGH/hVT/wDyroA/aiivxX/4e1ePv+jMfGH/AIVU/wD8q6P+HtXj7/ozHxh/4VU//wAq6AP2oor8V/8Ah7V4+/6Mx8Yf+FVP/wDKuj/h7V4+/wCjMfGH/hVT/wDyroA/aiivxX/4e1ePv+jMfGH/AIVU/wD8q6P+HtXj7/ozHxh/4VU//wAq6AP2oor8V/8Ah7V4+/6Mx8Yf+FVP/wDKuj/h7V4+/wCjMfGH/hVT/wDyroA/aivgT/gp1qdjYf8ABFv4rWt3cRwz6ldaTbWSMcGWUapaTFR6ny4ZG+imvlIf8FaPiAen7GHjAn/sabj/AOVdeDeL9e+Pn7e3x+8Iy/FHwvH8Nvg5oF59ps/CsEjmS6kPBaUthnkK/JvZUCozBFBZiQD9df2GLSez/Yf+EdpcxNFcQeD9MjlQ9VZbSIEfmK++K+f/AIKeHDo3gqyhMQiVIwFUDAAA6Yr6AoAKKKKACiiigDiPFXhO117TZIpY1fcO4r5D8V/s06dqepSSi0Xk/wB2vvOmGNG6op/CgD80T+ylYk/8ev8A47R/wyjY/wDPqf8Avmv0s8iH/nmn5UeRD/zzT8qAPzT/AOGUbH/n1P8A3zR/wyjY/wDPqf8Avmv0s8iH/nmn5UeRD/zzT8qAPzT/AOGUbH/n1P8A3zR/wyjY/wDPqf8Avmv0s8iH/nmn5UeRD/zzT8qAPzT/AOGUbH/n1P8A3zR/wyjY/wDPqf8Avmv0s8iH/nmn5UeRD/zzT8qAPzT/AOGUbH/n1P8A3zR/wyjY/wDPqf8Avmv0s8iH/nmn5UeRD/zzT8qAPzT/AOGUbH/n1P8A3zR/wyjY/wDPqf8Avmv0s8iH/nmn5UeRD/zzT8qAPzT/AOGUbH/n1P8A3zR/wyjY/wDPqf8Avmv0s8iH/nmn5UeRD/zzT8qAPzT/AOGUbH/n1P8A3zR/wyjY/wDPqf8Avmv0s8iH/nmn5UeRD/zzT8qAPzT/AOGUbH/n1P8A3zR/wyjY/wDPqf8Avmv0s8iH/nmn5UeRD/zzT8qAPzT/AOGUbH/n1P8A3zR/wyjY/wDPqf8Avmv0s8iH/nmn5UeRD/zzT8qAPzT/AOGUbH/n1P8A3zR/wyjY/wDPqf8Avmv0s8iH/nmn5UeRD/zzT8qAPzT/AOGUbH/n1P8A3zR/wyjY/wDPqf8Avmv0s8iH/nmn5UeRD/zzT8qAPzT/AOGUbH/n1P8A3zR/wyjY/wDPqf8Avmv0s8iH/nmn5UeRD/zzT8qAPzT/AOGUbH/n1P8A3zSf8Mo2P/Pp/wCO1+lvkQ/880/KjyIf+eaflQB+aX/DKNh/z6f+O0v/AAyjY/8APqf++a/SzyIf+eaflR5EP/PNPyoA/NP/AIZRsf8An1P/AHzR/wAMo2P/AD6n/vmv0s8iH/nmn5UeRD/zzT8qAPzT/wCGUbH/AJ9T/wB80f8ADKNj/wA+p/75r9LPIh/55p+VHkQ/880/KgD80/8AhlGx/wCfU/8AfNH/AAyjY/8APqf++a/SzyIf+eaflR5EP/PNPyoA/NP/AIZRsf8An1P/AHzR/wAMo2P/AD6n/vmv0s8iH/nmn5UeRD/zzT8qAPzT/wCGUbH/AJ9T/wB80f8ADKNj/wA+p/75r9LPIh/55p+VHkQ/880/KgD80/8AhlGx/wCfU/8AfNH/AAyjY/8APqf++a/SzyIf+eaflR5EP/PNPyoA/NP/AIZRsf8An1P/AHzR/wAMo2P/AD6n/vmv0s8iH/nmn5UeRD/zzT8qAPzT/wCGUbH/AJ9T/wB80f8ADKNj/wA+p/75r9LPIh/55p+VHkQ/880/KgD80/8AhlGx/wCfU/8AfNH/AAyjY/8APqf++a/SzyIf+eaflR5EP/PNPyoA/NP/AIZRsf8An1P/AHzR/wAMo2P/AD6n/vmv0s8iH/nmn5UeRD/zzT8qAPzT/wCGUbH/AJ9T/wB80f8ADKNj/wA+p/75r9LPIh/55p+VHkQ/880/KgD80/8AhlGx/wCfU/8AfNH/AAyjY/8APqf++a/SzyIf+eaflR5EP/PNPyoA/NP/AIZRsf8An1P/AHzR/wAMo2P/AD6n/vmv0s8iH/nmn5UeRD/zzT8qAPzT/wCGUbH/AJ9T/wB80f8ADKNj/wA+p/75r9LPIh/55p+VHkQ/880/KgD80/8AhlGx/wCfU/8AfNH/AAyjY/8APqf++a/SzyIf+eaflR5EP/PNPyoA/NP/AIZRsf8An1P/AHzR/wAMo2P/AD6n/vmv0s8iH/nmn5UeRD/zzT8qAPzT/wCGUbH/AJ9T/wB80f8ADKNj/wA+p/75r9LPIh/55p+VHkQ/880/KgD80/8AhlGx/wCfU/8AfNH/AAyjY/8APqf++a/SzyIf+eaflR5EP/PNPyoA/NP/AIZRsf8An1P/AHzR/wAMo2P/AD6n/vmv0s8iH/nmn5UeRD/zzT8qAPzT/wCGUbH/AJ9T/wB80f8ADKNj/wA+p/75r9LPIh/55p+VHkQ/880/KgD80/8AhlGx/wCfU/8AfNH/AAyjY/8APqf++a/SzyIf+eaflR5EP/PNPyoA/NP/AIZRsf8An1P/AHzR/wAMo2P/AD6n/vmv0s8iH/nmn5UeRD/zzT8qAPzT/wCGUbH/AJ9T/wB80f8ADKNj/wA+p/75r9LPIh/55p+VHkQ/880/KgD80/8AhlGx/wCfU/8AfNH/AAyjY/8APqf++a/SzyIf+eaflR5EP/PNPyoA/NP/AIZRsf8An1P/AHzR/wAMo2P/AD6n/vmv0s8iH/nmn5UeRD/zzT8qAPzT/wCGUbH/AJ9T/wB80f8ADKNj/wA+p/75r9LPIh/55p+VHkQ/880/KgD80/8AhlGx/wCfU/8AfNH/AAyjY/8APqf++a/SzyIf+eaflR5EP/PNPyoA/NP/AIZRsf8An1P/AHzR/wAMo2P/AD6n/vmv0s8iH/nmn5UeRD/zzT8qAPzT/wCGUbH/AJ9T/wB80f8ADKNj/wA+p/75r9LPIh/55p+VHkQ/880/KgD82YP2U7FZ1JtOM/3a9y8B/AXTtAuYpBaoCvfbX1p5MX/PNPyqQKq9AB9BQBm6XpsWnaekMahcDHFadFFABRRRQAUUUUAFFFFABRRRQAUUUUAFFFFABRRRQAUUUUAFFFFABRRRQAUUUUAFFFFABRRRQAUUUUAFFFFABRRRQAUUUUAFFFFABRRRQAUUUUAFFFFABRRRQAUUUUAFFFFABRRRQAUUUUAFFFFABRRRQAUUUUAFFFFABRRRQAUUUUAFFFFABRRRQAUUUUAFFFFABRRRQAUUUUAFFFFABRRRQAUUUUAFFFFABRRRQAUUUUAFFFFABRRRQAUUUUAFFFFABRRRQAUUUUAf/9k=;" parent="1" vertex="1">
                    <mxGeometry x="324" y="-754" width="485.97" height="357" as="geometry"/>
                </mxCell>
                <mxCell id="115" style="edgeStyle=none;html=1;entryX=0.375;entryY=0.986;entryDx=0;entryDy=0;entryPerimeter=0;" parent="1" source="114" target="3" edge="1">
                    <mxGeometry relative="1" as="geometry">
                        <Array as="points">
                            <mxPoint x="603" y="-262"/>
                            <mxPoint x="662" y="-266"/>
                        </Array>
                    </mxGeometry>
                </mxCell>
                <mxCell id="117" style="edgeStyle=none;html=1;entryX=0.543;entryY=0.007;entryDx=0;entryDy=0;entryPerimeter=0;" parent="1" source="114" target="93" edge="1">
                    <mxGeometry relative="1" as="geometry"/>
                </mxCell>
                <mxCell id="114" value="LoadUserByEmailMongoRepo" style="rounded=1;whiteSpace=wrap;html=1;fillColor=#f5f5f5;fontColor=#333333;strokeColor=#666666;" parent="1" vertex="1">
                    <mxGeometry x="512" y="-258" width="172" height="62" as="geometry"/>
                </mxCell>
                <mxCell id="119" value="SignUpComposer" style="rounded=0;whiteSpace=wrap;html=1;" parent="1" vertex="1">
                    <mxGeometry x="-17" y="-75" width="120" height="60" as="geometry"/>
                </mxCell>
                <mxCell id="120" value="ExpressRouteAdapter" style="rounded=0;whiteSpace=wrap;html=1;" parent="1" vertex="1">
                    <mxGeometry x="-17" y="2" width="130" height="60" as="geometry"/>
                </mxCell>
                <mxCell id="125" value="" style="edgeStyle=none;html=1;" parent="1" source="121" target="120" edge="1">
                    <mxGeometry relative="1" as="geometry"/>
                </mxCell>
                <mxCell id="121" value="SignUpRouter" style="rounded=0;whiteSpace=wrap;html=1;" parent="1" vertex="1">
                    <mxGeometry x="-14" y="99" width="120" height="60" as="geometry"/>
                </mxCell>
                <mxCell id="124" value="" style="edgeStyle=none;html=1;" parent="1" source="122" target="121" edge="1">
                    <mxGeometry relative="1" as="geometry"/>
                </mxCell>
                <mxCell id="122" value="App" style="rounded=0;whiteSpace=wrap;html=1;" parent="1" vertex="1">
                    <mxGeometry x="-17" y="206" width="120" height="60" as="geometry"/>
                </mxCell>
            </root>
        </mxGraphModel>
    </diagram>
</mxfile>